<svg xmlns="http://www.w3.org/2000/svg" version="1.1" xmlns:xlink="http://www.w3.org/1999/xlink" xmlns:svgjs="http://svgjs.com/svgjs" width="1440" height="560" preserveAspectRatio="none" viewBox="0 0 1440 560"><g mask="url(&quot;#SvgjsMask1070&quot;)" fill="none"><rect width="1440" height="560" x="0" y="0" fill="rgba(39, 38, 64, 1)"></rect><path d="M1536 560L0 560 L0 213.99Q50.45 192.44, 72 242.89Q106.58 157.47, 192 192.05Q221.95 150, 264 179.95Q313.98 157.93, 336 207.91Q389.16 189.07, 408 242.24Q475.43 189.67, 528 257.1Q545.43 154.53, 648 171.96Q677.38 129.34, 720 158.73Q783.25 149.98, 792 213.23Q805 106.23, 912 119.22Q977.98 65.2, 1032 131.17Q1098.42 125.59, 1104 192.02Q1131.1 147.12, 1176 174.21Q1252.24 130.45, 1296 206.69Q1321.73 112.42, 1416 138.15Q1482.09 84.24, 1536 150.32z" fill="rgba(49, 25, 57, 0.5)"></path><path d="M1488 560L0 560 L0 295.78Q97.81 273.59, 120 371.4Q173.97 305.37, 240 359.34Q243.49 290.83, 312 294.32Q313.51 223.83, 384 225.35Q480.89 250.25, 456 347.14Q436.48 255.62, 528 236.1Q621.92 258.02, 600 351.94Q642.88 322.81, 672 365.69Q700.08 273.77, 792 301.85Q830.51 220.37, 912 258.88Q958.09 232.97, 984 279.05Q1019.03 194.08, 1104 229.11Q1155.63 208.74, 1176 260.37Q1249.62 213.99, 1296 287.6Q1355.44 275.05, 1368 334.49Q1397.18 243.68, 1488 272.86z" fill="rgba(20, 69, 82, 0.5)"></path><path d="M1488 560L0 560 L0 354.2Q99.42 381.62, 72 481.04Q62.42 351.46, 192 341.88Q257.75 335.63, 264 401.37Q291.04 356.41, 336 383.46Q415.69 343.15, 456 422.85Q485.66 380.51, 528 410.18Q576.2 338.38, 648 386.59Q713.98 332.57, 768 398.55Q801.88 312.43, 888 346.31Q941.58 327.88, 960 381.46Q1031.8 381.25, 1032 453.05Q1083.41 384.47, 1152 435.88Q1211.57 423.44, 1224 483.01Q1248.13 435.13, 1296 459.26Q1295.34 386.6, 1368 385.94Q1406.78 304.72, 1488 343.5z" fill="rgba(77, 25, 77, 0.5)"></path><path d="M1464 560L0 560 L0 478.78Q116.67 475.45, 120 592.13Q133.78 533.91, 192 547.69Q215.19 498.88, 264 522.08Q342.62 480.7, 384 559.32Q404.35 459.67, 504 480.02Q580.09 436.11, 624 512.2Q654.93 471.13, 696 502.07Q769.95 456.02, 816 529.97Q849.65 443.62, 936 477.27Q963.81 433.08, 1008 460.89Q1064.41 445.3, 1080 501.71Q1156.55 506.25, 1152 582.8Q1148.98 459.78, 1272 456.76Q1367.62 480.38, 1344 576Q1417.84 529.84, 1464 603.68z" fill="rgba(0, 100, 102, 0.5)"></path></g><defs><mask id="SvgjsMask1070"><rect width="1440" height="560" fill="#ffffff"></rect></mask></defs></svg>