<svg xmlns="http://www.w3.org/2000/svg" version="1.1" xmlns:xlink="http://www.w3.org/1999/xlink" xmlns:svgjs="http://svgjs.com/svgjs" width="1440" height="560" preserveAspectRatio="none" viewBox="0 0 1440 560"><g mask="url(&quot;#SvgjsMask1009&quot;)" fill="none"><rect width="1440" height="560" x="0" y="0" fill="rgba(39, 38, 64, 1)"></rect><path d="M362 407L741 28" stroke-width="8" stroke="url(#SvgjsLinearGradient1010)" stroke-linecap="round" class="TopRight"></path><path d="M1148 462L1298 312" stroke-width="10" stroke="url(#SvgjsLinearGradient1011)" stroke-linecap="round" class="BottomLeft"></path><path d="M37 308L-256 601" stroke-width="6" stroke="url(#SvgjsLinearGradient1011)" stroke-linecap="round" class="BottomLeft"></path><path d="M1309 530L1494 345" stroke-width="6" stroke="url(#SvgjsLinearGradient1011)" stroke-linecap="round" class="BottomLeft"></path><path d="M118 327L381 64" stroke-width="10" stroke="url(#SvgjsLinearGradient1010)" stroke-linecap="round" class="TopRight"></path><path d="M1314 98L1460 -48" stroke-width="10" stroke="url(#SvgjsLinearGradient1011)" stroke-linecap="round" class="BottomLeft"></path><path d="M1195 263L952 506" stroke-width="6" stroke="url(#SvgjsLinearGradient1010)" stroke-linecap="round" class="TopRight"></path><path d="M1082 331L669 744" stroke-width="10" stroke="url(#SvgjsLinearGradient1010)" stroke-linecap="round" class="TopRight"></path><path d="M791 178L617 352" stroke-width="8" stroke="url(#SvgjsLinearGradient1011)" stroke-linecap="round" class="BottomLeft"></path><path d="M481 150L339 292" stroke-width="6" stroke="url(#SvgjsLinearGradient1010)" stroke-linecap="round" class="TopRight"></path><path d="M1025 145L1167 3" stroke-width="6" stroke="url(#SvgjsLinearGradient1010)" stroke-linecap="round" class="TopRight"></path><path d="M715 231L894 52" stroke-width="8" stroke="url(#SvgjsLinearGradient1011)" stroke-linecap="round" class="BottomLeft"></path><path d="M689 28L453 264" stroke-width="6" stroke="url(#SvgjsLinearGradient1010)" stroke-linecap="round" class="TopRight"></path><path d="M614 370L218 766" stroke-width="8" stroke="url(#SvgjsLinearGradient1011)" stroke-linecap="round" class="BottomLeft"></path><path d="M1438 486L1840 84" stroke-width="8" stroke="url(#SvgjsLinearGradient1010)" stroke-linecap="round" class="TopRight"></path><path d="M1346 197L1001 542" stroke-width="8" stroke="url(#SvgjsLinearGradient1011)" stroke-linecap="round" class="BottomLeft"></path><path d="M1404 30L1002 432" stroke-width="8" stroke="url(#SvgjsLinearGradient1011)" stroke-linecap="round" class="BottomLeft"></path><path d="M1103 548L856 795" stroke-width="10" stroke="url(#SvgjsLinearGradient1011)" stroke-linecap="round" class="BottomLeft"></path><path d="M614 523L972 165" stroke-width="10" stroke="url(#SvgjsLinearGradient1011)" stroke-linecap="round" class="BottomLeft"></path><path d="M158 194L-125 477" stroke-width="10" stroke="url(#SvgjsLinearGradient1011)" stroke-linecap="round" class="BottomLeft"></path><path d="M864 349L445 768" stroke-width="10" stroke="url(#SvgjsLinearGradient1011)" stroke-linecap="round" class="BottomLeft"></path><path d="M1251 403L912 742" stroke-width="6" stroke="url(#SvgjsLinearGradient1010)" stroke-linecap="round" class="TopRight"></path><path d="M727 152L493 386" stroke-width="6" stroke="url(#SvgjsLinearGradient1010)" stroke-linecap="round" class="TopRight"></path><path d="M163 531L18 676" stroke-width="6" stroke="url(#SvgjsLinearGradient1010)" stroke-linecap="round" class="TopRight"></path><path d="M1176 520L926 770" stroke-width="8" stroke="url(#SvgjsLinearGradient1011)" stroke-linecap="round" class="BottomLeft"></path><path d="M1163 53L890 326" stroke-width="6" stroke="url(#SvgjsLinearGradient1011)" stroke-linecap="round" class="BottomLeft"></path><path d="M275 193L0 468" stroke-width="10" stroke="url(#SvgjsLinearGradient1010)" stroke-linecap="round" class="TopRight"></path><path d="M11 9L184 -164" stroke-width="6" stroke="url(#SvgjsLinearGradient1010)" stroke-linecap="round" class="TopRight"></path><path d="M354 87L28 413" stroke-width="10" stroke="url(#SvgjsLinearGradient1010)" stroke-linecap="round" class="TopRight"></path><path d="M1398 315L1578 135" stroke-width="6" stroke="url(#SvgjsLinearGradient1011)" stroke-linecap="round" class="BottomLeft"></path><path d="M838 145L586 397" stroke-width="8" stroke="url(#SvgjsLinearGradient1010)" stroke-linecap="round" class="TopRight"></path><path d="M550 205L805 -50" stroke-width="8" stroke="url(#SvgjsLinearGradient1010)" stroke-linecap="round" class="TopRight"></path><path d="M636 331L777 190" stroke-width="10" stroke="url(#SvgjsLinearGradient1010)" stroke-linecap="round" class="TopRight"></path><path d="M62 169L452 -221" stroke-width="8" stroke="url(#SvgjsLinearGradient1010)" stroke-linecap="round" class="TopRight"></path><path d="M1063 224L1323 -36" stroke-width="6" stroke="url(#SvgjsLinearGradient1010)" stroke-linecap="round" class="TopRight"></path><path d="M484 236L867 -147" stroke-width="8" stroke="url(#SvgjsLinearGradient1011)" stroke-linecap="round" class="BottomLeft"></path><path d="M1068 139L907 300" stroke-width="10" stroke="url(#SvgjsLinearGradient1010)" stroke-linecap="round" class="TopRight"></path><path d="M316 295L48 563" stroke-width="6" stroke="url(#SvgjsLinearGradient1010)" stroke-linecap="round" class="TopRight"></path><path d="M517 1L666 -148" stroke-width="10" stroke="url(#SvgjsLinearGradient1010)" stroke-linecap="round" class="TopRight"></path></g><defs><mask id="SvgjsMask1009"><rect width="1440" height="560" fill="#ffffff"></rect></mask><linearGradient x1="0%" y1="100%" x2="100%" y2="0%" id="SvgjsLinearGradient1010"><stop stop-color="rgba(0, 100, 102, 0)" offset="0"></stop><stop stop-color="rgba(0, 100, 102, 0.75)" offset="1"></stop></linearGradient><linearGradient x1="100%" y1="0%" x2="0%" y2="100%" id="SvgjsLinearGradient1011"><stop stop-color="rgba(0, 100, 102, 0)" offset="0"></stop><stop stop-color="rgba(0, 100, 102, 0.75)" offset="1"></stop></linearGradient></defs></svg>