<svg xmlns="http://www.w3.org/2000/svg" version="1.1" xmlns:xlink="http://www.w3.org/1999/xlink" xmlns:svgjs="http://svgjs.com/svgjs" width="1440" height="560" preserveAspectRatio="none" viewBox="0 0 1440 560"><g mask="url(&quot;#SvgjsMask1071&quot;)" fill="none"><rect width="1440" height="560" x="0" y="0" fill="url(#SvgjsLinearGradient1072)"></rect><path d="M1440 0L1395.66 0L1440 15.06z" fill="rgba(255, 255, 255, .1)"></path><path d="M1395.66 0L1440 15.06L1440 179.77L989.9100000000001 0z" fill="rgba(255, 255, 255, .075)"></path><path d="M989.91 0L1440 179.77L1440 266.26L948.18 0z" fill="rgba(255, 255, 255, .05)"></path><path d="M948.18 0L1440 266.26L1440 285.44L880.42 0z" fill="rgba(255, 255, 255, .025)"></path><path d="M0 560L2.57 560L0 506.47z" fill="rgba(0, 0, 0, .1)"></path><path d="M0 506.47L2.57 560L455.39 560L0 464.86z" fill="rgba(0, 0, 0, .075)"></path><path d="M0 464.86L455.39 560L665.13 560L0 282.57000000000005z" fill="rgba(0, 0, 0, .05)"></path><path d="M0 282.57L665.13 560L821.91 560L0 145.29z" fill="rgba(0, 0, 0, .025)"></path></g><defs><mask id="SvgjsMask1071"><rect width="1440" height="560" fill="#ffffff"></rect></mask><linearGradient x1="15.28%" y1="139.29%" x2="84.72%" y2="-39.29%" gradientUnits="userSpaceOnUse" id="SvgjsLinearGradient1072"><stop stop-color="rgba(39, 38, 64, 1)" offset="0"></stop><stop stop-color="rgba(0, 100, 102, 1)" offset="1"></stop></linearGradient></defs></svg>