<svg id="visual" viewBox="0 0 960 540" width="960" height="540" xmlns="http://www.w3.org/2000/svg" xmlns:xlink="http://www.w3.org/1999/xlink" version="1.1"><rect x="0" y="0" width="960" height="540" fill="#212F45"></rect><path d="M0 55L22.8 71.5C45.7 88 91.3 121 137 114.8C182.7 108.7 228.3 63.3 274 115C319.7 166.7 365.3 315.3 411.2 360.5C457 405.7 503 347.3 548.8 323.8C594.7 300.3 640.3 311.7 686 273.2C731.7 234.7 777.3 146.3 823 147.7C868.7 149 914.3 240 937.2 285.5L960 331L960 541L937.2 541C914.3 541 868.7 541 823 541C777.3 541 731.7 541 686 541C640.3 541 594.7 541 548.8 541C503 541 457 541 411.2 541C365.3 541 319.7 541 274 541C228.3 541 182.7 541 137 541C91.3 541 45.7 541 22.8 541L0 541Z" fill="#006466" stroke-linecap="round" stroke-linejoin="miter"></path></svg>