<svg xmlns="http://www.w3.org/2000/svg" version="1.1" xmlns:xlink="http://www.w3.org/1999/xlink" xmlns:svgjs="http://svgjs.com/svgjs" width="1440" height="560" preserveAspectRatio="none" viewBox="0 0 1440 560"><g mask="url(&quot;#SvgjsMask1219&quot;)" fill="none"><rect width="1440" height="560" x="0" y="0" fill="rgba(39, 38, 64, 1)"></rect><path d="M1488 560L0 560 L0 341.85Q40.46 310.31, 72 350.78Q159.46 318.24, 192 405.7Q208.09 349.79, 264 365.88Q334.75 316.63, 384 387.38Q418.54 301.92, 504 336.46Q570.28 282.74, 624 349.02Q668.43 321.45, 696 365.89Q775.42 325.31, 816 404.74Q827.23 343.97, 888 355.19Q917.54 312.73, 960 342.26Q1025.13 335.38, 1032 400.51Q1051.42 347.94, 1104 367.36Q1149.43 340.8, 1176 386.23Q1220.41 310.64, 1296 355.05Q1352.85 339.89, 1368 396.74Q1398.84 307.58, 1488 338.42z" fill="rgba(49, 25, 57, 0.5)"></path><path d="M1512 560L0 560 L0 394.95Q68.71 343.66, 120 412.37Q175.61 395.98, 192 451.58Q246.09 385.67, 312 439.76Q350.5 358.26, 432 396.77Q508.33 353.1, 552 429.43Q630.46 387.89, 672 466.36Q672.88 395.24, 744 396.12Q814.94 395.06, 816 466Q836.5 414.5, 888 435.01Q916.56 391.57, 960 420.13Q983.91 372.04, 1032 395.95Q1089.23 381.18, 1104 438.41Q1146.78 409.19, 1176 451.96Q1185.05 389, 1248 398.05Q1317.83 347.88, 1368 417.7Q1413.8 391.5, 1440 437.3Q1482.79 408.09, 1512 450.87z" fill="rgba(20, 69, 82, 0.5)"></path><path d="M1512 560L0 560 L0 503.32Q37.02 420.34, 120 457.35Q197.83 415.19, 240 493.02Q285.13 466.15, 312 511.29Q327.16 454.45, 384 469.61Q435.06 400.68, 504 451.74Q580.62 408.36, 624 484.98Q692.45 433.43, 744 501.88Q759.72 445.6, 816 461.32Q890.57 415.88, 936 490.45Q988.19 470.64, 1008 522.83Q1034.74 477.58, 1080 504.32Q1127.2 431.52, 1200 478.72Q1252.73 411.46, 1320 464.19Q1393.82 418.01, 1440 491.83Q1484.63 464.45, 1512 509.08z" fill="rgba(77, 25, 77, 0.5)"></path><path d="M1512 560L0 560 L0 532.98Q36.76 497.74, 72 534.5Q147.44 489.94, 192 565.39Q198.68 500.07, 264 506.74Q329.91 452.65, 384 518.56Q449.59 464.15, 504 529.74Q587.98 493.72, 624 577.7Q641.02 522.73, 696 539.75Q748.29 472.04, 816 524.32Q902.03 490.36, 936 576.39Q978.24 498.63, 1056 540.86Q1104.23 469.09, 1176 517.31Q1239.86 509.16, 1248 573.02Q1265.49 518.5, 1320 535.99Q1367.62 463.61, 1440 511.22Q1498.59 497.81, 1512 556.4z" fill="rgba(0, 100, 102, 0.5)"></path></g><defs><mask id="SvgjsMask1219"><rect width="1440" height="560" fill="#ffffff"></rect></mask></defs></svg>