<svg xmlns="http://www.w3.org/2000/svg" version="1.1" xmlns:xlink="http://www.w3.org/1999/xlink" xmlns:svgjs="http://svgjs.com/svgjs" width="1440" height="560" preserveAspectRatio="none" viewBox="0 0 1440 560"><g mask="url(&quot;#SvgjsMask1176&quot;)" fill="none"><rect width="1440" height="560" x="0" y="0" fill="url(#SvgjsLinearGradient1177)"></rect><path d="M1488 560L0 560 L0 446.35Q52.94 379.3, 120 432.24Q172.68 412.92, 192 465.6Q241.16 394.76, 312 443.93Q363.57 375.5, 432 427.08Q512.69 387.77, 552 468.47Q598.35 394.82, 672 441.17Q698 395.17, 744 421.16Q822.42 379.59, 864 458.01Q910.73 384.74, 984 431.47Q1050.78 378.25, 1104 445.03Q1151.71 420.75, 1176 468.46Q1230.12 402.58, 1296 456.7Q1314.02 402.72, 1368 420.74Q1435.17 367.91, 1488 435.09z" fill="rgba(49, 25, 57, 0.5)"></path><path d="M1512 560L0 560 L0 457.24Q66.87 404.11, 120 470.98Q186.74 417.72, 240 484.45Q306.06 430.51, 360 496.57Q381.47 446.04, 432 467.51Q499.78 415.29, 552 483.08Q593.23 452.31, 624 493.54Q643.98 441.51, 696 461.49Q762.95 408.44, 816 475.39Q884.88 424.26, 936 493.14Q957.93 443.07, 1008 465Q1075.65 412.65, 1128 480.31Q1196.39 428.7, 1248 497.09Q1268.61 445.69, 1320 466.3Q1366.38 440.68, 1392 487.05Q1436.35 411.39, 1512 455.74z" fill="rgba(20, 69, 82, 0.5)"></path><path d="M1512 560L0 560 L0 517.93Q48.24 446.16, 120 494.4Q197.24 451.63, 240 528.87Q269.19 486.06, 312 515.24Q361.82 445.06, 432 494.88Q510.36 453.24, 552 531.59Q598.65 458.24, 672 504.89Q724.69 437.58, 792 490.27Q871.67 449.94, 912 529.62Q936.63 482.25, 984 506.89Q1013.35 464.24, 1056 493.58Q1104.99 470.57, 1128 519.56Q1196.16 467.72, 1248 535.88Q1266.84 482.72, 1320 501.55Q1361.37 470.91, 1392 512.28Q1457.94 458.22, 1512 524.17z" fill="rgba(77, 25, 77, 0.5)"></path><path d="M1488 560L0 560 L0 530.61Q73.42 484.03, 120 557.45Q164.25 529.7, 192 573.95Q237.21 499.16, 312 544.37Q341.26 501.63, 384 530.9Q438.97 513.87, 456 568.83Q482.51 523.34, 528 549.85Q582.14 484, 648 538.14Q721.54 491.68, 768 565.23Q822.84 500.07, 888 554.91Q940.15 487.06, 1008 539.2Q1062.21 473.41, 1128 527.63Q1210.81 490.44, 1248 573.26Q1291.99 497.25, 1368 541.24Q1433.93 487.17, 1488 553.1z" fill="rgba(0, 100, 102, 0.5)"></path></g><defs><mask id="SvgjsMask1176"><rect width="1440" height="560" fill="#ffffff"></rect></mask><linearGradient x1="15.28%" y1="139.29%" x2="84.72%" y2="-39.29%" gradientUnits="userSpaceOnUse" id="SvgjsLinearGradient1177"><stop stop-color="rgba(39, 38, 64, 1)" offset="0.6"></stop><stop stop-color="rgba(0, 100, 102, 1)" offset="1"></stop></linearGradient></defs></svg>