<svg xmlns="http://www.w3.org/2000/svg" version="1.1" xmlns:xlink="http://www.w3.org/1999/xlink" xmlns:svgjs="http://svgjs.com/svgjs" width="1440" height="560" preserveAspectRatio="none" viewBox="0 0 1440 560"><g mask="url(&quot;#SvgjsMask1002&quot;)" fill="none"><rect width="1440" height="560" x="0" y="0" fill="rgba(39, 38, 64, 1)"></rect><circle r="5.255" cx="322.185" cy="124.065" filter="url(#SvgjsFilter1003)" fill="rgba(0, 100, 102, 0.5)"></circle><circle r="8.61" cx="541.66" cy="256.15" filter="url(#SvgjsFilter1003)" fill="rgba(0, 100, 102, 0.5)"></circle><circle r="6" cx="275.54" cy="129.53" filter="url(#SvgjsFilter1003)" fill="rgba(0, 100, 102, 0.5)"></circle><circle r="6.645" cx="1364.525" cy="100.565" filter="url(#SvgjsFilter1003)" fill="rgba(0, 100, 102, 0.5)"></circle><circle r="5.56" cx="783.8599999999999" cy="10.42" filter="url(#SvgjsFilter1003)" fill="rgba(0, 100, 102, 0.5)"></circle><circle r="6.765" cx="110.035" cy="512.575" filter="url(#SvgjsFilter1003)" fill="rgba(0, 100, 102, 0.5)"></circle><circle r="4.84" cx="891.37" cy="18.490000000000002" filter="url(#SvgjsFilter1003)" fill="rgba(0, 100, 102, 0.5)"></circle><circle r="7.095" cx="270.32500000000005" cy="27.095" filter="url(#SvgjsFilter1003)" fill="rgba(0, 100, 102, 0.5)"></circle><circle r="7.185" cx="760.875" cy="354.15500000000003" filter="url(#SvgjsFilter1003)" fill="rgba(0, 100, 102, 0.5)"></circle><circle r="4.715" cx="46.385000000000005" cy="500.815" filter="url(#SvgjsFilter1003)" fill="rgba(0, 100, 102, 0.5)"></circle><circle r="4.845" cx="780.705" cy="195.155" filter="url(#SvgjsFilter1003)" fill="rgba(0, 100, 102, 0.5)"></circle><circle r="7.435" cx="508.015" cy="236.355" filter="url(#SvgjsFilter1003)" fill="rgba(0, 100, 102, 0.5)"></circle><circle r="7.39" cx="1389.5300000000002" cy="256.15" filter="url(#SvgjsFilter1003)" fill="rgba(0, 100, 102, 0.5)"></circle><circle r="4.715" cx="434.125" cy="398.335" filter="url(#SvgjsFilter1003)" fill="rgba(0, 100, 102, 0.5)"></circle><circle r="7.99" cx="1377.1200000000001" cy="102.36" filter="url(#SvgjsFilter1003)" fill="rgba(0, 100, 102, 0.5)"></circle><circle r="5.7" cx="1129.4" cy="148.98999999999998" filter="url(#SvgjsFilter1003)" fill="rgba(0, 100, 102, 0.5)"></circle><circle r="7.54" cx="134.93" cy="198.29" filter="url(#SvgjsFilter1003)" fill="rgba(0, 100, 102, 0.5)"></circle><circle r="5.98" cx="614.48" cy="189.11999999999998" filter="url(#SvgjsFilter1003)" fill="rgba(0, 100, 102, 0.5)"></circle><circle r="4.88" cx="430.19" cy="204.67" filter="url(#SvgjsFilter1003)" fill="rgba(0, 100, 102, 0.5)"></circle><circle r="6.005" cx="595.475" cy="8.285" filter="url(#SvgjsFilter1003)" fill="rgba(0, 100, 102, 0.5)"></circle><path d="M301.3 263.8L258.5 291.7 240.3 287.5 254.8 278.1C256.6 277.5 256.6 275.5 256 273.7 255 272.7 252.8 272 251.8 273L231.7 285.6 213.7 282 226.1 268.6 250 267.6C250 267.6 250.6 267.4 250.6 267.4 251.9 267 252.7 265.4 252.9 263.9 252.3 262.1 251.3 261.1 249.3 261.1L232.1 261.9 244.5 248.5 295.4 245.5C295.4 245.5 296.2 245.9 296.2 245.9 297.4 245.5 298.2 243.9 298.4 242.5 298.4 240.5 296.6 239 294.8 239.6L250.5 241.9 265.2 225 285 224C285 224 285 224 285.6 223.8 286.8 223.4 287.9 222.4 288.1 220.9 287.5 219.1 286.3 217.5 284.3 217.5L271.1 218.4 281.9 206.1C283.6 204.9 283 203.1 282 202.1 280.8 200.4 278.7 200.4 277.3 202.2L266.3 213.9 266.2 201.1C265.6 199.3 264.4 197.7 262.6 198.3 260.5 198.2 259.5 199.2 259.5 201.3L260.5 221.1 245.6 237.4 243.2 192.4C243.4 191 241.6 189.6 239.6 189.6 238.4 190 236.7 191.2 236.7 193.2L239.7 244 227.2 257.5 226.4 240.2C226.4 238.2 224.8 237.4 222.8 237.4 221.3 237.2 219.9 239 219.7 240.4L221.3 264.1 209.1 278.1 203.3 260.5 214 239.5C214.9 237.9 214.3 236.1 212.7 235.3 211.7 234.2 209.2 235 208.4 236.6L200.6 252 194.9 234.3 218.5 189C219.3 187.4 218.8 185.5 217.1 184.7 215.5 183.9 213.7 184.5 212.9 186.1L192.1 225.8 185.4 205.1 194.5 187.3C195.3 185.7 194.7 183.9 193.1 183.1 191.5 182.3 189.6 182.9 188.8 184.5L182.4 195.9 177.5 180.7C176.9 178.9 175.3 178.1 173.5 178.7 171.7 179.3 170.8 180.9 171.4 182.7L176.3 197.9 165.1 192.2C163.5 191.3 161.6 191.9 160.8 193.5S160.6 197 162.2 197.8L179.1 206.4 186 227.8 146.5 207.6C144.9 206.8 143.1 207.3 142.3 209 141.4 210.6 142 212.4 143.6 213.2L188.8 236.3 194.5 253.9 179.2 246.1C177.6 245.3 175.7 245.9 174.9 247.5 174.1 249.1 174.7 250.9 176.3 251.8L197.2 262.5 202.8 279.5 185.4 275.7 172.2 255.8C171.2 254.7 169 254.1 168 255.1 166.3 256.3 166.1 257.7 166.7 259.6L176.1 274 158.7 270.2 130.8 227.5C129.6 225.8 128.1 225.6 126.3 226.2 124.7 227.4 124.7 229.4 125.1 230.7L149.4 268.5 127.6 263.5 117 247.4C116.4 245.6 114.4 245.6 112.6 246.1 111.6 247.1 110.9 249.4 112.1 251L118.9 261.6 103.2 258.6C101.6 257.8 99.9 259 99.3 261.2 99.1 262.6 100.3 264.3 101.7 264.5L117.7 268 106.5 275C104.8 276.2 104.8 278.3 105.8 279.3 106.4 281.1 107.8 281.3 109 280.9 109.7 280.7 109.7 280.7 110.3 280.5L126.3 269.9 148.2 275 110.9 299.2C109.1 299.7 109.1 301.8 109.7 303.6 110.7 304.6 112.1 304.8 113.3 304.4 113.9 304.2 113.9 304.2 113.9 304.2L157.5 276.7 174.8 280.5 160.4 289.9C158.7 291.1 158.5 292.5 159.1 294.3 160.1 295.3 161.7 296.2 163 295.8 163.6 295.6 163.6 295.6 164.2 295.4L184.1 282.2 201.5 286 189.6 299.2 165.9 300.8C163.9 300.8 162.5 302.6 162.3 304.1 162.9 305.9 164.1 307.5 165.9 306.9L183.1 306.1 171.4 319.9 119.8 322.5C118.4 322.3 117 324.1 116.8 325.5 117.3 327.3 118.5 329 120.6 329L164.9 326.7 150 343 130.8 343.9C128.7 343.8 127.3 345.6 127.9 347.5 127.7 348.9 128.9 350.5 130.9 350.5L144.1 349.6 133.2 361.9C132.2 362.9 132.2 364.9 133.4 366.5 134.2 367 135.6 367.2 136.8 366.8 136.8 366.8 137.4 366.6 138.1 366.4L148.9 354.1 149.8 367.3C149.6 368.7 151.4 370.1 152.8 370.4 153.4 370.2 153.4 370.2 153.4 370.2 155.2 369.6 156.1 368 155.7 366.7L154.8 347.5 169.5 330.6 172 375.6C172.6 377.4 173.6 378.4 175.6 378.4 175.6 378.4 176.2 378.2 176.2 378.2 177.4 377.9 178.4 376.8 178.5 374.8L176.1 323.8 187.9 310.5 188.8 327.8C189.4 329.6 190.6 331.2 192.4 330.6 192.6 331.2 193.2 331 193.2 331 194.4 330.6 195.3 329 195.5 327.6L193.9 303.9 206.3 290.5 211.8 307.5 201.1 328.5C200.3 330.1 201.1 332.5 202.7 333.3 204.1 333.6 205.9 333 207 332L214.6 316 220.3 333.7 197.3 378.8C196.4 380.4 197 382.3 198.6 383.1 200.2 383.9 202.1 383.3 202.9 381.7L223.1 342.2 230 363.5 221.3 380.5C220.5 382.1 221.1 383.9 222.7 384.7S226.1 385 227 383.3L232.7 372.1 237.7 387.3C238.2 389.1 239.9 389.9 241.7 389.3 243.5 388.7 244.3 387.1 243.7 385.3L238.8 370.1 250.7 375.7C251.5 376.1 252.3 376.5 252.9 376.3 253.5 376.1 254.6 375.1 255 374.3 255.8 372.7 255.2 370.8 253.6 370L236.1 361.6 229.2 340.2 269.3 360.2C270.1 360.6 270.9 361.1 271.5 360.9 272.1 360.7 273.1 359.7 273.5 358.8 274.3 357.2 273.8 355.4 272.1 354.6L226.4 331.7 220.7 314.1 236.2 322.5C237 322.9 238.2 322.5 238.8 322.3 239.4 322.1 240 321.9 240.5 321.1 241.3 319.5 240.5 317.1 239.1 316.9L217.9 305.5 212.4 288.5 230.4 292.1 243 312.2C244 313.3 245.6 314.1 246.8 313.7 247.4 313.5 247.4 313.5 247.2 312.9 249 312.3 249.7 310.1 248.5 308.4L239.1 294 257.1 297.6 284.6 341.1C285.6 342.2 287 342.4 288.2 342 288.9 341.8 288.9 341.8 288.9 341.8 290.5 340.6 291.3 339 290.1 337.3L265.7 299.5 287.6 304.5 298.1 320.6C299.3 322.2 300.8 322.5 302 322.1 302 322.1 302.6 321.9 302.6 321.9 304.2 320.7 304.2 318.6 303.8 317.4L296.2 306.4 312.2 310C312.8 309.8 313.4 309.6 314 309.4 314.6 309.2 315.7 308.2 316.1 307.4 316.1 305.4 315.5 303.6 313.5 303.5L297.5 300 308.7 293C310.3 291.8 310.3 289.7 310 288.5 308.8 286.9 306.7 286.9 304.9 287.5L288.8 298.1 267.2 293.6 304.5 269.5C306.1 268.3 306.7 266 305.7 265 304.5 263.4 302.9 262.6 301.3 263.8Z" fill="rgba(0, 100, 102, 0.5)"></path><path d="M889.4 499.4L871.8 449.3 892.6 406.8 919 446 908.5 498.1C908.5 498.1 908.6 498.7 908.6 498.7 908.7 500 910 501.2 911.4 501.8 913.3 502.3 915.1 500.8 915 498.9L924 453.4 936.9 472.4 933.2 492.5C933.2 492.5 933.2 493.2 933.2 493.2 933.3 494.4 934.7 495.6 936 496.2 938 496.7 939.8 495.3 939.6 493.4L942.5 479.7 951.9 493.8C952.6 495 955.2 495.5 956.4 494.8 958.3 494 958.1 491.4 957.4 490.2L948.1 476.1 961.7 479C963.7 479.5 965.5 478.1 965.4 476.2 965.9 474.2 964.5 472.4 962.6 472.5L942.4 468.8 930.2 449.8 975.7 458.8C977.7 459.3 979.5 457.9 979.4 456 979.9 454 978.5 452.2 976.6 452.3L924.5 441.8 898 402.6 945.9 399.3 986.2 434.3C987.6 435.5 989.5 435.4 990.7 434 991.9 432.6 991.7 430.7 990.4 429.5L954.9 398.6 977.9 397 992.9 410.1C994.2 411.3 996.2 411.2 997.3 409.8 998.5 408.4 998.4 406.5 997 405.3L986.8 396.4 1004.7 395.2C1006.6 395.7 1007.8 393.7 1007.6 391.8 1007.5 389.8 1006.1 388.7 1004.2 388.8L987.6 389.9 996.5 379.7C997.7 378.3 997.6 376.4 996.2 375.2S992.9 374.2 991.8 375.5L978.7 390.6 955.7 392.2 986.6 356.7C987.8 355.3 987.6 353.4 986.3 352.2 984.9 351 983 351.1 981.8 352.5L946.8 392.8 899.5 396.1 920.3 353.6 969.2 336.7C971 335.9 971.5 334 971.4 332.1 970.6 330.2 968.7 329.7 966.8 329.8L922.9 345.1 933 324.5 952.5 318C954.3 317.2 954.8 315.2 954.7 313.3 953.9 311.5 952 311 950.7 311L937.6 315.8 944.8 300.5C945.4 299.2 945.2 296.7 943.3 296.2 941.3 295.7 939.4 295.8 938.9 297.7L931.6 313 926.8 299.9C926.1 298 924.1 297.5 922.8 297.6 921.6 298.3 920.4 299.7 920.5 301 920.5 301 920.5 301.6 920.5 301.6L927 321 916.9 341.6 901.7 297.8C900.9 295.9 898.9 295.4 897.7 295.5 896.4 296.2 895.2 297.6 895.3 298.9 895.3 298.9 895.4 299.5 895.4 299.5L913 349.6 892.2 392.1 865.7 352.9 876.2 300.8C876.7 298.9 875.3 297 873.4 297.2 871.4 296.7 869.6 298.1 869.7 300L860.7 345.5 847.8 326.5 851.6 306.4C852.1 304.4 850.7 302.6 848.8 302.7 846.8 302.2 845 303.6 845.1 305.6L842.2 319.2 832.9 305.1C832.2 303.9 829.6 303.4 828.3 304.2 827.1 304.9 826.5 306.2 826.6 307.5 826.7 308.1 826.7 308.8 827.4 309.4L836.7 323.5 823.1 320.6C821.1 320.1 819.3 321.5 819.4 323.4 819.4 323.4 819.4 324 819.4 324 819.5 325.3 820.9 326.5 822.2 327L842.4 330.8 855.2 349.8 809.7 340.7C807.7 340.2 805.9 341.6 806 343.6 806 343.6 806.1 344.2 806.1 344.2 806.2 345.5 807.5 346.7 808.9 347.2L860.9 357.7 887.4 396.9 840.1 400.2 799.9 365.2C798.5 364 796.6 364.1 795.4 365.5 794.2 366.8 794.3 368.8 795.7 369.9L830.6 400.9 807.6 402.5 792.6 389.4C791.2 388.2 789.3 388.4 788.1 389.7S787 393 788.4 394.2L798.6 403.1 782 404.3C780.1 404.4 778.9 405.7 779.1 407.7 779.2 409.6 780.6 410.8 782.5 410.6L799.1 409.5 790.2 419.7C789.6 420.4 789 421.1 789.1 422.4S789.9 424.2 790.5 424.8C791.9 426 793.8 425.9 795 424.5L808.1 409.5 831.1 407.9 800.2 443.4C799.6 444.1 799 444.8 799.1 446.1 799.1 446.7 799.8 447.9 800.5 448.5 801.9 449.7 803.8 449.6 805 448.2L840 407.9 887.3 404.6 866.5 447.1 816.4 464.7C815.2 465.5 814 466.8 814.1 468.1 814.1 468.1 814.1 468.7 814.1 468.7 814.9 470.6 816.8 471.1 818.1 471L862 455.8 851.9 476.4 832.4 482.9C831.2 483.6 830 485 830.1 486.2 830.1 486.2 830.1 486.9 830.1 486.9 830.9 488.7 832.9 489.2 834.1 489.2L847.3 484.4 840 499.7C840.1 500.3 839.5 501 839.5 501.6 839.6 502.9 840.3 504.1 841.6 504.7 843.6 505.2 845.5 505 846 503.1L853.3 487.8 858.1 501C858.8 502.8 860.8 503.3 862.1 503.3 863.9 502.5 864.4 500.5 864.4 499.2L857.9 479.8 868 459.2 883.2 503.1C884 504.9 886 505.4 887.2 505.4 889 503.3 890.2 501.3 889.4 499.4Z" fill="rgba(0, 100, 102, 0.5)"></path><path d="M1163.8 497.2L1135.9 470.9 1135.8 456.9 1145.2 465.8C1145.9 467.1 1147.4 466.7 1148.6 466 1149.2 465.1 1149.3 463.3 1148.4 462.8L1135.7 450.2 1135.2 436.5 1147.2 443.3 1152.1 460.5C1152.1 460.5 1152.3 460.9 1152.3 460.9 1152.8 461.7 1154.1 462.1 1155.2 462 1156.4 461.2 1157 460.3 1156.7 458.8L1153 446.4 1165 453.2 1176.1 489.7C1176.1 489.7 1175.9 490.4 1175.9 490.4 1176.4 491.2 1177.7 491.5 1178.8 491.4 1180.3 491.1 1181 489.5 1180.2 488.3L1170.9 456.3 1185.8 464.1 1190 478.4C1190 478.4 1190 478.4 1190.2 478.8 1190.7 479.7 1191.6 480.2 1192.7 480.1 1193.9 479.4 1194.9 478.2 1194.6 476.8L1191.6 467.3 1202.5 473.1C1203.6 474.1 1204.8 473.3 1205.4 472.4 1206.4 471.2 1206 469.8 1204.5 469L1194.1 463 1203.4 460.7C1204.6 460 1205.6 458.8 1204.8 457.6 1204.5 456.1 1203.6 455.5 1202.1 455.9L1187.8 460.1 1173.3 452 1205.7 442.4C1206.8 442.3 1207.5 440.8 1207.2 439.3 1206.7 438.5 1205.5 437.5 1204 437.8L1167.5 448.9 1155.5 442.1 1167.9 438.5C1169.4 438.2 1169.7 436.8 1169.3 435.4 1169.3 434.3 1167.7 433.6 1166.6 433.7L1149.6 439 1137.2 432.5 1149.1 425.2 1166.3 429.4C1167.6 429.7 1168.8 428.9 1169.1 427.6 1169.7 426.7 1168.7 425.1 1167.4 424.8L1154.8 421.7 1166.7 414.5 1203.9 423.8C1205.2 424.2 1206.5 423.4 1206.8 422.1 1207.1 420.8 1206.4 419.5 1205 419.2L1172.5 411 1186.4 402.5 1200.9 406C1202.2 406.3 1203.5 405.6 1203.8 404.3 1204.1 402.9 1203.4 401.7 1202 401.4L1192.6 398.7 1202.8 392.5C1204 391.7 1204.3 390.4 1203.6 389.2 1202.8 388 1201.5 387.6 1200.3 388.4L1190.1 394.6 1192.3 385.4C1192.6 384.1 1191.9 382.8 1190.5 382.5S1188 383 1187.7 384.3L1184.3 398.1 1170 406.9 1177.8 374.5C1178.1 373.2 1177.4 372 1176.1 371.7 1174.7 371.4 1173.5 372.1 1173.2 373.4L1164.2 410.4 1152.3 417.6 1155.4 405.1C1155.7 403.8 1155 402.5 1153.6 402.2 1152.3 401.9 1151.1 402.6 1150.8 404L1146.6 421.1 1135.1 428.1 1134.9 414.8 1147.1 401.7C1147.7 400.8 1147.8 399 1146.9 398.5 1145.7 397.5 1144.6 397.6 1143.4 398.3L1134.5 407.7 1134.2 394.4 1160.6 366.5C1161.5 365.4 1161.4 364.3 1160.7 363.1 1159.5 362.1 1158.1 362.4 1157.2 362.9L1133.9 387.3 1133.7 370.5 1143.6 360C1144.9 359.2 1144.5 357.7 1143.8 356.5 1142.9 355.9 1141.1 355.9 1140.2 357L1133.6 363.8 1133 351.8C1133.4 350.5 1132.2 349.5 1130.5 349.4 1129.4 349.5 1128.4 350.7 1128.5 351.8L1128.7 364 1121.6 357.1C1120.5 356.1 1119 356.4 1118.4 357.3 1117.2 358.1 1117.3 359.2 1117.8 360 1118 360.4 1118 360.4 1118.3 360.8L1128.8 370.7 1128.9 387.5 1104.8 364.5C1104.1 363.3 1102.6 363.6 1101.3 364.4 1100.8 365.3 1100.9 366.4 1101.4 367.2 1101.6 367.6 1101.6 367.6 1101.6 367.6L1129.3 394.6 1129.6 407.9 1120.2 399C1119 398 1118 398.1 1116.7 398.8 1116.2 399.8 1115.8 401.1 1116.3 401.9 1116.6 402.3 1116.6 402.3 1116.8 402.7L1129.9 415 1130.2 428.3 1118.5 422 1113.2 405C1112.8 403.5 1111.2 402.8 1110.2 402.8 1108.9 403.6 1108 404.8 1108.7 406L1112.3 418.4 1100.2 412.3 1089.3 375.1C1089.2 374 1087.7 373.3 1086.6 373.4 1085.4 374.1 1084.4 375.3 1084.7 376.8L1094.1 408.7 1079.6 400.7 1075.7 386.8C1075.3 385.3 1073.7 384.6 1072.5 385.3 1071.4 385.4 1070.5 386.6 1070.8 388L1073.8 397.5 1062.9 391.7C1062 391.2 1060.5 391.5 1059.6 392.7 1059.4 393.3 1059.5 394.4 1060 395.2 1060 395.2 1060.2 395.6 1060.5 396L1071.3 401.8 1061.9 404.7C1060.8 404.8 1060.1 406.4 1060.2 407.5 1060.4 407.9 1060.4 407.9 1060.4 407.9 1061.2 409.1 1062.5 409.4 1063.3 408.9L1077.2 405 1092.1 412.8 1059.7 422.4C1058.5 423.1 1057.9 424 1058.2 425.5 1058.2 425.5 1058.5 425.9 1058.5 425.9 1059 426.7 1059.9 427.3 1061.4 427L1098.2 416.3 1109.9 422.7 1097.5 426.3C1096.3 427.1 1095.3 428.2 1096 429.4 1095.6 429.7 1095.9 430.1 1095.9 430.1 1096.4 430.9 1097.7 431.2 1098.8 431.2L1115.8 425.9 1127.8 432.6 1116.3 439.6 1099.1 435.4C1097.8 435.1 1096.2 436.1 1095.8 437.4 1095.9 438.5 1096.7 439.7 1097.6 440.3L1110.5 443.1 1098.7 450.3 1061.7 441.4C1060.4 441.1 1059.2 441.8 1058.8 443.1 1058.5 444.4 1059.3 445.7 1060.6 446L1092.9 453.8 1078.6 462.6 1064.7 459.2C1063.4 458.9 1062.2 459.6 1061.8 461S1062.3 463.5 1063.6 463.8L1072.8 466.1 1062.6 472.3C1061.4 473.1 1061 474.4 1061.8 475.6 1062.5 476.8 1063.8 477.2 1065.1 476.4L1075.3 470.2 1073.3 479.8C1073.2 480.5 1073 481.1 1073.3 481.5 1073.5 482 1074.4 482.5 1075.1 482.7 1076.4 483 1077.6 482.3 1078 480.9L1081.1 466.7 1095.4 457.9 1087.8 490.7C1087.7 491.3 1087.5 492 1087.7 492.4 1088 492.8 1088.9 493.4 1089.6 493.5 1090.9 493.9 1092.1 493.1 1092.4 491.8L1101.1 454.4 1113 447.2 1109.6 460C1109.4 460.6 1109.9 461.5 1110.2 461.9 1110.4 462.3 1110.7 462.7 1111.3 462.8 1112.7 463.2 1114.3 462.2 1114.2 461.1L1118.8 443.7 1130.2 436.7 1130.8 450.4 1118.2 463.1C1117.7 464 1117.4 465.4 1117.9 466.2 1118.1 466.6 1118.1 466.6 1118.5 466.3 1119.3 467.6 1121 467.6 1122 466.5L1130.9 457.1 1131.4 470.9 1104.4 498.5C1103.8 499.4 1103.9 500.5 1104.4 501.3 1104.7 501.7 1104.7 501.7 1104.7 501.7 1105.8 502.7 1107.2 503 1108.1 501.9L1131.5 477.5 1131.6 494.3 1121.7 504.8C1120.8 506 1120.9 507.1 1121.4 507.9 1121.4 507.9 1121.6 508.3 1121.6 508.3 1122.8 509.3 1124.2 508.9 1125.1 508.4L1131.8 501 1131.9 513.2C1132.2 513.7 1132.4 514.1 1132.7 514.5 1132.9 514.9 1133.8 515.5 1134.5 515.6 1136 515.3 1137.2 514.5 1136.9 513.1L1136.7 500.8 1143.7 507.7C1144.9 508.7 1146.4 508.4 1147.2 507.9 1148.2 506.7 1147.8 505.2 1147.1 504L1136.6 494.1 1136 477.6 1160.2 500.5C1161.3 501.5 1163.1 501.6 1163.6 500.7 1164.6 499.5 1164.9 498.2 1163.8 497.2Z" fill="rgba(0, 100, 102, 0.5)"></path><path d="M1437.8 448.2L1412.4 450.7 1405.3 444.6 1413.9 443.8C1414.8 444 1415.3 443.1 1415.5 442.1 1415.3 441.5 1414.4 440.7 1413.7 440.9L1401.9 441.8 1394.8 436 1403.4 432.9 1414.2 438C1414.2 438 1414.5 438.1 1414.5 438.1 1415.2 438.2 1415.9 437.7 1416.3 437.1 1416.5 436.1 1416.3 435.5 1415.4 435L1407.6 431.4 1416.2 428.3 1439.4 438.8C1439.4 438.8 1439.7 439.2 1439.7 439.2 1440.3 439.3 1441 438.7 1441.5 438.2 1441.9 437.3 1441.5 436.2 1440.5 436.1L1420.4 426.7 1430.8 422.7 1439.8 426.8C1439.8 426.8 1439.8 426.8 1440.2 426.9 1440.8 427 1441.5 426.8 1441.9 426.2 1442.1 425.3 1441.9 424.3 1441 423.8L1435 421.1 1442.6 418.2C1443.6 418.1 1443.8 417.1 1443.6 416.4 1443.4 415.4 1442.5 415 1441.5 415.4L1433.9 418 1436.8 412.4C1437 411.4 1436.8 410.4 1435.9 410.3 1435 409.8 1434.3 410 1433.8 410.9L1429.7 419.9 1419.3 423.6 1428.6 403.2C1429.1 402.6 1428.6 401.5 1427.7 401.1 1427.1 401 1426.1 401.1 1425.6 402L1415.1 425.2 1406.5 428.3 1410.1 420.4C1410.6 419.5 1410 418.8 1409.2 418.3 1408.6 417.9 1407.5 418.4 1407.1 419L1402.3 429.8 1393.6 433.2 1395.2 424 1404.8 417.3C1405.5 416.7 1405.7 415.8 1405.2 415 1405 414.4 1403.7 414.1 1403 414.7L1395.9 419.6 1397.5 410.5 1418.5 395.9C1419.3 395.4 1419.4 394.4 1418.9 393.7 1418.4 393 1417.4 392.8 1416.7 393.3L1398.3 406.1 1400.1 395.3 1408.2 389.6C1409 389.1 1409.1 388.1 1408.6 387.4 1408.1 386.7 1407.2 386.5 1406.4 387L1400.9 390.6 1402.3 382.7C1402.4 381.8 1401.9 381 1401 380.9 1400 380.7 1399.3 381.2 1399.1 382.2L1397.8 390.1 1394.1 384.9C1393.6 384.2 1392.6 384 1391.9 384.5S1391 386 1391.5 386.7L1397 394.5 1395.1 405.5 1382.3 387.4C1381.8 386.7 1380.8 386.5 1380.1 387 1379.4 387.6 1379.2 388.5 1379.7 389.3L1394.4 409.9 1392.8 419.1 1387.8 412.1C1387.3 411.3 1386.4 411.2 1385.6 411.7 1384.9 412.2 1384.7 413.2 1385.2 413.9L1392 423.5 1390.5 432.3 1383.7 426.6 1382.5 414.7C1382.3 414 1381.5 413.2 1380.8 413.5 1379.8 413.6 1379.3 414.2 1379.2 415.1L1380 423.7 1373.2 418 1370.7 392.6C1370.6 391.6 1370 391.2 1369 391 1368 391.1 1367.6 392 1367.5 392.7L1369.5 415.1 1361 407.8 1360 398.2C1360.2 397.3 1359.3 396.8 1358.3 396.6 1357.7 396.8 1356.9 397.7 1357 398.7L1357.6 404.9 1351.3 400C1350.7 399.2 1349.7 399.4 1349 400.2 1348.5 400.8 1348.7 401.8 1349.3 402.2L1355.5 407.5 1348.9 408C1347.9 408.1 1347.4 409 1347.6 409.7 1347.5 410.7 1348.1 411.1 1348.7 411.2 1349 411.3 1349 411.3 1349.3 411.3L1358.9 410.4 1367.4 417.7 1345.3 419.7C1344.3 419.5 1343.9 420.4 1343.7 421.4 1343.9 422.1 1344.5 422.5 1345.1 422.6 1345.4 422.6 1345.4 422.6 1345.4 422.6L1371.1 420.6 1377.9 426.3 1369.3 427.1C1368.3 427.2 1367.9 427.8 1367.8 428.8 1368 429.4 1368.5 430.2 1369.1 430.3 1369.4 430.3 1369.4 430.3 1369.7 430.4L1381.6 429.2 1388.5 434.9 1380.1 438 1369.3 433.2C1368.4 432.8 1367.3 433.2 1366.9 433.8 1366.7 434.7 1366.9 435.7 1367.8 435.9L1375.6 439.5 1367.3 443 1343.8 432.1C1343.2 431.7 1342.2 432.2 1341.7 432.7 1341.6 433.7 1341.7 434.7 1342.6 435.2L1362.8 444.5 1352.4 448.2 1343.7 444.1C1342.8 443.6 1341.7 444.1 1341.6 445 1341.2 445.6 1341.3 446.6 1342.2 447.1L1348.2 449.8 1340.6 452.7C1339.9 452.9 1339.4 453.8 1339.6 454.8 1339.8 455.1 1340.4 455.6 1341.1 455.7 1341.1 455.7 1341.4 455.7 1341.7 455.8L1349.3 452.9 1346.7 458.9C1346.2 459.5 1346.7 460.5 1347.3 461 1347.6 461 1347.6 461 1347.6 461 1348.6 461.2 1349.3 460.7 1349.4 460L1353.5 451.3 1363.9 447.3 1354.6 467.7C1354.4 468.7 1354.6 469.4 1355.5 469.8 1355.5 469.8 1355.8 469.9 1355.8 469.9 1356.5 470 1357.1 469.8 1357.6 468.9L1368.4 445.8 1376.7 442.6 1373.1 450.5C1373 451.4 1373.1 452.4 1374.1 452.6 1374 452.9 1374.3 452.9 1374.3 452.9 1374.9 453 1375.7 452.5 1376.1 451.9L1380.9 441.1 1389.5 438 1388 446.8 1378.4 453.6C1377.7 454.2 1377.5 455.4 1378 456.2 1378.6 456.6 1379.5 456.7 1380.2 456.5L1387.3 451.3 1385.7 460.4 1365 475C1364.3 475.6 1364.1 476.5 1364.6 477.2 1365.1 478 1366.1 478.1 1366.8 477.6L1384.9 464.8 1383 475.9 1375.3 481.3C1374.5 481.9 1374.4 482.8 1374.9 483.6S1376.4 484.5 1377.1 483.9L1382.3 480.3 1380.9 488.2C1380.8 489.1 1381.3 489.8 1382.2 490 1383.2 490.2 1383.9 489.6 1384.1 488.7L1385.4 480.8 1389.4 486C1389.7 486.4 1389.9 486.8 1390.3 486.8 1390.6 486.9 1391.3 486.7 1391.6 486.4 1392.4 485.9 1392.5 485 1392 484.2L1386.2 476.4 1388.1 465.4 1401.2 483.5C1401.5 483.9 1401.7 484.3 1402 484.3 1402.4 484.4 1403 484.2 1403.4 483.9 1404.2 483.4 1404.3 482.4 1403.8 481.7L1388.9 460.9 1390.4 451.8 1395.3 459.1C1395.6 459.5 1396.2 459.6 1396.5 459.7 1396.9 459.7 1397.2 459.8 1397.5 459.5 1398.3 459 1398.5 457.7 1397.9 457.3L1391.2 447.4 1392.7 438.6 1399.8 444.3 1400.7 456.2C1400.9 456.9 1401.4 457.6 1402.1 457.7 1402.4 457.8 1402.4 457.8 1402.4 457.4 1403.4 457.6 1404.2 456.8 1404 455.8L1403.2 447.2 1410.4 453 1412.4 478.6C1412.6 479.3 1413.2 479.7 1413.9 479.9 1414.2 479.9 1414.2 479.9 1414.2 479.9 1415.2 479.8 1415.9 479.2 1415.8 478.2L1413.8 455.8 1422.2 463.1 1423.2 472.7C1423.4 473.7 1423.9 474.1 1424.6 474.2 1424.6 474.2 1424.9 474.3 1424.9 474.3 1425.9 474.1 1426.4 473.2 1426.5 472.6L1425.7 466 1431.9 471.3C1432.2 471.3 1432.5 471.4 1432.8 471.4 1433.1 471.5 1433.8 471.3 1434.2 471 1434.7 470.1 1434.8 469.2 1434 468.7L1427.7 463.4 1434.3 462.9C1435.3 462.8 1435.8 461.9 1435.9 461.2 1435.7 460.2 1434.8 459.8 1433.9 459.6L1424.3 460.5 1415.8 453.6 1437.9 451.5C1438.9 451.4 1439.7 450.5 1439.5 449.8 1439.3 448.8 1438.8 448.1 1437.8 448.2Z" fill="rgba(0, 100, 102, 0.5)"></path><path d="M1208.8 273.1L1213.6 247.1 1219.5 242.7 1234.3 249.7 1235 257.1 1217.8 277.3C1217.7 277.6 1217.7 277.6 1217.5 277.9 1217.2 278.5 1217.3 279.2 1218 279.9 1218.9 280.3 1219.6 280.3 1220.3 279.5L1235.3 261.8 1236.3 273.2 1229.8 281.1C1229.8 281.1 1229.6 281.4 1229.6 281.4 1229.4 282 1229.4 282.7 1230.1 283.4 1230.6 284 1231.7 283.8 1232.4 283.1L1236.8 278.1 1237.5 286.5C1237.5 287.2 1238.2 287.9 1239.2 288.1S1240.8 287 1240.9 286L1240.1 277.9 1245.2 282C1246 282.7 1247.1 282.6 1247.8 281.8 1248.1 281.2 1248.2 280.2 1247.5 279.5L1239.6 273 1238.7 261.3 1256.4 276.3C1257.1 277 1258.3 276.8 1258.8 276.4 1259.3 275.5 1259.4 274.5 1258.6 273.8L1238.3 256.9 1237.7 249.2 1250.8 240.1 1257.7 243.4 1266.9 268.2C1267.3 269 1268.1 269.4 1269 269.1S1270.2 267.9 1269.9 267.1L1261.8 245.3 1272.5 250.3 1275.9 259.6C1276.2 260.5 1277.1 260.9 1278.2 260.7S1279.5 259.5 1279.2 258.7L1276.6 252.2 1284.4 255.8C1285.3 256.3 1286.2 255.7 1286.6 254.8 1287.1 253.9 1286.7 253.1 1285.9 252.7L1278.1 249 1284.4 246.7C1285.6 246.5 1286 245.6 1285.4 244.7 1285.1 243.8 1284.2 243.4 1283.4 243.7L1274 247.1 1263.3 242.1 1285.3 234.3C1286.1 234 1286.7 232.9 1286.4 232S1285.2 230.8 1284.3 231.1L1259.2 240.2 1252.3 236.9 1251 220.8 1257.2 216.6 1283.2 221.4C1284.2 221.5 1284.9 220.8 1285.3 219.9 1285.4 218.9 1284.7 218.2 1283.8 217.8L1261 213.8 1270.4 207.2 1280.5 209.1C1281.5 209.3 1282.2 208.5 1282.6 207.6 1282.6 206.9 1282 205.9 1281 205.8L1274.5 204.6 1281.4 199.7C1281.9 199.2 1282.1 198.2 1281.8 197.4 1281 196.7 1280 196.5 1279.5 197L1272.6 201.9 1273.7 195C1273.7 194.3 1273.1 193.3 1272.3 193.3 1271.5 192.9 1270.9 193.3 1270.5 194.2 1270.5 194.2 1270.4 194.5 1270.4 194.5L1268.5 204.6 1259.1 211.1 1263.1 188.2C1263.2 187.2 1262.9 186.4 1261.9 186.3 1260.9 186.2 1260.3 186.6 1260 187.2 1259.9 187.5 1259.9 187.5 1259.9 187.5L1255.3 213.9 1249.1 218.1 1234.3 211.2 1233.8 203.9 1250.9 183.3C1251.5 182.8 1251.3 181.7 1250.8 181.1 1250.1 180.4 1249 180.6 1248.3 181.3L1233.3 199 1232.3 187.6 1238.8 179.7C1239.5 179 1239.6 178 1238.7 177.6 1238 176.9 1236.9 177 1236.3 177.5L1232 182.9 1231.4 174.4C1231 173.6 1230.3 172.9 1229.3 172.8 1228.9 172.9 1228.3 173.4 1228 174 1227.9 174.3 1227.9 174.3 1228.1 174.7L1228.7 183.1 1223.3 178.8C1222.6 178.1 1221.7 178.4 1221.2 178.9 1221 179.1 1221 179.1 1220.9 179.4 1220.6 180 1220.6 180.7 1221.1 181.3L1229 187.8 1230 199.2 1212.3 184.2C1211.4 183.8 1210.4 183.7 1210 184.6 1209.6 184.7 1209.6 184.7 1209.4 185 1209.2 185.6 1209.5 186.5 1209.9 187L1230.5 204.1 1231 211.4 1217.8 220.7 1211.1 217.6 1202 192.5C1201.7 191.7 1200.6 191.1 1199.7 191.4S1198.3 192.9 1198.6 193.7L1206.8 215.6 1196.3 210.7 1192.7 201.2C1192.4 200.3 1191.5 199.9 1190.6 200.2 1189.8 200.6 1189.4 201.4 1189.7 202.3L1192 208.7 1184.2 205C1183.6 204.7 1182.4 204.9 1182 205.8 1181.6 206.6 1182.1 207.9 1182.7 208.2L1190.5 211.8 1184.1 214.2C1183.7 214.3 1183.3 214.5 1183.1 214.8 1182.9 215.3 1183 215.8 1183.2 216.2 1183.5 217 1184.3 217.4 1185.2 217.1L1194.8 213.9 1205.3 218.8 1183.3 226.5C1182.9 226.6 1182.7 226.9 1182.5 227.5 1182.3 227.8 1182.2 228.1 1182.3 228.5 1182.6 229.4 1183.8 229.9 1184.7 229.6L1209.6 220.8 1216.3 223.9 1217.7 239.8 1211.7 244.4 1185.3 239.5C1184.6 239.5 1183.8 239.8 1183.5 240.4 1183.4 240.7 1183.4 240.7 1183.6 240.8 1183.2 241.7 1183.8 242.7 1184.8 242.8L1207.7 246.8 1198.1 253.6 1188.1 251.7C1187.4 251.7 1186.8 252.2 1186.5 252.7 1186.5 252.7 1186.4 253 1186.4 253 1186 253.9 1186.6 254.9 1187.6 255L1194.5 256.1 1187.6 261C1187.2 261.2 1187 261.5 1186.9 261.8 1186.6 262.3 1186.6 263.1 1186.9 263.2 1187.5 264.2 1188.5 264.3 1189.4 264L1196.3 259.1 1195 265.6C1194.9 266.6 1195.5 267.6 1196.5 267.7 1197.2 267.7 1198.2 267.1 1198.2 266.3L1200.1 256.3 1209.5 249.7 1205.5 272.6C1205.4 273.6 1206.1 274.3 1207 274.7 1207.7 274.7 1208.7 274.1 1208.8 273.1ZM1234 245.7L1222.7 240.4 1221 239.6 1220.8 237.7 1219.8 225.6 1219.7 223.4 1221.3 222.4 1231.2 215.4 1232.8 214.4 1234.5 215.2 1245.8 220.5 1247.6 221.3 1247.8 223.1 1248.8 235.3 1249 237.1 1247.3 238.5 1237.3 245.4 1235.8 246.5 1234 245.7Z" fill="rgba(0, 100, 102, 0.5)"></path><path d="M529.8 313.6L561 324.6 565.1 332.7 553.7 349.6 544.4 349.1 522.8 323.9C522.5 323.7 522.5 323.7 522.2 323.5 521.5 323 520.6 322.9 519.6 323.7 518.9 324.7 518.8 325.5 519.6 326.6L538.5 348.5 524.2 347.5 515.7 338C515.7 338 515.4 337.7 515.4 337.7 514.8 337.3 513.9 337.2 512.9 337.9 512.1 338.4 512.1 339.8 512.8 340.8L518.1 347.3 507.6 346.5C506.7 346.3 505.7 347.1 505.4 348.3S506.4 350.4 507.6 350.8L517.8 351.4 511.6 356.9C510.6 357.7 510.6 359.1 511.4 360.1 512.1 360.6 513.3 360.9 514.3 360.1L523.9 351.6 538.5 352.8 516.6 371.8C515.6 372.6 515.5 374 516 374.8 517 375.5 518.2 375.8 519.2 375L544.1 353.2 553.7 353.9 562.4 371.8 557 379.8 524.6 386.4C523.5 386.6 522.8 387.6 523 388.7S524.2 390.5 525.3 390.3L553.9 384.4 545.6 396.7 533.4 399.1C532.3 399.3 531.6 400.3 531.6 401.7S532.8 403.5 533.9 403.3L542.5 401.3 536.4 410.3C535.8 411.3 536.3 412.6 537.3 413.3 538.3 414 539.4 413.8 540.1 412.8L546.1 403.8 547.7 412.1C547.7 413.6 548.7 414.2 550.1 413.7 551.2 413.5 551.8 412.5 551.6 411.4L549.2 399.2 557.5 386.9 562.8 415.5C563 416.7 564.3 417.6 565.5 417.3S567.2 416.1 567 415L560.7 382.3 566 374.3 586.2 375.8 590.2 384.3 579.2 415.5C578.9 416.7 579.6 417.7 580.6 418.4 581.9 418.8 582.9 418 583.5 417L592.9 389.5 599.1 402.4 594.9 414.5C594.5 415.7 595.3 416.7 596.3 417.4 597.2 417.5 598.5 417 598.9 415.7L601.7 408 606.4 417.5C606.8 418.2 608 418.6 609.2 418.4 610.2 417.6 610.5 416.4 610.1 415.6L605.3 406.1 613.6 408.8C614.5 409 615.9 408.4 616 407.5 616.7 406.5 616.2 405.7 615.2 405.1 615.2 405.1 614.9 404.9 614.9 404.9L602.8 400.6 596.6 387.7 624 397C625.2 397.4 626.4 397.2 626.7 395.9 627 394.7 626.6 393.9 625.9 393.5 625.6 393.3 625.6 393.3 625.6 393.3L593.8 382.4 589.9 374 601.3 357.1 610.4 357.9 632.5 383C633 383.8 634.4 383.8 635.2 383.3 636.2 382.6 636.2 381.1 635.4 380.1L616.5 358.2 630.8 359.1 639.3 368.7C640 369.7 641.3 370.1 641.9 369.1 642.9 368.3 642.9 366.8 642.5 366.1L636.7 359.7 647.2 360.5C648.3 360.3 649.3 359.6 649.7 358.3 649.5 357.8 649.1 357 648.4 356.6 648.1 356.3 648.1 356.3 647.6 356.4L637 355.6 643.4 349.8C644.4 349 644.2 347.9 643.7 347.1 643.4 346.9 643.4 346.9 643.1 346.7 642.4 346.2 641.5 346.1 640.7 346.5L631.1 355 616.8 354.1 638.8 335.1C639.5 334.1 639.8 332.9 638.8 332.2 638.7 331.7 638.7 331.7 638.4 331.4 637.7 331 636.6 331.2 635.8 331.6L610.7 353.8 601.6 353 592.6 334.8 597.8 327.2 630.6 320.8C631.7 320.6 632.6 319.3 632.3 318.2S630.8 316.2 629.7 316.4L601.2 322.2 609.2 310.3 621.6 307.6C622.8 307.4 623.4 306.4 623.2 305.3 623 304.2 622 303.5 620.9 303.7L612.6 305.3 618.6 296.4C619 295.7 619.1 294.3 618.1 293.6 617.1 292.9 615.4 293.2 615 293.9L608.9 302.9 607.3 294.5C607.2 294 607.1 293.4 606.7 293.2 606.1 292.8 605.5 292.9 605 293 603.9 293.2 603.2 294.2 603.4 295.3L605.6 307.8 597.5 319.8 592.2 291.1C592.1 290.6 591.8 290.3 591.1 289.9 590.8 289.7 590.5 289.4 589.9 289.6 588.8 289.8 587.9 291.1 588.1 292.2L594.1 324.7 589 332.4 569.2 331 564.6 322.7 575.8 291.1C575.9 290.3 575.7 289.1 575 288.7 574.7 288.5 574.7 288.5 574.5 288.8 573.5 288.1 572.2 288.7 571.8 289.9L562.5 317.4 555.9 304.2 560.2 292.2C560.3 291.3 559.8 290.5 559.2 290.1 559.2 290.1 558.8 289.8 558.8 289.8 557.8 289.2 556.5 289.7 556.2 290.9L553.5 299.2 548.7 289.8C548.6 289.2 548.3 289 548 288.8 547.3 288.3 546.4 288.2 546.2 288.5 544.9 289.1 544.5 290.3 544.7 291.4L549.5 300.9 541.7 298.1C540.5 297.7 539.2 298.3 538.8 299.5 538.7 300.4 539.2 301.7 540.1 301.8L552.2 306.1 558.5 319 531 309.6C529.8 309.3 528.8 310.1 528.1 311.1 528 312 528.5 313.3 529.8 313.6ZM558.7 350.1L567.5 337.1 568.8 335.1 571.1 335.3 586.3 336.4 589 336.7 590 338.8 596.7 352.5 597.6 354.6 596.3 356.6 587.6 369.5 586.2 371.5 583.9 371.4 568.7 370.3 566.4 370.2 565.1 367.9 558.4 354.2 557.4 352.1 558.7 350.1Z" fill="rgba(0, 100, 102, 0.5)"></path><path d="M295.1 457.1L287.1 466.7 283.9 458.9C283.6 458.1 282.5 457.5 281.3 457.7 280.3 458.3 279.7 459.5 280 460.3L284 470.7 276.4 479.6 268.6 458.4C268 457.1 266.8 456.5 265.9 457.2 264.7 457.4 264.1 458.5 264.7 459.8L273.4 483.2 266.8 491.4 242.7 487.4 239.3 478.8 256.4 458.5C256.5 458.1 256.5 457.7 256.6 457.3 256.7 456.9 256.4 456 256.1 455.6 255 454.6 253.8 454.8 253.2 455.9L237.6 474.4 233.7 463.6 241.3 454C241.7 454 241.8 453.6 241.9 453.2 242 452.4 241.7 451.6 241 451.1 240.3 450.5 239 450.7 238.1 451.4L231.9 459.3 226.8 445.9C226.6 445 225.5 444.5 224.2 444.7 223.3 445.3 222.7 446.4 223 447.3L227.8 459.8 219.5 458.5C218.3 458.3 217.3 459.3 217.2 460.1 217 461.3 217.6 462.6 218.8 462.8L229.4 464.6 233.4 475.3 211.2 471.7C210.1 471.5 209.1 472.2 209 473.4 208.8 474.5 209.4 475.5 210.6 475.7L235.1 479.7 238.8 488.8 223.2 507.7 214.1 506.2 205 482.4C204.8 481.2 203.3 480.5 202.4 481.2 201.1 481.4 200.9 482.6 201.1 483.8L209.3 505.4 197.9 503.6 194 492.8C193.7 491.9 192.2 491.3 191.4 491.5S189.9 493.3 190.1 494.6L193.2 502.8 179.4 500.5C178.2 500.3 177.2 501.4 177 502.6 176.9 503.3 177.5 504.7 178.6 504.9L192.5 507.1 186.8 514.3C186.3 515 186.1 516.2 187.1 517.2 187.9 517.7 189.5 517.6 190 516.9L197.2 507.9 208.6 509.8 193.9 527.6C193.4 528.8 193.2 529.9 194.2 530.9 194.9 531.5 196.6 531.3 197.1 530.6L213.4 510.6 222.4 512.1 231.2 535 224.7 542.4 200.3 538.4C199.1 538.2 198.2 538.9 198 540.1 197.8 541.2 198.4 542.6 199.6 542.8L221.7 546.4 214.5 555.3 203.9 553.6C202.7 553.4 201.8 554.1 201.6 555.2 201.4 556.4 202 557.3 203.2 557.5L211.5 558.9 202.9 569.2C202.4 570 202.5 571.6 203.2 572.1 204.4 572.7 205.5 572.9 206.1 571.8L215.2 561.1 218.6 570.2C219.2 571.1 220.3 571.7 221.2 571.4 222 571.2 222.6 570.5 222.7 569.7 222.7 569.7 222.8 569.3 222.4 568.8L218.3 557.2 225.4 548.2 234.3 570.8C234.5 572 235.6 572.6 236.9 572 237.4 571.7 237.8 571.3 238 570.6 238 570.2 238.1 569.8 238.2 569.4L228.4 544.7 234.5 537.6 258.5 541.5 262.2 551.4 246.4 570.7C245.5 571.8 245.7 573 246.8 573.6 247.4 574.5 248.7 574.3 249.7 573.3L263.9 555.8 268.2 566.6 261.1 575.2C260.6 575.9 260.8 577.1 261.5 578.1 262.6 578.7 263.8 578.9 264.3 577.7L269.9 571.3 274.4 583C274.6 584.3 275.8 584.5 277.1 584.3 277.5 584 278 583.2 278.2 582.4 278.2 582.4 278.2 582 278.3 581.6L273.5 569.1 283.3 570.7C284.1 570.9 285.4 570.3 285.6 569.1 285.8 567.9 284.8 566.9 284 566.8L271.7 564.8 267.5 553.9 291.5 557.9C292.7 558.1 293.7 557 293.9 555.8S293.4 553.7 292.2 553.5L265.8 549.2 262.4 540.1 278.1 521.2 288.4 522.9 297.4 547.1C298 548 299.1 548.6 300.4 548.4 300.8 548.1 301.4 547.3 301.5 546.5 301.6 546.2 301.6 545.8 301.3 545.3L293.1 523.7 304.5 525.6 308.8 536.4C309.1 537.3 310.2 537.9 311.5 537.7 312.4 537 313 535.9 312.7 535L309.3 526.3 321.9 528.4C322.7 528.6 324.1 527.6 324.2 526.8 324.4 525.6 323.4 524.2 322.6 524.1L310 522 316 515.3C316 514.9 316.1 514.5 316.2 514.1 316.3 513.3 316 512.5 315.7 512 314.6 511.4 313.3 511.6 312.4 512.3L305.3 521.2 293.8 519.3 308.5 501.5C309.5 500.4 309.3 499.2 308.6 498.7 307.5 497.7 306.3 497.9 305.3 498.5L289.1 518.6 278.8 516.9 270 493.9 276.1 486.4 302.6 490.8C303.7 491 304.7 490.3 304.9 489.1 305.1 487.9 304.4 487 303.2 486.8L279.1 482.9 286.7 474 298.9 476C299.7 476.1 301.1 475.1 301.3 474 301.5 472.8 300.4 471.8 299.6 471.7L289.8 470 298.4 459.7C298.4 459.3 298.4 459.3 298.5 458.9 298.6 458.1 298.3 457.3 298 456.8 296.9 456.2 295.7 456.4 295.1 457.1ZM274.1 516.1L274.9 518.7 273.4 520.4 260.7 535.8 259.2 537.6 256.8 537.2 237.5 534 235.1 533.6 234.3 531.4 227.2 512.8 226.3 510.7 227.9 508.5 240.5 493.5 242.1 491.4 244.4 491.8 263.8 494.9 266.1 495.3 266.9 497.9 274.1 516.1Z" fill="rgba(0, 100, 102, 0.5)"></path><path d="M570.8 148.4L539.2 153.3 529.9 146.2 540.6 144.6C541.8 144.7 542.3 143.6 542.4 142.4 542.1 141.6 541 140.6 540.2 140.9L525.5 142.9 516.2 136.2 526.7 131.8 540.6 137.4C540.6 137.4 541 137.4 541 137.4 541.8 137.5 542.7 136.8 543.2 136 543.3 134.9 543 134 541.8 133.5L531.8 129.5 542.4 125.1 572.1 136.5C572.1 136.5 572.4 136.9 572.4 136.9 573.2 137 574.1 136.3 574.6 135.5 575.1 134.4 574.5 133.1 573.3 133L547.4 122.8 560.2 117 571.7 121.5C571.7 121.5 571.7 121.5 572.1 121.6 572.9 121.7 573.8 121.4 574.3 120.6 574.4 119.4 574.1 118.2 573 117.6L565.3 114.8 574.6 110.6C575.8 110.3 575.9 109.1 575.6 108.3 575.4 107 574.2 106.5 572.9 107.2L563.7 111 566.9 103.7C567 102.5 566.8 101.3 565.6 101.1 564.4 100.6 563.6 100.9 563.1 102L558.5 113.6 545.9 119 556 92.8C556.5 92.1 555.9 90.8 554.7 90.2 553.9 90.2 552.7 90.4 552.2 91.6L540.8 121.3 530.2 125.7 534.2 115.7C534.7 114.6 534 113.7 532.8 113.2 532.1 112.7 530.8 113.3 530.3 114.1L525.1 128 514.5 132.8 515.8 121.3 527.3 112.1C528.2 111.4 528.3 110.2 527.6 109.4 527.3 108.5 525.7 108.3 524.8 109L516.4 115.7 517.7 104.2 542.9 84.5C543.8 83.8 543.9 82.6 543.2 81.7 542.5 80.8 541.3 80.7 540.4 81.4L518.4 98.7 519.9 85.1 529.6 77.4C530.5 76.7 530.6 75.5 529.9 74.6 529.2 73.7 528 73.6 527.1 74.3L520.5 79.2 521.6 69.2C521.8 68 521.1 67.2 519.9 67 518.7 66.9 517.8 67.6 517.7 68.8L516.6 78.7 511.6 72.5C510.9 71.7 509.7 71.5 508.8 72.2S507.8 74.1 508.5 75L515.9 84.3 514.4 98.2 497.1 76.6C496.4 75.7 495.2 75.5 494.3 76.2 493.4 77 493.3 78.1 494 79L513.8 103.8 512.5 115.3 505.8 106.9C505.1 106 503.9 105.9 503 106.6 502.1 107.3 502 108.5 502.7 109.4L511.8 120.9 510.6 132 501.7 125.4 499.3 110.6C499 109.8 497.9 108.8 497.1 109.2 495.8 109.4 495.3 110.2 495.2 111.4L496.8 122 487.9 115.4 483 83.8C482.7 82.6 482 82.1 480.8 82 479.5 82.2 479 83.4 478.9 84.2L483.1 112 471.9 103.5 470 91.6C470.2 90.5 469 89.9 467.8 89.8 467 90.1 466.1 91.2 466.3 92.4L467.5 100.2 459.3 94.5C458.5 93.6 457.3 93.8 456.4 94.9 455.9 95.7 456.2 96.9 456.9 97.4L465.1 103.6 456.9 104.7C455.7 104.9 455.1 106.1 455.4 106.9 455.3 108.1 456.1 108.6 456.9 108.7 457.3 108.7 457.3 108.7 457.7 108.8L469.5 106.9 480.7 115.4 453.2 119.5C452 119.4 451.5 120.6 451.4 121.8 451.7 122.6 452.4 123.1 453.2 123.2 453.6 123.2 453.6 123.2 453.6 123.2L485.5 118.7 494.4 125.4 483.8 127C482.6 127.3 482.1 128 481.9 129.2 482.2 130 482.9 130.9 483.7 131 484.1 131.1 484.1 131.1 484.5 131.1L499.3 128.7 508.2 135.4 498.1 139.9 484.1 134.7C483 134.1 481.7 134.8 481.2 135.6 481.1 136.8 481.4 138 482.5 138.1L492.6 142.1 482.4 147 452.3 135.1C451.5 134.7 450.3 135.3 449.8 136.1 449.6 137.3 449.9 138.5 451.1 139L476.9 149.2 464.2 154.6 453 150.1C451.9 149.6 450.6 150.2 450.5 151.4 450 152.2 450.2 153.4 451.4 154L459.1 156.8 449.8 161C449 161.3 448.4 162.5 448.7 163.7 449 164.2 449.8 164.6 450.6 164.7 450.6 164.7 451 164.8 451.4 164.8L460.7 160.6 457.8 168.4C457.3 169.1 458 170.4 458.8 170.9 459.2 170.9 459.2 170.9 459.2 170.9 460.3 171.1 461.2 170.4 461.3 169.6L465.8 158.4 478.5 152.6 468.3 178.8C468.2 180 468.5 180.8 469.7 181.4 469.7 181.4 470.1 181.4 470.1 181.4 470.9 181.5 471.7 181.2 472.2 180L484 150.4 494.2 145.9 490.2 155.9C490.1 157.1 490.4 158.3 491.5 158.4 491.5 158.8 491.9 158.9 491.9 158.9 492.7 159 493.6 158.3 494.1 157.5L499.2 143.6 509.8 139.2 508.6 150.3 497.1 159.5C496.2 160.2 496 161.8 496.7 162.6 497.5 163.1 498.7 163.3 499.5 163L507.9 155.9 506.6 167.4 481.9 187.2C481 187.9 480.9 189.1 481.6 189.9 482.3 190.8 483.5 191 484.4 190.2L506 172.9 504.5 186.9 495.2 194.3C494.3 195 494.2 196.2 494.9 197.1S496.8 198.1 497.7 197.4L503.8 192.4 502.7 202.4C502.6 203.6 503.3 204.4 504.5 204.6 505.7 204.7 506.6 204 506.7 202.8L507.8 192.9 513.2 199.1C513.5 199.5 513.9 200 514.3 200 514.7 200.1 515.5 199.8 515.9 199.4 516.8 198.7 517 197.5 516.3 196.6L508.4 187.3 510 173.4 527.7 195.1C528 195.5 528.4 196 528.8 196 529.2 196.1 530 195.8 530.5 195.4 531.4 194.7 531.5 193.5 530.8 192.6L510.6 167.8 511.9 156.3 518.6 165.1C518.9 165.5 519.7 165.6 520.1 165.7 520.5 165.7 520.9 165.8 521.4 165.4 522.2 164.7 522.4 163.1 521.7 162.6L512.5 150.7 513.8 139.6 523.1 146.3 525.1 161C525.4 161.8 526.1 162.7 526.9 162.8 527.3 162.8 527.3 162.8 527.3 162.4 528.5 162.6 529.4 161.5 529.2 160.2L527.6 149.6 536.9 156.3 541.4 188.2C541.7 189 542.4 189.5 543.2 189.6 543.6 189.6 543.6 189.6 543.6 189.6 544.8 189.4 545.7 188.7 545.5 187.4L541.3 159.6 552.5 168.1 554.3 180C554.6 181.2 555.4 181.7 556.2 181.8 556.2 181.8 556.5 181.8 556.5 181.8 557.8 181.6 558.3 180.4 558.4 179.6L556.9 171.4 565.1 177.5C565.5 177.6 565.9 177.6 566.3 177.7 566.7 177.7 567.5 177.4 567.9 177.1 568.5 175.9 568.6 174.7 567.5 174.2L559.3 168 567.5 166.9C568.7 166.7 569.2 165.5 569.3 164.7 569.1 163.5 567.9 163 566.7 162.8L554.8 164.7 543.7 156.6 571.1 152.5C572.3 152.2 573.3 151.1 573 150.2 572.7 149 572 148.1 570.8 148.4Z" fill="rgba(0, 100, 102, 0.5)"></path><path d="M758.2 48.1L781.6 58.3 784.8 67 776.9 63.6C776.2 62.9 775.3 63.5 774.7 64.2 774.6 64.9 774.9 66 775.6 66.2L786.4 71.2 789.9 79.7 780.8 78.1 773.8 68.4C773.8 68.4 773.6 68.2 773.6 68.2 773.1 67.8 772.2 67.9 771.5 68.2 770.9 69 770.8 69.7 771.3 70.5L776.4 77.5 767.4 76 752.2 55.6C752.2 55.6 752.1 55.1 752.1 55.1 751.6 54.7 750.7 54.8 750.1 55.1 749.2 55.7 749.1 56.8 749.9 57.4L763 75.3 751.9 73.8 746 65.8C746 65.8 746 65.8 745.7 65.6 745.2 65.2 744.5 65.1 743.9 65.4 743.3 66.1 742.9 67.1 743.5 67.9L747.5 73.2 739.4 72C738.4 71.7 737.8 72.4 737.7 73.1 737.3 74.1 737.9 74.9 739 75L746.9 76.4 741.6 80C741 80.7 740.7 81.7 741.4 82.3 742 83.1 742.7 83.3 743.5 82.7L751.5 76.8 762.4 78.6 744.3 92C743.7 92.3 743.6 93.4 744.1 94.3 744.6 94.7 745.6 95 746.4 94.5L766.8 79.2 775.9 80.7 768.9 85.8C768.1 86.4 768.2 87.3 768.7 88.1 769 88.8 770.2 88.9 770.8 88.6L780.3 81.4 789.5 82.7 783.7 89.9 772 91.2C771.1 91.3 770.5 92 770.6 92.9 770.5 93.6 771.5 94.4 772.4 94.3L780.9 93.4 775.1 100.6 749.7 103.2C748.8 103.3 748.2 104.1 748.3 104.9 748.4 105.8 749.1 106.4 750 106.4L772.3 104.1 765.5 112.6 755.6 113.7C754.7 113.8 754.1 114.6 754.2 115.5 754.3 116.4 755 117 755.9 116.9L762.5 116.4 757.5 122.6C756.9 123.3 757 124.2 757.7 124.8 758.5 125.5 759.4 125.4 760 124.6L765 118.4 765.7 124.7C765.8 125.6 766.5 126.2 767.4 126.1S768.9 125.2 768.8 124.3L767.8 114.9 774.8 106.1 777.2 128.2C777.3 129.1 778.1 129.7 779 129.6 779.9 129.5 780.5 128.7 780.4 127.8L777.6 102.6 783.4 95.4 784.3 103.9C784.4 104.8 785.2 105.4 786.1 105.3 787 105.2 787.6 104.5 787.5 103.6L786.2 91.9 791.8 84.9 795 93.2 790.3 104.2C790.1 104.9 790.5 106 791.2 106.1 792.1 106.5 792.8 106.2 793.4 105.4L796.8 97.6 800 105.9 789.9 129.3C789.5 130.2 789.8 130.9 790.6 131.5 791.5 131.8 792.4 131.3 792.8 130.8L801.9 110.2 805.8 120.7 802 129.5C801.4 130.3 801.9 131.1 802.7 131.7 803.3 131.9 804.4 131.5 804.8 130.6L807.4 124.9 810.4 132.3C810.5 133.2 811.5 133.5 812.6 133.2 813.2 132.9 813.6 131.9 813.3 131.3L810.4 123.6 816.4 126.4C817.3 126.7 818.2 126.2 818.3 125.5 818.9 124.7 818.7 124.1 818.2 123.7 817.9 123.5 817.9 123.5 817.7 123.3L808.8 119.5 804.9 109 825.3 117.9C826 118.5 826.9 117.9 827.5 117.2 827.6 116.5 827.3 115.8 826.8 115.4 826.6 115.2 826.6 115.2 826.6 115.2L803.1 104.6 799.9 96.3 807.8 99.8C808.7 100.1 809.4 99.8 810 99.1 810.1 98.4 810 97.5 809.5 97.1 809.3 96.9 809.3 96.9 809 96.7L798 92 794.9 83.7 803.6 85 810.8 94.4C811.4 95.3 812.5 95.4 813.2 95.1 813.8 94.3 814.1 93.4 813.4 92.8L808.3 85.8 817.3 86.9 832.6 107.7C832.9 108.4 834 108.5 834.7 108.2 835.3 107.4 835.6 106.5 835.1 105.6L821.9 87.7 832.8 89.5 838.5 97.3C839 98.1 840.2 98.2 840.8 97.5 841.4 97.2 841.8 96.3 841.2 95.4L837.2 90.2 845.3 91.3C846 91.5 846.9 90.9 847.2 90 847.2 89.5 846.9 88.9 846.4 88.5 846.4 88.5 846.1 88.3 845.9 88.1L837.8 86.9 843 82.9C843.7 82.6 843.8 81.5 843.5 80.8 843.2 80.6 843.2 80.6 843.2 80.6 842.5 80 841.6 80.1 841.2 80.6L833.4 86.2 822.3 84.7 840.4 71.4C841 70.6 841.1 69.9 840.6 69.1 840.6 69.1 840.3 68.9 840.3 68.9 839.8 68.5 839.1 68.3 838.3 68.9L817.6 83.9 808.8 82.6 815.8 77.5C816.4 76.7 816.8 75.8 816 75.2 816.2 74.9 816 74.7 816 74.7 815.5 74.3 814.6 74.4 813.9 74.7L804.5 81.9 795.4 80.4 801 73.4 812.7 72.1C813.6 72 814.4 71 814.3 70.1 814 69.5 813.3 68.9 812.6 68.7L803.8 69.9 809.6 62.7 834.8 59.9C835.7 59.8 836.3 59.1 836.2 58.2 836.1 57.3 835.4 56.7 834.5 56.8L812.4 59.2 819.4 50.5 828.9 49.4C829.8 49.3 830.4 48.6 830.3 47.7S829.4 46.2 828.5 46.3L822.2 47 827.2 40.7C827.8 40 827.7 39.1 827 38.5 826.2 37.9 825.3 38 824.7 38.7L819.7 45 818.8 38.5C818.7 38 818.7 37.6 818.4 37.4 818.2 37.2 817.5 37 817 37.1 816.1 37.2 815.5 37.9 815.6 38.8L816.9 48.4 809.9 57.2 807.2 34.9C807.2 34.5 807.2 34 806.9 33.8 806.7 33.6 806 33.5 805.5 33.5 804.6 33.6 804 34.4 804.1 35.3L807.1 60.7 801.3 67.9 800.6 59.1C800.5 58.7 800 58.3 799.8 58.1 799.5 57.9 799.3 57.7 798.8 57.7 797.9 57.8 797.1 58.8 797.4 59.5L798.5 71.4 792.9 78.4 789.5 69.9 794.4 59.1C794.6 58.4 794.5 57.5 794 57.1 793.7 56.9 793.7 56.9 793.5 57.2 792.8 56.6 791.7 56.9 791.3 57.9L787.9 65.8 784.4 57.3 795.1 33.8C795.2 33.1 794.9 32.4 794.4 32 794.2 31.8 794.2 31.8 794.2 31.8 793.2 31.5 792.3 31.6 792 32.5L782.8 53.1 779 42.6 782.8 33.8C783.1 32.8 782.8 32.2 782.3 31.8 782.3 31.8 782.1 31.6 782.1 31.6 781.1 31.2 780.3 31.8 779.9 32.3L777.4 38.5 774.5 30.8C774.2 30.6 774 30.4 773.7 30.2 773.5 30 772.8 29.9 772.3 29.9 771.5 30.5 770.9 31.2 771.4 32.1L774.3 39.7 768.3 37C767.4 36.6 766.5 37.2 766.1 37.7 765.8 38.6 766.3 39.5 767.1 40.1L775.9 43.9 780 54.1 759.7 45.2C758.7 44.8 757.6 45.2 757.5 45.9 757.1 46.8 757.2 47.7 758.2 48.1Z" fill="rgba(0, 100, 102, 0.5)"></path><path d="M999.6 150.1L998.7 140.1 1004.9 142.7C1005.5 143 1006.5 142.7 1007.1 141.9 1007.2 141 1006.9 140 1006.3 139.7L998.2 136.1 997.4 126.8 1013.8 134.3C1014.9 134.7 1015.9 134.4 1016 133.5 1016.6 132.7 1016.3 131.7 1015.2 131.3L997.1 123.1 996.1 114.7 1011.9 103.3 1018.8 106.2 1020.7 127.4C1020.9 127.6 1021 127.9 1021.2 128.1 1021.4 128.4 1022 128.7 1022.5 128.8 1023.6 128.7 1024.2 127.9 1023.9 127L1022.2 107.7 1030.5 111.5 1031.7 121.3C1031.5 121.5 1031.6 121.8 1031.8 122 1032.2 122.6 1032.8 122.9 1033.5 122.8 1034.2 122.7 1034.8 121.8 1035 120.9L1034 113 1044.4 117.6C1045.1 118 1046 117.7 1046.6 116.9 1046.8 116 1046.5 115 1045.8 114.7L1036 110.3 1041.4 106.4C1042.2 105.8 1042.2 104.7 1041.8 104.2 1041.2 103.4 1040.2 103 1039.4 103.5L1032.4 108.6 1024.1 104.8 1038.6 94.2C1039.4 93.7 1039.5 92.8 1038.9 92 1038.4 91.2 1037.5 91.1 1036.7 91.7L1020.6 103.3 1013.3 100.3 1011.4 80.7 1017.4 76.4 1036 84.7C1036.8 85.3 1038 84.8 1038.2 83.9 1038.8 83 1038.2 82.3 1037.4 81.7L1020.5 74.2 1028 68.7 1036.3 72.6C1037 72.9 1038.2 72.4 1038.5 71.8S1038.4 69.9 1037.5 69.3L1031.1 66.5 1040.2 59.9C1041 59.3 1040.9 58.2 1040.4 57.4 1040 56.9 1038.9 56.5 1038.1 57.1L1029.1 63.6 1028.2 56.4C1028 55.7 1027.5 54.9 1026.3 54.9 1025.6 55 1024.8 56.1 1024.9 56.8L1025.9 65.9 1018.4 71.3 1016.6 52.9C1016.3 51.9 1015.7 51.2 1014.5 51.2 1013.8 51.3 1013 52.3 1013.1 53L1015.3 73.6 1009.3 77.9 991.4 69.9 990.8 62.1 1006.9 50.4C1007.7 49.9 1007.8 49 1007.2 48.2 1006.7 47.4 1005.6 47 1004.8 47.6L990.3 58.1 989.2 49 996.2 43.9C997 43.4 997.2 42.5 996.6 41.7 996 40.9 995.1 40.8 994.4 41.3L988.9 45.3 987.9 34.6C987.8 33.8 986.8 33 986 33.1 985.1 33.4 984.3 34 984.6 34.9L985.6 46.1 978.5 42.9C977.6 42.8 976.7 43.1 976.3 43.7 976 44.3 976.1 45 976.5 45.6 976.5 45.6 976.7 45.8 977.1 45.9L986.1 50.1 987.1 59.2 969.3 51.5C968.5 50.9 967.6 51.2 967.2 52.3 967.1 52.8 967 53.2 967.4 53.7 967.6 54 967.8 54.2 967.9 54.5L987.5 62.9 988.1 70.3 972.3 81.8 964.6 78.3 962.5 58.4C962.5 57.3 961.6 56.7 960.7 57 959.8 56.9 959.2 57.7 959.2 58.8L961.2 76.8 952.6 73.1 951.7 64.3C951.6 63.6 950.8 63 949.9 62.8 948.9 63.1 948.1 63.7 948.4 64.7L949 71.4 939.8 67.4C938.9 66.8 938.2 67.4 937.6 68.2 937.5 68.6 937.6 69.3 938 69.9 938 69.9 938.2 70.1 938.4 70.4L948.2 74.7 941.7 79.4C941.2 79.8 940.8 80.9 941.4 81.6 941.9 82.4 943.1 82.4 943.6 82L951.6 76.2 960.2 79.8 944.4 91.3C943.6 91.9 943.7 93 944.2 93.8S945.7 94.7 946.5 94.1L963.8 81.6 970.9 84.8 972.8 104.3 966.1 109.2 947.3 100.7C946.4 100.5 945.4 100.8 944.8 101.7 944.7 102.1 944.8 102.8 945.2 103.3 945.4 103.6 945.6 103.9 946 103.9L962.9 111.5 955.4 116.9 946.8 113.2C946.2 112.9 945.2 113.2 944.7 114 944.5 114.9 944.8 115.9 945.5 116.2L952.3 119.1 944 125.1C943.5 125.5 943.3 126.9 943.7 127.4 944.2 128.2 945.6 128.4 946.1 128L954.4 122 954.8 129.2C955 129.4 955.2 129.7 955.4 129.9 955.8 130.5 956.4 130.8 956.9 130.9 957.8 130.6 958.4 129.7 958.5 128.9L957.5 119.7 965 114.3 966.9 132.7C966.9 133.9 967.7 134.4 968.4 134.3 969.6 134.3 970.2 133.5 970.3 132.6L968.1 112.1 974.9 107.2 992.8 115.1 993.7 122.8 976.3 135.4C975.5 135.9 975.4 136.8 975.9 137.6 976.5 138.4 977.4 138.5 978.2 138L994 126.5 994.8 135.8 986.8 141.6C986.2 142 986 143.3 986.6 144.1 987.1 144.9 988.3 144.9 988.8 144.5L995.3 139.8 996.3 150.5C996.5 150.8 996.5 150.8 996.7 151 997.1 151.5 997.7 151.9 998.2 151.9 999.1 151.6 999.7 150.8 999.6 150.1ZM978 104.9L976.1 103.9 975.9 102.1 974.3 86.2 974.2 84.4 975.7 83.3 988.4 74.1 990 72.9 991.7 73.7 1006.2 80.1 1008 80.9 1008.3 83 1009.7 98.6 1010 100.7 1008.5 101.8 995.8 111 994.2 112.1 992.3 111.1 978 104.9Z" fill="rgba(0, 100, 102, 0.5)"></path></g><defs><mask id="SvgjsMask1002"><rect width="1440" height="560" fill="#ffffff"></rect></mask><filter id="SvgjsFilter1003"><feGaussianBlur stdDeviation="1"></feGaussianBlur></filter></defs></svg>