<?xml version="1.0" encoding="UTF-8" standalone="no"?>
<!-- Created with Inkscape (http://www.inkscape.org/) -->

<svg
   xmlns:osb="http://www.openswatchbook.org/uri/2009/osb"
   xmlns:dc="http://purl.org/dc/elements/1.1/"
   xmlns:cc="http://creativecommons.org/ns#"
   xmlns:rdf="http://www.w3.org/1999/02/22-rdf-syntax-ns#"
   xmlns:svg="http://www.w3.org/2000/svg"
   xmlns="http://www.w3.org/2000/svg"
   xmlns:sodipodi="http://sodipodi.sourceforge.net/DTD/sodipodi-0.dtd"
   xmlns:inkscape="http://www.inkscape.org/namespaces/inkscape"
   id="svg2"
   sodipodi:docname="thunderstorm.svg"
   viewBox="0 0 1440 560.00001"
   sodipodi:version="0.32"
   version="1.0"
   inkscape:output_extension="org.inkscape.output.svg.inkscape"
   inkscape:version="0.92.5 (2060ec1f9f, 2020-04-08)"
   width="1440"
   height="560">
  <defs
     id="defs8">
    <linearGradient
       id="linearGradient2273"
       osb:paint="solid">
      <stop
         style="stop-color:#272640;stop-opacity:1;"
         offset="0"
         id="stop2271" />
    </linearGradient>
  </defs>
  <sodipodi:namedview
     id="base"
     bordercolor="#666666"
     inkscape:pageshadow="2"
     inkscape:guide-bbox="true"
     pagecolor="#ffffff"
     inkscape:zoom="0.63688715"
     inkscape:window-width="1920"
     showgrid="false"
     borderopacity="1.0"
     inkscape:current-layer="layer1"
     inkscape:cx="645.35323"
     inkscape:cy="264.08864"
     showguides="false"
     inkscape:window-y="25"
     inkscape:window-x="0"
     inkscape:window-height="1023"
     inkscape:pageopacity="0.0"
     inkscape:document-units="px"
     inkscape:window-maximized="1"
     inkscape:snap-page="true" />
  <g
     id="layer1"
     inkscape:label="Layer 1"
     inkscape:groupmode="layer"
     transform="translate(-78.289,-177.61)">
    <g
       id="g2293"
       transform="translate(435.0803,989.67504)">
      <rect
         y="-811.86017"
         x="-356.7912"
         height="560"
         width="1440"
         id="rect2285"
         style="opacity:1;fill:#006466;fill-opacity:1;fill-rule:nonzero;stroke:none;stroke-width:7.08400011;stroke-miterlimit:4.30000019;stroke-dasharray:none;stroke-opacity:1" />
      <path
         inkscape:connector-curvature="0"
         d="m -356.7912,-531.96262 v -279.89764 h 127.23157 c 69.97576,0 127.22865,0.42667 127.22865,0.95575 0,0.52907 -2.11083,4.74459 -4.65542,9.36973 -2.57347,4.64221 -3.70118,9.76229 -2.54455,11.41778 1.15663,1.6555 1.8795,6.99744 1.56144,11.87858 -0.57831,9.19907 -0.75182,9.01134 16.82887,17.15226 5.840965,2.71365 6.27469,3.54993 2.891566,5.64917 -2.168679,1.34827 -4.221677,3.99365 -4.568671,5.87102 -1.879517,10.95697 -7.142142,19.62696 -11.855395,19.62696 -1.18554,0 -5.11806,-1.21175 -8.7036,-2.71364 -3.61445,-1.48482 -8.47227,-2.28697 -10.78553,-1.75789 -2.31324,0.52907 -4.19276,0.27307 -4.19276,-0.54614 0,-0.81922 -2.45782,-1.10936 -5.49397,-0.64854 -6.91083,1.07521 -17.63851,-2.20165 -17.63851,-5.39316 0,-1.31415 -1.04095,-2.76484 -2.28432,-3.22564 -1.2723,-0.46081 -1.76387,1.79202 -1.12772,5.01766 0.83855,4.28381 2.57349,5.85396 6.44817,5.85396 2.92049,0 6.1012,0.76801 7.08435,1.7067 0.98311,0.93868 5.29154,1.74083 9.57105,1.75789 4.27951,0.0341 10.14939,1.12642 13.04095,2.40644 5.08913,2.28697 5.08913,2.4235 0,4.1814 -4.22169,1.46775 -3.35422,1.62135 4.2506,0.78508 7.22889,-0.80215 11.07467,-0.22188 15.903569,2.3723 3.527706,1.89443 9.22409,4.2838 12.66503,5.34196 19.893937,6.04168 2.399992,29.23563 -22.033679,29.23563 -6.88193,0 -21.59998,-4.0278 -30.44816,-8.31158 -5.34937,-2.57711 -5.46504,-2.57711 -2.02408,0.0682 3.1229,2.38937 2.89157,3.14032 -1.50361,4.64221 -4.56867,1.57016 -4.25059,1.79203 2.57349,1.84322 8.12528,0.0512 12.37589,2.09925 8.76143,4.21554 -1.15663,0.68267 -2.08193,1.94563 -2.08193,2.79898 0,0.87041 -0.66505,1.53603 -1.44577,1.48483 -0.80966,-0.0512 -6.24578,1.09228 -12.14456,2.54297 -7.05541,1.74082 -11.306,2.03096 -12.52045,0.87041 -1.01205,-0.97282 -4.01928,-1.34829 -6.65058,-0.85335 -3.15181,0.58028 -6.79518,-0.83627 -10.5253,-4.11314 -6.27468,-5.49553 -9.59997,-5.7686 -4.71324,-0.37546 2.42891,2.67951 2.08192,3.60113 -1.70602,4.45447 -2.63132,0.59733 -5.5518,0.49493 -6.47708,-0.256 -0.92532,-0.73388 -5.58072,-3.24272 -10.35179,-5.59796 l -8.64578,-4.24966 8.1542,5.32488 8.12528,5.32488 -8.12528,-0.85334 c -4.4819,-0.46081 -12.78069,-3.44754 -18.44814,-6.62197 -8.64578,-4.88115 -11.71083,-5.63209 -19.31563,-4.72755 -4.9735,0.58028 -9.71565,2.06509 -10.49637,3.27686 -1.12771,1.72375 0.26023,1.68962 6.33251,-0.18774 10.58313,-3.25978 10.87227,-3.20859 22.20719,3.6694 11.39276,6.92916 19.80719,8.68706 40.77101,8.51639 14.57345,-0.13654 14.71803,-0.0853 14.37105,4.98354 -0.37589,5.61502 -9.05059,9.35269 -21.8891,9.43802 -3.99036,0.0341 -9.07953,0.75095 -11.36385,1.58723 -2.66024,1.00694 0.57832,1.28001 9.16625,0.81922 13.24336,-0.73389 13.24336,-0.73389 9.88915,3.53284 -1.85062,2.35523 -4.97348,4.28381 -6.96868,4.28381 -2.28433,0.017 -3.61445,2.49177 -3.61445,6.65609 0,4.335 -1.50361,6.99745 -4.33735,7.62893 -2.39999,0.54614 -4.33732,2.7819 -4.33732,4.98354 0,2.20163 -2.05301,5.47849 -4.53975,7.30464 -2.51566,1.82617 -3.73012,2.35524 -2.74699,1.17763 2.39999,-2.78191 -7.69155,-2.85019 -12.37588,-0.0853 -2.68914,1.58722 -3.52771,1.31415 -3.70119,-1.28004 -0.20241,-2.69657 -0.89638,-2.45762 -3.6723,1.2459 -1.8795,2.50884 -7.11323,6.26356 -11.56623,8.32866 -11.6819,5.42729 -16.30839,15.25784 -7.17106,15.25784 1.5036,0 1.93735,-0.76802 0.9253,-1.72375 -3.09398,-2.95259 1.38794,-8.43108 6.04336,-7.37293 2.6024,0.58028 8.26985,-1.45069 14.37105,-5.13714 5.52289,-3.36219 11.82648,-5.71744 13.96624,-5.23955 5.17588,1.17762 12.89636,-3.49873 15.2096,-9.2332 1.01205,-2.50886 3.23854,-5.61503 4.94457,-6.89504 1.70602,-1.26296 4.45302,-3.95955 6.13011,-5.97343 1.6771,-1.99684 7.17105,-4.72755 12.20238,-6.0417 5.40723,-1.41656 9.88915,-4.07899 10.93011,-6.51957 2.71806,-6.41716 22.61199,-10.85457 45.31077,-10.12069 14.024051,0.44374 18.592705,1.22882 19.286693,3.31099 0.520474,1.58722 2.660237,2.33817 5.089145,1.77496 2.718069,-0.61441 3.672286,-0.11947 2.689153,1.38242 -1.040965,1.60429 1.185529,2.4235 7.199992,2.66245 14.110804,0.52908 17.378264,1.00694 17.378264,2.50883 0,0.78508 -2.284327,1.48483 -5.060229,1.57016 -2.775902,0.0853 -0.838552,0.87041 4.337341,1.7579 5.175894,0.88748 9.397587,2.3211 9.397587,3.20857 0,0.87041 1.734937,1.21176 3.874683,0.71682 2.139746,-0.47788 5.493954,0.29013 7.518052,1.7067 5.956613,4.24966 -1.821685,11.67376 -18.997553,18.21041 -10.207206,3.89126 -15.267451,6.9633 -15.209602,9.2332 0.08673,3.10617 0.289162,3.12325 2.139746,0.34134 1.127714,-1.68963 4.684335,-3.99366 7.893963,-5.12008 19.228882,-6.75851 24.549339,-9.19907 26.08188,-11.99805 1.590355,-2.9355 2.197578,-2.88431 9.368653,0.85336 6.072278,3.15738 6.592752,3.2427 2.602405,0.42667 -2.775902,-1.94563 -5.031312,-5.20542 -5.031312,-7.23639 v -3.70351 l 15.180702,3.3963 c 8.3566049,1.8603 16.4818801,4.35207 18.0722527,5.52968 1.5903387,1.19469 5.4939543,2.15045 8.6746655,2.15045 3.9903638,0 6.1011938,1.33121 6.7662488,4.26672 0.549391,2.35525 4.453006,6.31477 8.674683,8.80655 4.221676,2.50883 10.872277,8.15799 14.775876,12.57832 6.6795,7.57772 6.824081,8.29453 2.515656,12.74899 -2.891566,2.95259 -3.643353,5.58088 -2.08193,7.04864 3.816867,3.56699 3.151812,5.71742 -3.180712,10.0183 -3.180711,2.1675 -5.783116,6.07581 -5.783116,8.70411 0,2.98672 -2.399991,5.75156 -6.419271,7.40706 -6.708417,2.78191 -21.6867066,3.51579 -27.0649962,1.36535 -4.799983,-1.94563 -17.5517778,-17.27171 -23.0746658,-27.71669 -5.609619,-10.70095 -8.905995,-13.75593 -13.76381,-12.74899 -1.879517,0.37547 -10.322887,1.02401 -18.76624,1.43362 -8.47227,0.39255 -16.134903,1.17762 -17.08912,1.74083 -0.954217,0.54614 7.489153,0.66561 18.708408,0.23894 15.325267,-0.58028 20.790305,-0.2048 21.918019,1.51895 2.053014,3.14031 -3.238561,16.36719 -8.414454,21.04352 -2.342142,2.1163 -3.007214,3.84007 -1.532506,3.84007 2.342159,0 9.224056,-9.26735 12.491532,-16.77679 0.549391,-1.24588 4.626503,2.96965 9.050576,9.38681 12.49155,18.09093 12.954191,16.72558 -5.52287,17.25465 -18.737325,0.52908 -26.573438,-1.80909 -20.934903,-6.2465 2.949399,-2.3211 2.86265,-2.4235 -0.549407,-0.63148 -2.226495,1.17762 -7.055394,2.13338 -10.756596,2.13338 -4.655403,0 -9.513235,2.33816 -15.874674,7.68012 -9.281906,7.76546 -10.640932,8.2604 -21.137299,7.79959 -6.76625,-0.30721 -18.73731,5.68329 -18.73731,9.36975 0,4.21552 -19.8072,14.19968 -30.50597,15.39437 -5.49397,0.59733 -14.86262,0.64854 -20.81924,0.0853 -9.57106,-0.90455 -9.97587,-0.80214 -3.61443,0.81922 3.96143,1.00694 9.16624,2.0651 11.56623,2.33817 2.37109,0.27306 4.0482,1.26294 3.70119,2.2187 -0.72289,2.01389 10.09155,0.68267 12.4048,-1.53602 0.86746,-0.81923 4.33735,-1.5019 7.69155,-1.5019 3.32531,0 5.26264,-0.47787 4.27952,-1.05815 -2.71808,-1.60429 4.30843,-5.0518 12.95419,-6.33182 4.2506,-0.63149 8.55902,-2.67952 9.57107,-4.55687 1.01205,-1.87737 2.8048,-3.4134 3.99033,-3.4134 3.58555,0 12.144573,12.03219 10.091558,14.19968 -1.272277,1.33124 -0.607222,1.29709 1.995182,-0.13653 3.296376,-1.8091 3.122879,-2.9355 -1.012049,-7.08276 -7.113221,-7.11692 -6.216861,-9.6599 5.262642,-15.01891 5.609636,-2.61124 12.780694,-7.30464 15.932489,-10.4279 4.539755,-4.48861 7.286741,-5.54675 13.416851,-5.12008 9.946977,0.69974 11.566232,3.73766 3.151795,5.99049 -10.872261,2.93553 -28.250542,12.88554 -28.250542,16.19653 0,1.70669 -1.301194,3.10618 -2.89155,3.10618 -1.590355,0 -2.891566,0.87041 -2.891566,1.9115 0,1.33121 1.33011,1.26294 4.337341,-0.2048 2.371075,-1.16056 4.337324,-3.03792 4.337324,-4.14728 0,-2.4235 16.250585,-11.74204 25.272244,-14.47275 19.691541,-5.95636 69.339628,-4.88115 72.202278,1.57016 0.809636,1.80909 7.055394,3.48165 18.101168,4.81288 13.561414,1.65548 19.257782,3.46457 29.146927,9.2844 6.737332,3.9766 14.052989,9.71108 16.221659,12.76606 2.168661,3.05498 5.378298,5.54675 7.113235,5.54675 1.734935,0 2.428911,1.12643 1.532526,2.50885 -1.706022,2.61124 2.978307,5.42728 6.04336,3.61819 0.983132,-0.58027 -0.867466,-3.15738 -4.106015,-5.75156 -3.238547,-2.59417 -6.853001,-6.6049 -8.038538,-8.94308 -1.908425,-3.72058 -1.706026,-3.89126 1.763852,-1.43362 2.139755,1.53602 8.790346,3.70352 14.746959,4.82995 11.24817,2.09923 13.44576,4.64221 7.2289,8.3628 -2.89156,1.74082 -2.83373,2.06509 0.34699,1.62136 2.19758,-0.29015 4.56866,0.39252 5.29155,1.55307 1.73494,2.79899 -13.995147,11.38366 -16.481891,8.99428 -1.069876,-1.02401 -3.35421,0.10241 -5.291556,2.59418 -5.812036,7.54358 -3.816859,7.52652 10.236124,-0.1024 9.542153,-5.17129 13.763833,-8.84067 14.081903,-12.20285 0.34699,-3.94247 1.59036,-4.71049 7.08432,-4.33501 15.87467,1.09229 16.56864,8.92601 1.09879,12.3906 -9.74455,2.20163 -11.53732,6.02462 -5.98553,12.88553 5.52289,6.8609 2.31325,15.01889 -5.26264,13.29514 -3.20963,-0.73389 -3.96143,-0.23895 -2.66023,1.74083 0.98313,1.51895 0.43373,2.74776 -1.21446,2.74776 -1.64819,0 -3.58553,-1.34828 -4.30842,-2.98671 -1.06988,-2.4235 -1.38795,-2.3211 -1.64819,0.56322 -0.20241,1.96269 -3.7012,4.62513 -7.807217,5.92221 -8.934921,2.79898 -17.436116,9.48921 -20.096337,15.75278 -1.387959,3.25978 -0.231329,5.80275 4.134928,9.07958 7.113235,5.34197 7.836126,11.34952 1.734935,14.33624 -2.400007,1.17761 -4.337339,4.71047 -4.337339,7.85078 0,4.96648 1.532523,6.1953 11.566237,9.21614 6.361432,1.9115 11.566244,4.18141 11.566244,5.03476 0,1.3824 4.655409,3.10617 24.954169,9.21613 3.38312,1.00695 7.72046,4.42034 9.62889,7.54358 1.96627,3.20859 6.44819,6.36597 10.20721,7.21932 3.7012,0.81921 9.0795,3.85712 11.94215,6.72437 2.89156,2.88431 7.22889,5.63208 9.68673,6.12702 2.4289,0.51201 9.31082,5.15421 15.26743,10.35963 12.14455,10.54737 13.59033,17.35706 6.18794,28.84314 -2.42891,3.75473 -5.58072,9.52329 -6.99758,12.80014 -1.41686,3.29399 -5.81204,10.68396 -9.80239,16.43549 -7.72046,11.1618 -9.77348,19.55866 -6.3036,25.80515 3.73011,6.75852 6.6795,4.13023 6.93974,-6.1611 0.1735,-7.50951 2.48676,-12.73194 9.19517,-20.90696 4.94456,-6.00759 9.62889,-13.29521 10.40961,-16.21359 0.80964,-2.93559 4.68433,-10.59863 8.64577,-17.03284 l 7.19999,-11.70791 -5.95662,-4.30087 c -3.29638,-2.37231 -8.50119,-6.62197 -11.56624,-9.43801 -3.09397,-2.81605 -9.54215,-6.65611 -14.37106,-8.53347 -4.79999,-1.87736 -8.76142,-4.24966 -8.76142,-5.27369 0,-1.024 -4.56866,-4.30086 -10.12047,-7.28756 -5.5807,-2.98671 -10.12045,-6.62197 -10.12045,-8.07266 0,-3.78886 -5.0024,-6.2465 -23.82646,-11.65673 -9.13733,-2.62829 -15.90358,-5.44433 -15.06503,-6.24648 0.83855,-0.80216 -3.06506,-2.59417 -8.703598,-3.99366 -9.252992,-2.28698 -10.236125,-3.15739 -10.236125,-9.23322 0,-3.87418 1.821683,-7.59478 4.337343,-8.8236 2.371078,-1.16055 4.337339,-4.35206 4.337339,-7.08277 0,-2.85017 -1.850599,-5.39315 -4.337339,-5.95635 -6.477096,-1.46776 -5.320473,-10.64978 2.168669,-17.15228 3.585536,-3.10616 8.212031,-5.27366 10.265041,-4.81286 2.08192,0.46081 2.97831,0.0684 1.99518,-0.85335 -0.95422,-0.9216 0.86746,-1.68962 4.04818,-1.68962 7.72047,0 20.41442,-10.06948 22.55417,-17.90321 1.33012,-4.84702 2.86265,-6.09289 6.73734,-5.49555 3.67228,0.58028 4.6265,-0.0342 3.64337,-2.28698 -2.13976,-4.81286 14.13972,-9.11374 26.05295,-6.87796 5.11806,0.95575 12.52045,2.09923 16.51081,2.56004 3.96144,0.46081 9.4554,1.84322 12.20238,3.05498 7.98071,3.54992 1.96627,15.1213 -12.46262,23.8937 -10.49637,6.38303 -30.53487,28.10922 -27.55656,29.88419 1.47468,0.85334 10.43852,-6.91212 17.812,-15.44557 7.57589,-8.75532 30.24572,-24.23504 35.07463,-23.94489 2.11084,0.13652 3.84577,-1.05816 3.84577,-2.64538 0,-3.85713 5.5518,-6.92918 10.46745,-5.80276 2.19759,0.49494 3.99036,0.0512 3.99036,-0.98988 0,-1.04108 -1.3012,-1.89443 -2.89156,-1.89443 -4.82891,0 -3.23855,-7.83372 2.16867,-10.56443 6.99758,-3.53286 19.22888,-1.50189 20.44333,3.37925 0.49157,2.08216 2.08193,3.77179 3.49879,3.77179 1.44578,0 7.51806,2.47471 13.53251,5.51262 10.55419,5.30781 8.03853,2.83311 -6.39035,-6.28063 -25.64815,-16.2136 -27.46983,-18.22751 -20.87707,-23.24518 4.59758,-3.51579 27.15175,-6.82676 34.98788,-5.13715 3.35421,0.7168 10.66986,0.54614 16.25057,-0.37547 9.80239,-1.65549 9.88914,-1.74083 2.89156,-2.90139 -3.99035,-0.64854 -8.47227,-0.52907 -9.97588,0.25602 -3.7012,1.94562 -8.12529,1.84323 -6.07228,-0.13654 0.9253,-0.87042 -0.9253,-2.0651 -4.10601,-2.66244 -3.15181,-0.59734 -5.46505,-1.99684 -5.08915,-3.10619 1.21445,-3.70351 22.52525,-14.57515 30.44813,-15.54797 13.44575,-1.65549 41.34932,-0.0341 44.47221,2.57711 2.16866,1.82616 2.51566,1.46775 1.44578,-1.43362 -1.04096,-2.76484 -0.0867,-3.85713 3.35421,-3.89127 4.22168,-0.0512 4.27951,-0.30721 0.46265,-2.13336 -2.4,-1.14349 -4.74215,-5.05181 -5.23373,-8.67001 -0.80963,-6.14409 0.5494,-7.47531 19.51805,-19.02961 15.84574,-9.64282 20.50113,-13.60235 20.76139,-17.71548 0.43372,-6.14409 0.46265,-6.22942 5.06022,-12.98793 1.93735,-2.81604 5.5518,-8.34572 8.06746,-12.28818 2.48673,-3.94246 6.8819,-8.43108 9.77347,-9.95003 5.40722,-2.90137 7.43131,-2.40644 57.36857,13.773 4.68431,1.51896 9.1084,1.74084 13.73491,0.69976 3.9036,-0.87041 6.85299,-0.88748 6.85299,-0.0342 0,0.83628 2.80482,1.07521 6.24576,0.54614 4.25061,-0.66562 5.58072,-0.34135 4.16386,1.00695 -1.33012,1.26295 0.1157,1.97976 3.8747,1.97976 3.52769,0 5.95662,1.10935 5.95662,2.74777 0,1.7067 1.59035,2.37231 4.25059,1.77497 5.43612,-1.22882 13.93731,3.68646 11.85539,6.87797 -0.86747,1.34829 -0.31806,1.9627 1.27228,1.38242 1.56146,-0.56321 2.86265,-0.1536 2.86265,0.93868 0,1.07522 -2.6024,2.35524 -5.78312,2.85018 -8.76143,1.34829 -6.91083,3.54992 2.16867,2.61124 6.506,-0.68268 7.28674,-0.42668 4.33736,1.43362 -1.99519,1.22882 -3.61446,3.68646 -3.61446,5.42729 0,1.74083 -1.30121,2.69657 -2.89157,2.11629 -1.70602,-0.61441 -2.92046,1.28002 -2.97831,4.591 -0.17348,9.67696 -9.71565,14.18261 -20.06743,9.48923 -2.60241,-1.17763 -1.73492,-0.44375 1.90845,1.62135 7.80719,4.40326 6.18792,5.32488 -14.89155,8.43106 l -14.57348,2.13335 15.20962,-0.2048 c 10.66985,-0.1536 16.59755,-1.14347 19.95177,-3.31098 3.9036,-2.56004 5.58071,-2.73071 9.36864,-0.98987 3.99036,1.84322 4.13495,1.75789 1.01207,-0.59736 -2.94939,-2.25283 -2.57351,-3.25978 2.16868,-5.80273 3.18069,-1.7067 5.78311,-3.70353 5.78311,-4.4374 0,-1.72376 16.79996,-16.50372 20.15417,-17.71548 1.35902,-0.49495 5.92771,-0.13654 10.09156,0.80214 6.88189,1.53602 7.4313,2.3211 5.86984,8.1068 -0.9542,3.53284 -2.28432,8.34573 -2.92046,10.68388 -0.98312,3.65234 -0.54941,3.48166 2.92046,-1.05814 3.73012,-4.86407 12.05783,-8.61879 15.09396,-6.82678 0.69397,0.39255 -0.0867,3.68646 -1.73494,7.2876 -1.64819,3.61819 -3.75902,9.54039 -4.74215,13.15858 -1.24338,4.65928 -3.44096,6.8609 -7.57589,7.49238 -3.20964,0.49495 -4.74216,1.36535 -3.44095,1.94563 1.33011,0.58028 3.84576,2.57711 5.5807,4.45448 1.73494,1.87737 7.86505,4.76168 13.64818,6.4001 5.7831,1.62136 12.4337,5.17128 14.77586,7.86785 4.04818,4.60807 3.93253,4.96649 -2.08193,6.41716 -3.49877,0.85336 -10.5831,1.29709 -15.75899,0.98989 -7.72049,-0.46081 -9.39759,-1.28002 -9.39759,-4.62513 0,-2.23577 -3.41202,-6.21237 -7.54697,-8.84068 -7.08431,-4.4886 -7.28672,-4.52273 -3.35421,-0.52907 2.31326,2.35524 5.06025,6.57077 6.13011,9.38681 1.44579,3.82299 0.20242,3.05498 -4.91564,-3.00378 -5.69639,-6.74144 -6.47711,-9.35267 -4.51084,-15.36024 3.35421,-10.1719 2.92046,-15.44557 -0.72289,-8.94308 -1.59036,2.81605 -2.97832,6.10997 -3.1229,7.30465 -0.52047,4.23261 -6.53492,0.83628 -6.41927,-3.63526 0.0579,-2.49176 -0.92528,-4.52273 -2.16866,-4.52273 -1.27228,0 -2.28433,1.53602 -2.28433,3.41337 0,2.37232 -1.99518,3.44754 -6.506,3.53287 -6.21686,0.11947 -6.24577,0.18774 -0.72289,1.58722 3.18071,0.80216 4.85782,1.51897 3.7301,1.58724 -1.09879,0.0683 0.9253,1.86029 4.53976,3.99366 5.46505,3.22565 6.53492,5.61501 6.30359,14.08021 -0.23133,7.76547 -1.3012,10.20602 -4.53976,10.20602 -2.34214,0 -5.20479,0.76802 -6.39033,1.7067 -1.27228,1.02401 -2.13975,0.76801 -2.16867,-0.63148 -0.029,-1.87735 -0.89638,-1.92856 -4.30842,-0.25599 -3.23856,1.58721 -6.50601,1.63842 -13.44577,0.22187 -5.03131,-1.0411 -13.1855,-1.79204 -18.13007,-1.67257 l -8.96386,0.22187 10.12046,1.26295 c 8.79036,1.09228 7.83615,1.28002 -7.40239,1.48484 -10.38068,0.13652 -19.80719,1.24587 -23.13246,2.7307 -3.09398,1.38242 -4.07711,2.5259 -2.22651,2.56004 2.34216,0.0341 1.61927,3.03791 -2.31325,9.64282 -3.12289,5.27367 -5.00239,9.98414 -4.16386,10.47909 0.83856,0.49494 2.3711,-0.54615 3.41204,-2.33818 1.04097,-1.77496 4.2506,-6.48543 7.14216,-10.47909 l 5.23375,-7.25345 h 20.55897 c 12.54938,0 19.89396,0.64855 18.85299,1.6555 -0.95423,0.90455 3.84578,0.15361 10.66985,-1.67256 14.97827,-4.01072 23.47947,-4.26673 28.30837,-0.83629 1.96627,1.41656 4.88675,2.56006 6.44819,2.56006 1.59036,0 -0.1157,-1.41656 -3.73012,-3.15738 l -6.59275,-3.15739 7.72046,-1.14349 c 4.2506,-0.63148 7.72047,-1.89442 7.72047,-2.81605 0,-0.9216 4.59759,-1.67254 10.20721,-1.67254 9.22409,0 9.94696,0.32427 7.22889,3.31097 -3.84577,4.24966 -3.73009,7.01452 0.14449,3.08912 3.41204,-3.44751 11.50842,-3.90832 16.53973,-0.93869 6.15901,3.63527 3.70119,10.80338 -6.6506,19.4051 -5.5807,4.62514 -10.12046,10.0695 -10.12046,12.10045 0,2.04804 7.31564,8.96015 16.25057,15.37732 23.39273,16.79384 26.16863,20.78751 21.65779,31.16418 -2.053,4.79582 -2.83373,11.57139 -1.76385,15.76986 1.64819,6.62197 0.9253,8.00438 -7.02648,13.24393 -8.21204,5.41022 -8.87709,6.79265 -8.87709,18.44935 0,9.13081 1.64818,14.72877 6.04336,20.41206 4.42407,5.73448 5.52287,9.50627 4.10601,13.99488 -2.68915,8.414 -2.68915,18.41522 -0.0579,26.98285 1.59038,5.17125 0.89639,9.11372 -2.48674,14.11433 -2.89156,4.23257 -4.71323,11.8956 -4.71323,19.69522 0,13.79008 5.14696,19.5928 17.34937,19.5928 5.34939,0 5.78309,-1.14347 5.78309,-15.053 0,-9.55743 1.76387,-18.09095 4.8,-23.36463 4.13493,-7.15104 4.30843,-9.74519 1.27228,-18.43228 -2.8048,-8.02146 -2.8048,-11.82739 0.0579,-18.43228 3.26747,-7.52652 3.03614,-9.18201 -2.68914,-17.32294 -6.70842,-9.52334 -8.8771,-29.15032 -3.44096,-31.13007 1.59034,-0.58029 2.9783,0.7168 3.09398,2.8843 0.2024,3.68645 0.34698,3.7206 2.48673,0.52907 1.27227,-1.87734 1.76385,-4.23259 1.12771,-5.22248 -0.60724,-1.00693 0.86747,-4.07899 3.29639,-6.82677 2.42888,-2.76483 4.42408,-6.79263 4.42408,-8.96013 0.029,-2.18457 1.38794,-5.46142 3.06504,-7.30465 5.34939,-5.90515 -1.30121,-26.53907 -11.19034,-34.66293 -4.68432,-3.84004 -8.79034,-7.76545 -9.13732,-8.70411 -0.34698,-0.9387 -1.53252,-1.57017 -2.60241,-1.3995 -2.11084,0.32427 -13.41685,-8.87481 -16.13492,-13.12447 -1.706,-2.64538 24.54936,-26.79509 28.25055,-26.01 1.09879,0.23894 6.59277,0.42668 12.2024,0.42668 h 10.17829 l -4.39517,5.03474 c -6.27469,7.13398 -5.46504,8.80652 1.12771,2.40643 6.56384,-6.36595 11.79756,-8.63586 11.79756,-5.12007 0,3.44752 5.66747,4.30086 15.41202,2.32109 5.92769,-1.19468 9.07951,-1.05814 11.56623,0.51201 2.63134,1.70671 2.48676,1.87737 -0.69397,0.80215 -2.8048,-0.93867 -3.38313,-0.7168 -1.85059,0.7168 1.18553,1.16056 3.96143,1.68964 6.1301,1.19469 2.16868,-0.49493 4.8289,-0.0342 5.92769,1.00696 1.33013,1.24589 0.60724,1.41656 -2.08191,0.47787 -2.22649,-0.76801 -1.56144,0.256 1.44578,2.30404 3.03614,2.03096 6.93976,3.68645 8.67468,3.68645 2.13976,-0.017 2.19759,-0.44374 0.20241,-1.28002 -3.06506,-1.28002 -3.99035,-5.27368 -1.35903,-5.83688 0.78072,-0.17068 4.68432,0.25599 8.67467,0.95574 6.85301,1.19467 6.93976,1.33122 1.44579,2.74778 -4.68433,1.21175 -4.85781,1.50189 -0.9253,1.60429 6.506,0.1536 8.99276,5.4102 5.32048,11.12764 -3.49879,5.42728 -1.79277,7.76545 5.66745,7.76545 2.9494,0 6.01444,0.95575 6.82408,2.13337 0.98313,1.43361 1.53252,1.48481 1.6771,0.15359 0.1445,-1.14348 2.92048,-1.60428 6.73733,-1.07521 l 6.50603,0.88748 -6.50603,-2.85018 c -4.07709,-1.79203 -6.506,-4.65927 -6.506,-7.68012 0,-8.414 -7.40239,-16.07704 -19.05538,-19.72936 -8.50119,-2.66245 -11.88431,-5.15423 -15.44094,-11.43484 -2.48674,-4.42033 -8.87709,-10.66684 -14.16863,-13.87542 -9.39757,-5.71743 -9.6289,-6.1953 -10.12048,-21.84568 -0.69397,-22.63073 3.61446,-27.22174 34.20716,-36.45495 19.60479,-5.92223 23.65297,-7.88492 26.45779,-12.88552 1.8506,-3.24273 2.66024,-8.02148 1.82168,-10.59858 -1.04096,-3.19151 -0.31807,-4.69341 2.25541,-4.69341 2.28433,0 1.21447,-1.43361 -2.68915,-3.56699 -8.93493,-4.91526 -6.91083,-8.24332 8.21202,-13.4658 7.11326,-2.45763 15.46985,-7.01451 18.53492,-10.13774 5.11807,-5.15422 5.29155,-6.58785 1.99518,-16.38428 -4.0482,-12.04925 -1.27228,-17.88614 8.55902,-17.88614 3.15179,0 5.69636,-0.75095 5.69636,-1.65548 0,-0.90456 2.16868,-1.16057 4.8,-0.56321 2.74697,0.63147 4.0771,0.39253 3.12288,-0.54615 -0.95421,-0.88747 0.46266,-1.70669 3.1229,-1.82616 2.66022,-0.1024 7.54697,-0.69975 10.84334,-1.33122 4.91567,-0.93867 6.88193,0.0512 11.19036,5.70035 3.58552,4.69341 4.59757,8.60173 3.23854,12.49299 -1.06988,3.10618 -2.31326,7.57774 -2.74698,9.9159 -1.38796,7.56065 -5.43614,14.40449 -11.04578,18.77362 -9.48432,7.37291 -19.54694,17.06693 -17.69634,17.06693 0.95422,0 3.46987,-1.34829 5.55179,-2.98672 3.38314,-2.66243 3.58553,-2.54296 1.96628,1.28004 -2.11085,4.98353 -18.13009,18.60294 -18.13009,15.42849 0,-1.17761 -1.79276,-1.74083 -3.99036,-1.22881 -2.1976,0.49494 -5.43614,0.0341 -7.22891,-1.02402 -2.39999,-1.41656 -3.23852,-1.39948 -3.23852,0.0342 0,1.07522 1.12769,2.37231 2.54455,2.86724 1.38796,0.51201 3.96143,4.21553 5.69639,8.20919 2.89155,6.70731 4.56865,7.68012 20.99271,12.15166 13.04094,3.56699 16.77105,5.29075 13.82166,6.38303 -3.26746,1.22883 -3.12288,1.50189 0.72289,1.53603 2.66024,0 5.5518,1.92855 6.59277,4.335 1.01203,2.37229 6.01444,5.8198 11.16142,7.66303 5.11806,1.84323 9.31082,4.06194 9.31082,4.93236 0,3.46458 13.12769,11.74205 23.07465,14.52396 7.83613,2.20163 10.3807,3.90832 9.91806,6.67317 -0.31808,2.03096 0.23132,5.05181 1.27228,6.69023 4.59757,7.30466 4.65542,8.82361 0.52049,12.5442 -5.75422,5.18835 -1.21446,11.46897 10.7566,14.88235 l 8.61685,2.47471 -5.78312,3.41339 c -3.18071,1.87736 -7.86506,4.11313 -10.40962,4.94941 -6.21686,2.04803 -1.61927,12.13458 7.98071,17.4424 4.13492,2.32111 6.36143,5.08594 5.52287,6.9633 -0.9253,2.06511 0.5205,3.49874 4.27951,4.19847 11.59517,2.1675 15.09396,6.38301 11.73975,14.18261 -2.1976,5.08594 -2.16868,8.67 0.0867,12.49298 2.2265,3.77181 2.25541,6.34891 0.1157,8.72121 -4.65542,5.13715 -8.03856,20.53151 -5.37831,24.40571 1.87952,2.74777 2.48674,2.03097 2.89157,-3.36219 0.28916,-3.75472 0.28916,-7.90198 -0.029,-9.21613 -0.31808,-1.31416 1.53253,-5.61503 4.0771,-9.57455 3.49879,-5.42728 3.93251,-8.31159 1.6771,-11.77618 -1.99516,-3.12325 -1.99516,-7.08278 0.0579,-12.51006 2.9205,-7.68011 2.747,-8.02144 -5.7831,-11.98098 -5.52287,-2.54296 -8.81925,-5.61502 -8.81925,-8.20919 0,-2.28697 -1.27231,-4.14727 -2.83375,-4.14727 -3.67227,0 -10.46745,-6.48543 -12.66503,-12.10045 -1.38794,-3.51578 -0.28916,-4.88113 5.29156,-6.63903 11.21924,-3.54992 11.27707,-6.7585 0.14449,-13.14154 -10.66986,-6.10997 -12.14455,-8.158 -7.19999,-9.96708 3.00723,-1.09228 3.15181,-12.237 0.2024,-15.32611 -0.92528,-0.93867 -1.67709,-3.75472 -1.706,-6.28063 -0.029,-4.36913 0.20239,-4.45447 5.66746,-1.70669 5.52287,2.79898 5.55177,2.76484 1.18553,-1.29709 -2.45782,-2.30403 -8.26985,-4.8982 -12.92529,-5.76862 -9.97588,-1.89444 -21.42646,-7.66305 -21.42646,-10.82044 0,-1.22882 -5.03131,-4.11313 -11.19034,-6.41717 -12.89634,-4.79579 -17.37826,-12.27112 -9.48432,-15.76982 4.16386,-1.84323 3.93254,-1.99684 -1.82166,-1.1435 -4.07712,0.61441 -11.5084,-0.56321 -19.51803,-3.05498 -12.57832,-3.94245 -15.93251,-7.03157 -10.03373,-9.18201 1.59036,-0.58027 2.89157,-2.23576 2.89157,-3.66938 0,-1.45069 2.51566,-4.71048 5.5807,-7.27052 3.09396,-2.54297 6.27469,-6.50249 7.08433,-8.78946 9.05057,-25.19079 12.78069,-31.72743 20.7614,-36.45497 2.51566,-1.48482 3.23855,-2.69657 1.61928,-2.69657 -1.61928,0 -4.39518,1.34829 -6.15903,2.98671 -2.45782,2.2699 -2.68915,0.73388 -0.98312,-6.4001 1.21443,-5.15422 2.11083,-12.71487 1.96625,-16.7768 -0.23133,-7.13397 0,-7.33877 7.34456,-6.26356 8.64578,1.28002 17.75417,5.59795 17.66744,8.37986 -0.0579,1.02402 -2.63132,3.78886 -5.7253,6.12703 -3.12288,2.35524 -5.69637,4.93235 -5.72527,5.73449 -0.0288,0.80214 2.42891,-0.34134 5.46504,-2.56004 3.06505,-2.2187 5.98553,-3.63526 6.50601,-3.17445 0.5494,0.47788 5.11806,5.46142 10.14939,11.09352 10.75659,12.01511 13.76381,27.64841 6.27467,32.80263 -2.42891,1.67256 -7.37347,7.83372 -10.98793,13.70475 -3.64335,5.87102 -7.83613,10.66683 -9.31082,10.66683 -1.5036,0 -1.90843,0.78508 -0.89638,1.74083 0.98313,0.95575 2.94938,1.31415 4.30842,0.8192 1.35903,-0.49493 7.31564,1.02402 13.21442,3.37926 5.89878,2.3723 11.79758,4.30086 13.12771,4.30086 1.33009,0 4.48192,2.33818 6.96864,5.18835 5.37831,6.16117 20.15419,11.89565 30.30356,11.79325 5.78312,-0.0512 4.91566,-0.54614 -4.33734,-2.47471 -10.26504,-2.15044 -24.52042,-9.81348 -24.57826,-13.19274 0,-0.68267 -4.97348,-2.7307 -11.04577,-4.57393 -18.67948,-5.61502 -19.43128,-7.09983 -9.07948,-17.93734 5.00238,-5.23954 10.32286,-9.0796 11.79756,-8.55053 5.11805,1.87737 -0.34701,-26.69269 -6.44818,-33.75839 -3.18073,-3.68646 -6.30361,-9.09668 -6.93975,-12.01512 -1.15663,-5.49557 8.84818,-21.76035 13.38793,-21.76035 1.38795,0 2.54456,-1.75789 2.54456,-3.92539 0,-2.15044 1.21446,-4.65927 2.66025,-5.54675 1.47468,-0.88747 6.85298,-8.90892 11.97106,-17.83494 5.08913,-8.90894 10.20721,-16.58905 11.33492,-17.06693 1.15663,-0.4608 3.61444,-2.57711 5.49396,-4.6934 2.66023,-2.95259 5.98553,-3.84006 14.39996,-3.84006 16.2795,0 24.60719,6.53662 27.55659,21.65793 0.40481,2.04803 2.11083,4.72755 3.78793,5.97342 6.33253,4.65928 7.08433,9.60869 1.70602,11.45192 -4.33734,1.48482 -4.42409,1.77495 -0.5783,1.82616 2.54457,0.0341 6.96866,1.58722 9.86021,3.46459 2.86265,1.87736 6.96866,3.41338 9.10841,3.41338 2.13976,0 3.90361,0.768 3.90361,1.7067 0,0.93868 1.3012,1.70669 2.89157,1.70669 1.59036,0 2.89157,-1.07522 2.89157,-2.37231 0,-3.05498 6.3325,-4.45446 20.03851,-4.45446 22.09151,0 32.12521,4.64219 51.32521,23.65476 0.3181,0.34134 6.7663,-0.61441 14.2843,-2.13337 7.547,-1.5019 14.7759,-2.74777 16.0771,-2.74777 1.3012,0 2.3711,95.23348 2.3711,211.62993 v 211.62993 H 363.21028 -356.7883 Z m 983.07275,150.18897 -2.02408,-9.38682 -0.40483,8.67 c -0.23133,4.77874 0.46265,9.19909 1.53253,9.81349 2.97829,1.77496 3.06504,0.95575 0.89638,-9.09667 z m 278.97777,-64.97381 c -2.48674,-2.3723 -4.2217,-1.92855 -4.2217,1.07522 0,1.46776 1.33013,2.18457 2.9494,1.58724 1.59036,-0.58028 2.16866,-1.79204 1.2723,-2.66246 z M 98.629589,-482.46852 c -0.98313,-0.93869 -2.371081,-1.70669 -3.065053,-1.70669 -0.693977,0 -1.272288,0.768 -1.272288,1.70669 0,0.93868 1.387949,1.70669 3.065055,1.70669 1.677104,0 2.255415,-0.76801 1.272286,-1.70669 z m 451.979811,-86.2392 c -0.89637,-0.51201 -2.51564,0.42667 -3.61444,2.11629 -1.56144,2.42351 -1.21446,2.62832 1.61928,0.95575 1.99516,-1.16056 2.86263,-2.54296 1.99516,-3.07204 z m -7.74938,-7.20224 c 3.58555,-2.71365 3.49879,-2.76484 -1.0988,-0.64855 -2.77588,1.29709 -5.06021,2.64539 -5.06021,2.98672 0,1.41656 2.37107,0.51201 6.15901,-2.33817 z m -806.9767,-97.28151 9.97588,-6.40009 -11.53733,5.97342 c -6.33251,3.29392 -12.08673,6.16116 -12.78068,6.4001 -0.66507,0.23893 0.0288,0.42667 1.59035,0.42667 1.53251,0 7.28674,-2.88431 12.75178,-6.4001 z m 111.1805,-15.7869 c -0.98313,-0.9387 -3.32529,-1.68964 -5.23372,-1.67257 -2.08192,0.017 -1.70602,0.68268 0.89638,1.67257 5.55179,2.11628 6.56384,2.11628 4.33734,0 z m 785.05868,257.71062 c 0,-3.10618 1.18555,-4.88113 2.89157,-4.26673 1.59035,0.58028 2.89156,2.50884 2.89156,4.26673 0,1.77496 -1.30121,3.68646 -2.89156,4.26674 -1.70602,0.6144 -2.89157,-1.16056 -2.89157,-4.26674 z m 87.87452,-52.19065 c 0.98313,-1.48483 1.76385,-3.44752 1.76385,-4.36914 0,-0.92161 1.30121,-1.19469 2.89157,-0.61441 4.71323,1.72376 3.35421,7.68012 -1.76385,7.68012 -3.03615,0 -4.0482,-0.92161 -2.89157,-2.69657 z m -521.69535,-12.76606 c -2.34216,-0.88748 -9.42648,-2.44058 -15.759,-3.48166 -10.35179,-1.68963 -10.98793,-2.08217 -6.33252,-4.09606 7.83613,-3.37926 24.83851,-4.79581 29.6385,-2.45764 8.55902,4.21553 1.59035,13.51701 -7.54698,10.03536 z m -43.28666,-12.57834 c 0,-2.44057 -2.11084,-4.57394 -5.06022,-5.17127 -2.7759,-0.54614 -7.37348,-2.88432 -10.20721,-5.18836 l -5.14698,-4.19846 10.9301,0.0683 c 6.01445,0.0341 19.11321,-0.0683 29.11802,-0.23893 13.99514,-0.22187 19.54694,0.42667 23.97102,2.7819 5.69638,3.05499 5.69638,3.10618 -2.31324,6.92917 -4.42409,2.13337 -11.59516,4.35208 -15.96142,4.94942 -4.36625,0.58027 -8.64576,1.77495 -9.57106,2.64536 -0.89639,0.87042 -4.82891,1.57017 -8.70359,1.57017 -5.5518,0 -7.05542,-0.88748 -7.05542,-4.14727 z m 506.83272,-1.43362 c -1.64819,-2.09923 -4.42409,-5.71742 -6.15901,-8.07265 l -3.18071,-4.26673 1.67711,4.69341 c 1.35902,3.77178 0.63613,4.72754 -3.67231,4.82993 -2.94936,0.0683 -7.89394,0.4096 -10.98792,0.75094 -9.77347,1.07521 -10.4096,-0.85333 -2.60239,-7.81666 6.39034,-5.70034 8.24094,-6.41716 11.99997,-4.60805 3.78794,1.84323 4.19276,1.60429 2.80482,-1.58724 -1.0699,-2.45763 0.28915,-4.77873 3.99033,-6.74144 5.34941,-2.86724 6.04336,-2.86724 15.23854,0.0512 10.81443,3.44752 14.94937,7.50946 17.11803,16.75973 1.56144,6.6561 1.73494,6.55369 -15.73007,8.84067 -5.86988,0.75095 -8.15421,0.13654 -10.49639,-2.83312 z m -185.08878,-5.68328 c 0.95422,-0.58028 3.46987,-0.63149 5.55179,-0.13653 2.28434,0.54614 1.61929,0.93866 -1.76384,1.024 -3.03614,0.0853 -4.74215,-0.32427 -3.78795,-0.88747 z m -276.23078,-6.46838 c -6.01444,-2.83311 -7.14215,-4.23259 -4.62649,-5.71741 2.39999,-1.41656 -0.63615,-1.36536 -10.81444,0.20479 -16.10598,2.47471 -52.53965,2.6454 -58.87216,0.29015 -2.31325,-0.87042 -7.37348,-1.77496 -11.27709,-2.01389 -8.76143,-0.56322 -8.61685,-0.46082 -20.645742,-15.99172 -5.436134,-7.03158 -12.867445,-15.24078 -16.510806,-18.22749 -8.645767,-7.08278 -8.356622,-8.75532 1.33012,-7.86786 7.778291,0.69976 7.749375,0.66562 -1.387953,-2.15042 -13.41685,-4.1302 -15.151786,-11.46898 -5.407222,-22.95502 5.262641,-6.17822 7.518062,-11.52018 7.518062,-17.852 0,-7.93614 0.809631,-9.18201 6.448176,-10.05242 3.701198,-0.56321 9.455404,0.17065 13.532503,1.75789 l 7.084322,2.74776 -6.62167,3.15739 c -6.679507,3.20858 -5.031317,4.38621 2.31325,1.63843 4.59758,-1.70669 14.8337,3.46458 14.8337,7.50944 0,1.41656 1.41687,2.37231 3.1518,2.13337 3.84578,-0.51201 7.4024,2.96965 10.0048,9.81348 1.70602,4.42034 2.25542,4.67634 4.04819,1.79203 1.79277,-2.86724 2.54457,-2.50883 5.52288,2.52591 1.90843,3.22565 7.57588,8.37986 12.6072,11.43485 5.06022,3.07203 7.83612,5.58087 6.15903,5.58087 -1.64819,0 -8.29879,3.07206 -14.77588,6.82677 -6.50601,3.75473 -10.20721,6.82678 -8.24094,6.82678 1.96626,0 6.44818,-2.30404 9.97588,-5.12008 8.90601,-7.09985 22.35175,-7.23638 24.95416,-0.25601 0.98313,2.69657 5.89878,6.58783 11.04576,8.75533 l 9.28191,3.89127 -7.7783,-4.76169 -7.74938,-4.77874 13.04094,-4.07898 c 11.01684,-3.46458 13.76382,-3.75472 17.86984,-1.86031 4.30843,1.97978 4.42409,1.91151 1.09879,-0.59733 -3.18071,-2.40643 -2.77589,-3.24271 2.80482,-5.54674 6.73733,-2.78192 18.33249,-3.78885 15.78792,-1.36536 -0.78072,0.73389 1.93734,1.50189 6.04336,1.7067 4.10602,0.2048 8.99275,1.12641 10.90118,2.04803 1.90843,0.93867 4.19277,1.26294 5.11807,0.7168 0.89638,-0.52906 3.81686,1.74083 6.50601,5.05181 6.76625,8.414 11.73974,10.35963 25.56139,9.96708 l 11.99998,-0.34133 -14.05298,3.44751 c -10.29396,2.52591 -15.09395,2.96965 -17.84093,1.62136 -2.60241,-1.28001 -4.30843,-1.29709 -5.60963,-0.0512 -1.04096,0.98989 -0.49157,1.79203 1.18554,1.79203 1.67711,0 3.06505,0.76801 3.06505,1.7067 0,0.93868 -1.96626,1.7067 -4.33734,1.7067 -2.39999,0 -4.01927,0.85334 -3.61445,1.89442 0.40482,1.05815 -4.10601,3.54992 -10.03371,5.54675 -5.9277,2.0139 -14.57347,7.20224 -19.22888,11.55431 -4.68433,4.35208 -9.59998,8.3116 -10.9301,8.80654 -1.35903,0.47787 -6.04336,-0.80215 -10.43854,-2.86725 z m 51.35412,-33.46826 c -0.98313,-0.93867 -3.32529,-1.68961 -5.23372,-1.67255 -2.08193,0.017 -1.70602,0.68268 0.89638,1.67255 5.5518,2.11631 6.56384,2.11631 4.33734,0 z m -163.373163,30.77169 c 0,-0.90454 1.937346,-1.21175 4.337341,-0.66561 2.371079,0.54615 4.337341,1.28002 4.337341,1.65551 0,0.3584 -1.966262,0.6656 -4.337341,0.6656 -2.399995,0 -4.337341,-0.75094 -4.337341,-1.6555 z m 452.587053,-1.70669 c -1.12771,-1.07521 -1.12771,-4.01072 0.029,-6.5537 l 2.08193,-4.591 2.86263,4.84702 c 3.03615,5.13712 -0.9253,10.17187 -4.97348,6.29768 z m -657.33846,-6.4513 c 4.07709,-5.76862 12.9542,-10.66683 19.286728,-10.64976 3.209627,0 1.272277,1.89442 -6.101208,5.87102 -5.95662,3.24272 -10.84335,6.69024 -10.84335,7.68012 0,0.98988 -1.27228,1.79203 -2.83373,1.79203 -1.73494,0 -1.53253,-1.82616 0.49156,-4.69341 z m 706.95763,-2.28697 c -4.27951,-3.84005 -7.74938,-7.64598 -7.74938,-8.48226 0,-0.81921 -1.85058,-1.07521 -4.10601,-0.5632 -4.33734,0.98987 -17.66743,-2.42351 -15.1807,-3.8742 0.78072,-0.47787 4.48192,0.0341 8.18312,1.10935 l 6.76625,1.94563 -6.91083,-3.27685 c -5.5807,-2.66245 -6.53492,-4.24967 -4.94456,-8.22627 1.09878,-2.71364 3.55662,-9.91589 5.49397,-16.02584 l 3.46987,-11.09349 13.1855,-0.51201 c 14.92046,-0.56321 27.49874,1.67255 28.36621,5.0518 0.347,1.26295 0.95422,7.06571 1.38796,12.91966 0.43373,5.83688 1.6771,11.16177 2.77589,11.81031 1.09879,0.63147 1.99518,0.11947 1.99518,-1.14348 0,-1.50189 1.5036,-1.16056 4.25061,0.98988 6.62166,5.17129 5.55177,14.93357 -2.08193,18.91017 -6.27469,3.25978 -20.26985,7.44118 -24.92525,7.44118 -1.24338,0 -5.7253,-3.14032 -9.9759,-6.98038 z M 82.726006,-537.1339 c -3.759025,-1.48481 -3.614444,-2.04803 1.156624,-4.19846 6.361433,-2.86725 9.108417,-2.25284 11.24817,2.5259 1.677106,3.80592 -4.771074,4.67634 -12.404794,1.67256 z m -30.361389,-5.78569 c -13.705995,-4.45447 -15.874657,-9.18202 -7.431304,-16.17946 3.296376,-2.73071 5.985529,-5.83688 5.985529,-6.89503 0,-1.05815 2.89155,-2.54298 6.419255,-3.32806 7.026494,-1.51895 11.277087,0.78508 21.571048,11.65672 5.407218,5.70035 5.407218,5.92222 0.02885,12.3394 -6.274681,7.45824 -10.0048,7.79959 -26.573428,2.40643 z m 610.755413,-3.25978 c -3.20963,-4.82995 -2.68916,-7.30465 1.06988,-5.08596 1.73494,1.04109 2.68915,3.29394 2.08191,5.03476 -1.04095,3.05498 -1.15661,3.07204 -3.15179,0.0512 z m -361.70531,-12.27114 c -1.38795,-2.13336 -0.63614,-2.2699 4.01927,-0.80214 6.70843,2.11631 7.34457,3.39631 1.70603,3.39631 -2.2265,0 -4.79999,-1.16054 -5.7253,-2.59417 z m -36.28908,-3.20857 c -5.03131,-3.58406 -6.3036,-9.84761 -2.54457,-12.52713 2.74698,-1.94563 1.99517,-2.1675 -4.22168,-1.24587 -6.91083,1.024 -7.72047,0.58027 -9.57107,-5.18835 -1.15662,-3.6694 -2.86264,-5.46143 -4.10601,-4.2838 -1.15663,1.10936 -3.90361,1.82615 -6.13011,1.60428 -4.2506,-0.42667 -9.48432,0.52908 -25.30116,4.59101 -5.40722,1.38242 -12.40479,1.97977 -15.87467,1.33123 -5.34938,-1.00695 -5.66746,-0.80216 -2.42891,1.50189 3.1518,2.25282 2.80482,2.83311 -2.19758,3.77178 -3.26747,0.61441 -5.9277,1.84324 -5.9277,2.71364 0,3.94246 -8.44336,1.04108 -11.36384,-3.90833 -1.79276,-3.02083 -6.6795,-7.62891 -10.90117,-10.22308 -4.22168,-2.59417 -6.79517,-5.23954 -5.72529,-5.88809 1.06987,-0.63148 1.96625,-0.20481 1.96625,0.93868 0,1.16055 1.24337,1.63843 2.7759,1.09229 2.83373,-1.04109 12.02889,1.48481 21.07948,5.76862 2.7759,1.31415 5.06023,1.67255 5.06023,0.78507 0,-0.88747 -4.22168,-3.02084 -9.39757,-4.77874 -5.1759,-1.74083 -12.23131,-4.67633 -15.70118,-6.51957 -3.75903,-1.99683 -7.8072,-2.81604 -10.12045,-2.03096 -2.08192,0.71682 -2.89156,0.68268 -1.73494,-0.0683 1.15663,-0.75094 -1.12771,-3.61819 -5.06023,-6.36597 -6.6795,-4.6934 -7.57589,-7.04864 -8.38552,-22.25528 -0.11567,-2.20162 1.33011,-3.65231 3.41204,-3.41337 2.13975,0.256 3.61445,-1.3483 3.61445,-3.89126 0,-2.3723 1.93734,-4.76168 4.30842,-5.30782 2.4,-0.52907 3.64337,-1.62136 2.80482,-2.44057 -0.83856,-0.80215 3.67227,-3.02086 10.0337,-4.93234 l 11.56625,-3.48165 3.29637,3.63524 c 2.57349,2.83312 3.84578,3.14031 5.72529,1.36537 3.90361,-3.75474 15.06504,3.20857 12.98311,8.10679 -1.3012,3.0891 -0.66506,3.65231 3.1518,2.7819 3.93253,-0.88748 4.53975,-0.256 3.3253,3.48165 -1.18554,3.65233 0.52048,5.61503 8.35661,9.67696 5.40722,2.79897 12.05781,5.20541 14.77587,5.34194 2.74699,0.15359 6.27469,0.44375 7.86505,0.66561 1.59036,0.22187 5.03131,0.47788 7.69155,0.59734 2.83373,0.1024 4.453,1.41656 4.01927,3.17446 -0.43373,1.63842 -0.20241,1.97975 0.52048,0.768 2.34216,-4.11312 7.98071,-1.02401 12.05781,6.60491 2.19758,4.16433 5.29155,9.21614 6.82408,11.2471 1.56144,2.0139 1.96626,4.4886 0.9253,5.49556 -2.34216,2.21869 9.59998,4.19845 18.99755,3.14032 4.56868,-0.51201 3.23856,-0.83628 -4.04818,-0.9899 -5.95662,-0.13653 -10.84335,-0.90454 -10.84335,-1.72376 0,-0.83627 -0.80964,-3.90832 -1.82169,-6.8609 -1.59035,-4.72753 -1.15662,-5.22248 3.61445,-4.21553 3.67229,0.78509 2.97831,-0.017 -2.13975,-2.4747 -4.16385,-1.99683 -8.32769,-5.87103 -9.25299,-8.60174 -1.82169,-5.35901 -12.80962,-8.78946 -28.19272,-8.78946 -11.88432,0 -25.18549,-7.32172 -25.5614,-14.08022 -0.63614,-10.97403 -1.56144,-13.22686 -5.43613,-13.22686 -3.03614,0 -2.89156,-0.59735 0.63614,-2.67952 2.48674,-1.46775 4.53975,-3.15738 4.53975,-3.75471 0,-0.59736 -1.56144,-0.15362 -3.46987,0.97281 -5.08915,3.00377 -8.09637,2.50884 -8.09637,-1.36537 0,-1.87735 1.50361,-3.41338 3.32529,-3.41338 2.0241,0 1.41687,-1.24588 -1.44578,-3.12324 -2.63132,-1.7067 -4.77107,-4.42034 -4.77107,-6.02465 0,-3.36218 -7.98071,-11.23003 -14.42889,-14.21674 -3.32529,-1.53603 -3.61445,-2.74779 -1.27229,-5.01769 4.16385,-3.99365 9.91806,-4.96647 9.91806,-1.67255 0,1.46776 4.22168,3.95953 9.39757,5.54675 5.17589,1.57016 7.7783,3.19152 5.78312,3.60112 -1.99518,0.39254 -3.61445,1.45069 -3.61445,2.33817 0,0.98988 2.13975,0.95575 5.46505,-0.1024 7.19999,-2.2699 13.06985,1.6555 10.52528,7.06571 -1.70602,3.65233 -1.53253,3.7206 2.34216,0.87041 3.81686,-2.79896 4.53975,-2.81604 8.76143,-0.32427 4.2506,2.49178 4.22168,3.10619 -0.28915,7.32172 -4.85782,4.55687 -4.85782,4.57394 1.01204,1.6043 3.23855,-1.63842 6.76626,-2.98672 7.83613,-2.98672 3.46988,0 2.05301,4.81288 -1.6771,5.70035 -1.99518,0.47787 -0.14458,0.92162 4.10601,0.98988 13.30118,0.23895 17.58069,1.82618 13.30118,4.93235 -2.9783,2.18457 -2.9783,2.44057 0.0578,1.36535 2.05301,-0.73387 5.63854,-0.4096 7.95179,0.73389 2.89156,1.41656 4.22168,1.46775 4.22168,0.17066 0,-1.02401 3.58553,-2.38937 7.95179,-3.00377 4.36626,-0.61442 9.77347,-1.97978 12.02889,-3.02084 3.46987,-1.60431 3.52771,-1.36537 0.31807,1.65548 -2.053,1.96269 -5.17589,3.60111 -6.96866,3.65232 -1.76385,0.0512 -7.7783,1.29709 -13.33009,2.7819 -8.24095,2.18459 -8.90601,2.69659 -3.61445,2.7478 3.67228,0.0341 6.50601,1.14346 6.50601,2.52589 0,1.34829 1.01204,2.8331 2.25542,3.29391 1.24337,0.44376 2.2265,-1.22881 2.16867,-3.73764 -0.0578,-3.53287 1.47469,-4.71047 6.73733,-5.13715 4.0771,-0.34135 6.10119,0.11947 5.0024,1.16055 -2.11084,2.0139 9.05058,7.08278 15.58552,7.08278 2.45782,0 7.69155,2.30403 11.62407,5.12008 8.70359,6.22941 12.60722,6.63903 8.15419,0.87041 -1.79275,-2.33818 -8.24093,-5.61503 -14.31322,-7.25345 -6.07227,-1.65548 -11.07468,-4.21554 -11.10359,-5.68328 -0.0867,-2.95259 11.4795,-10.1207 16.33732,-10.1207 1.6771,0 6.39034,-1.55309 10.49636,-3.46458 11.13252,-5.17128 30.10115,-7.76546 48.26014,-6.62197 8.73253,0.54614 12.75178,1.12641 8.90602,1.28001 -13.59034,0.52908 -3.23855,2.35525 20.00959,3.51579 3.84577,0.20481 3.84577,0.40961 0,1.87738 -3.18073,1.21174 -0.95422,1.65548 8.21202,1.68961 9.39758,0.017 13.93733,0.98989 18.13009,3.85712 8.90602,6.14411 11.01685,8.99428 8.44336,11.43485 -1.93735,1.84323 -4.25059,1.62136 -12.08673,-1.16054 -5.32047,-1.89444 -12.95419,-3.89126 -16.94454,-4.43741 -6.70842,-0.92162 -7.60481,-0.29014 -12.11564,8.73826 -2.66023,5.35902 -7.25782,11.28124 -10.17828,13.15861 -2.92047,1.87736 -4.85782,4.79581 -4.27951,6.48544 0.57831,1.68962 -0.17349,3.99366 -1.70601,5.12007 -1.50362,1.12642 -3.58555,4.81288 -4.6265,8.17506 -1.01206,3.37926 -5.20481,7.98732 -9.2819,10.24015 -4.07711,2.26991 -12.11565,7.74839 -17.86986,12.20286 l -10.43853,8.08972 -6.70842,-3.70351 c -6.59277,-3.65234 -26.92043,-8.73828 -29.32043,-7.32173 -1.24338,0.73388 12.49154,4.23261 16.59755,4.23261 3.8747,0 15.84577,8.48226 13.73493,9.72813 -1.12772,0.64855 -6.50603,1.31416 -11.97107,1.4507 -5.43613,0.13654 -11.91323,1.22882 -14.34215,2.42351 -2.42891,1.17761 -7.69155,1.79203 -11.65298,1.34827 -3.99036,-0.4608 -7.25782,-0.15359 -7.25782,0.64854 0,2.37232 -10.55419,1.68965 -14.22648,-0.9216 z M 248.557,-592.60142 c -2.28434,-3.53285 -3.90361,-3.10617 -3.90361,1.00696 0,1.92855 1.24337,3.05497 2.7759,2.50884 1.50361,-0.56322 2.02409,-2.13337 1.12771,-3.5158 z m -22.2361,-45.91003 c -0.86747,-1.3483 -0.0289,-2.83312 1.87951,-3.29393 1.87951,-0.44374 1.15662,-0.88748 -1.61927,-0.95574 -3.20964,-0.0853 -5.06023,1.10936 -5.06023,3.27685 0,1.87736 1.44578,3.41338 3.20963,3.41338 1.76385,0 2.48674,-1.10934 1.59036,-2.44056 z m 12.54937,-2.78192 c 0,-0.98987 -1.3012,-1.33121 -2.89156,-0.75095 -1.59036,0.58028 -2.89156,1.39949 -2.89156,1.80911 0,0.40961 1.3012,0.75094 2.89156,0.75094 1.59036,0 2.89156,-0.81922 2.89156,-1.8091 z m -11.56624,-5.87101 c 0,-1.39951 -2.11084,-2.56006 -4.68433,-2.56006 -3.84578,0 -4.04819,0.46081 -1.09879,2.56006 1.96626,1.41654 4.0771,2.56003 4.68432,2.56003 0.60723,0 1.0988,-1.14349 1.0988,-2.56003 z m 82.40948,86.18798 c -0.98314,-0.93868 0.95421,-1.70671 4.33734,-1.70671 3.35421,0 5.32047,0.76803 4.33733,1.70671 -0.98312,0.93867 -2.94938,1.70669 -4.33733,1.70669 -1.41687,0 -3.35422,-0.76802 -4.33734,-1.70669 z m 337.58968,-7.68013 c -4.13492,-2.76482 -4.65541,-5.39313 -1.3012,-6.62196 1.3012,-0.4608 3.78795,1.41656 5.55179,4.16434 3.41206,5.37606 1.61929,6.41716 -4.25059,2.45762 z m 14.60237,-0.95575 c 1.27228,-2.8331 0.80966,-3.12323 -2.4289,-1.55308 -3.18071,1.55308 -4.36624,1.07522 -5.81204,-2.35524 -2.25541,-5.27366 0.17349,-7.93612 7.25783,-7.93612 4.07709,0 5.0024,0.92163 3.81685,3.84007 -1.50361,3.78886 -1.47469,3.78886 3.06505,0.42667 5.78313,-4.2838 6.01446,-2.45763 0.60724,5.17128 -4.53976,6.43423 -9.02168,8.08971 -6.50603,2.40642 z m -502.55321,-9.79641 c -4.77106,-2.5771 -10.32286,-6.96329 -12.34695,-9.76228 l -3.64337,-5.08594 6.04336,4.26673 c 3.32529,2.35524 8.29877,5.83689 11.07467,7.74838 5.63854,3.90834 9.80239,7.64599 8.44336,7.56066 -0.49157,-0.017 -4.79999,-2.15043 -9.57107,-4.72755 z m 70.84324,1.57017 c 0,-0.83628 2.6024,-1.91149 5.78312,-2.40645 3.75903,-0.58027 5.78312,-0.0512 5.78312,1.5019 0,1.33122 -2.6024,2.40643 -5.78312,2.40643 -3.18072,0 -5.78312,-0.68267 -5.78312,-1.50188 z m 329.6379,-6.92917 c 0,-0.9899 1.30119,-1.8091 2.89155,-1.8091 1.59037,0 2.89157,0.34133 2.89157,0.75094 0,0.40962 -1.3012,1.22882 -2.89157,1.80911 -1.59036,0.58026 -2.89155,0.23893 -2.89155,-0.75095 z m 48.1734,-2.78192 c -7.69155,-1.24588 -17.26262,-3.49871 -21.22405,-5.03474 -6.62169,-2.5771 -6.82408,-3.02084 -2.60241,-5.78569 6.47709,-4.2326 5.84095,-4.67634 -5.5518,-3.89126 -9.22409,0.63148 -10.12046,0.30721 -10.12046,-3.61819 0,-2.38937 -3.38312,-6.7073 -7.54698,-9.60868 -6.24576,-4.3862 -6.91083,-5.73449 -3.87467,-7.88493 2.02408,-1.43361 5.55177,-2.18456 7.86503,-1.65548 2.83374,0.63148 3.67227,0.11947 2.57349,-1.55309 -0.89638,-1.36537 0.60722,-5.01769 3.29638,-8.12386 2.68915,-3.08912 5.00239,-8.3116 5.11806,-11.60551 0.17349,-5.92223 5.06024,-18.55176 10.75661,-27.87032 5.11806,-8.3628 28.94451,-10.87162 40.19268,-4.23259 3.46988,2.04804 6.73734,2.96965 7.28674,2.03097 1.3012,-2.30403 44.96377,2.90138 47.97099,5.71742 1.27227,1.19468 4.19276,2.16749 6.50602,2.16749 6.21686,0 5.17589,1.4507 -4.59759,6.2977 -4.85783,2.40645 -8.18312,4.72755 -7.4313,5.18836 0.78072,0.44374 0.14449,2.76484 -1.41686,5.15421 -2.31326,3.60113 -2.11085,4.01073 1.18553,2.40645 2.19757,-1.07523 4.65542,-1.5531 5.49397,-1.05817 0.83853,0.49495 0.89637,-1.00693 0.14449,-3.34511 -1.15661,-3.56699 -0.029,-4.42033 6.88192,-5.32488 4.53975,-0.59734 14.51565,-2.08217 22.14936,-3.32806 13.50358,-2.18456 14.05297,-2.13335 20.9638,2.2699 3.90362,2.47472 7.08433,6.50251 7.08433,8.92602 0,4.7446 -2.94938,5.93928 -26.74692,10.93989 -10.26505,2.15044 -13.73492,3.75473 -13.73492,6.3489 0,2.86725 -1.4747,3.32806 -8.53011,2.73071 -4.68431,-0.40961 -7.86504,-0.11947 -7.05541,0.64854 0.80966,0.76802 4.56867,1.39949 8.38552,1.39949 5.46508,0 8.18313,1.67257 12.83855,7.902 8.87709,11.81031 7.92286,15.32609 -5.20483,19.28563 -8.38552,2.50883 -11.97106,2.86725 -14.4578,1.39948 -2.51565,-1.46776 -3.32527,-1.26295 -3.32527,0.87042 0,1.92855 -3.99037,3.41339 -12.28916,4.62514 -6.76624,0.98987 -18.79514,3.37924 -26.74691,5.32487 -20.03852,4.86408 -18.6795,4.77874 -34.23609,2.28697 z m 23.04573,-39.4758 c -1.35903,-0.81922 -19.17105,8.44813 -19.17105,9.96708 0,0.64855 4.53975,-1.19468 10.09156,-4.09606 5.55178,-2.90138 9.62888,-5.54675 9.07949,-5.87102 z m 41.2915,-3.25978 c -3.26746,-2.32111 -3.09398,-3.07206 1.09878,-4.88115 6.10119,-2.62831 6.21686,-3.66939 0.46266,-4.96647 -2.68916,-0.61442 -3.75904,-0.3072 -2.66026,0.75095 1.01207,0.95573 0.28916,2.86723 -1.64819,4.23259 -2.71805,1.94563 -2.71805,3.05498 0.1157,5.0518 1.96627,1.41655 4.25061,2.56005 5.03133,2.56005 0.80964,0 -0.28916,-1.22881 -2.40001,-2.74777 z m -24.20237,-7.91907 c 0.9542,-1.63842 2.92047,-2.9867 4.42408,-2.9867 1.47471,0 2.68917,-0.81922 2.68917,-1.80911 0,-0.98988 -1.30121,-1.33121 -2.89157,-0.75094 -1.59037,0.58029 -2.89157,0.30721 -2.89157,-0.6144 0,-0.90455 1.61928,-2.04803 3.61446,-2.52591 1.99516,-0.47788 0.0288,-0.76801 -4.33734,-0.63148 -7.22889,0.22188 -9.25299,1.45069 -8.29879,5.05181 0.20243,0.69976 -2.16866,1.28003 -5.26264,1.28003 -3.09395,0 -6.24576,0.61441 -7.02648,1.34828 -0.78072,0.75094 3.38312,1.04108 9.22407,0.66562 l 10.64093,-0.69975 -8.67466,5.59796 c -8.58794,5.54674 -8.61685,5.56382 -0.80964,2.32109 4.33734,-1.79202 8.67467,-4.60806 9.59998,-6.2465 z m 40.82883,-3.95952 c 0.95421,-1.46776 0.0867,-3.58406 -1.93735,-4.6934 -2.89157,-1.57017 -3.23855,-1.51895 -1.59036,0.18772 1.15663,1.22884 0.54941,3.32806 -1.38794,4.69343 -2.54457,1.82615 -2.6024,2.49176 -0.1445,2.49176 1.82171,0 4.10603,-1.19468 5.06025,-2.67951 z m 80.81911,47.77033 c -2.13975,-3.29391 2.66025,-7.30465 11.13252,-9.3356 4.94458,-1.17763 5.08913,-1.41656 0.80964,-1.51896 -4.27953,-0.0853 -3.73012,-1.19469 3.61445,-7.18518 4.79998,-3.89127 8.7036,-8.07265 8.7036,-9.2844 0,-1.21177 1.47469,-2.74779 3.29638,-3.39634 5.86986,-2.15043 -0.0579,10.54738 -10.14938,21.79448 -10.14939,11.28125 -14.45781,13.48287 -17.40721,8.926 z m -723.959993,-6.26356 c -1.590355,-1.17761 -5.696384,-5.42728 -9.137341,-9.47214 -3.469873,-4.02781 -8.183124,-7.76546 -10.496367,-8.27746 -2.31326,-0.52908 -4.192761,-2.4235 -4.192761,-4.19848 0,-5.47847 16.944556,-4.2326 28.366224,2.08218 8.761414,4.847 9.426486,5.95636 8.154191,13.2098 -0.78072,4.36914 -1.503607,8.12387 -1.619272,8.3628 -0.636139,1.33121 -8.61685,0.1024 -11.074674,-1.7067 z m 478.668923,-4.26673 c -0.9253,-2.04803 0.029,-3.27685 2.48674,-3.27685 4.51084,0 4.85782,1.05815 1.38794,4.2838 -1.8795,1.7579 -2.77588,1.51895 -3.87468,-1.00695 z m 12.72286,0.13654 c 1.15663,-3.54993 5.40721,-4.42034 11.04576,-2.23577 3.84577,1.48482 3.84577,1.86029 0,3.36218 -6.6795,2.57711 -12.08672,2.03097 -11.04576,-1.12641 z m 12.89636,-4.09607 c -6.506,-3.02085 -7.14214,-4.06192 -4.33734,-7.15104 3.26746,-3.60112 3.32529,-3.60112 10.12046,1.07521 6.82408,4.67634 9.05059,9.60869 4.30842,9.60869 -1.35902,0 -5.92768,-1.58723 -10.09154,-3.53286 z m -423.72927,-1.26295 c -2.31325,-2.56004 -1.8506,-3.92539 2.08192,-6.02463 4.65542,-2.49176 5.11807,-2.4747 5.46505,0.23894 0.20241,1.60429 0.80964,3.97659 1.33012,5.25662 1.53253,3.73765 -5.58071,4.14726 -8.87709,0.52907 z m 728.38409,-3.12325 c 0,-0.92161 2.0241,-3.15739 4.48192,-4.98354 4.2506,-3.12325 4.30843,-3.07206 1.06988,0.95574 -4.22167,5.22249 -5.5518,6.19531 -5.5518,4.0278 z m -741.25153,-4.82993 c -0.89639,-1.36537 -0.43374,-2.93552 1.01204,-3.46459 1.44578,-0.52907 1.96626,-2.01392 1.12771,-3.29392 -2.11084,-3.22565 4.71324,-5.37608 7.83613,-2.47471 1.8506,1.74083 2.51566,1.33122 2.54457,-1.58723 0.0289,-2.18456 1.33012,-3.46458 2.9494,-2.8843 1.59035,0.58028 2.89156,3.24271 2.89156,5.92222 0,4.1814 -0.89639,4.71047 -6.50602,3.85713 -5.55179,-0.83628 -5.98553,-0.59735 -2.92047,1.60429 1.96626,1.41655 2.74698,3.08911 1.6771,3.70352 -3.29638,1.9627 -8.93492,1.22882 -10.61202,-1.38241 z m -52.481831,-8.78948 c -6.390355,-5.01767 -7.922862,-10.3767 -4.106012,-14.30208 2.11083,-2.16751 2.486741,-2.11631 2.573489,0.37547 0.05776,1.60428 2.515656,3.68645 5.493971,4.62513 6.881914,2.18457 9.426486,7.69719 5.118061,11.16178 -2.891566,2.33817 -4.01928,2.09922 -9.079509,-1.8603 z m 438.736491,2.47471 c -1.87952,-1.10935 -13.38794,-2.26991 -25.61923,-2.5771 -12.23132,-0.32428 -23.94213,-1.41656 -26.05298,-2.44059 -2.08193,-1.024 -7.14216,-6.04168 -11.21925,-11.12762 -4.27949,-5.35902 -8.73252,-8.80655 -10.46744,-8.158 -1.96626,0.71681 -1.87951,-0.20479 0.23132,-2.52591 5.78313,-6.38303 32.35657,-11.86152 58.61193,-12.06633 4.39517,-0.0341 12.05782,-2.23576 17.34936,-4.96647 9.6289,-4.96648 33.5132,-12.15165 40.42403,-12.1858 2.08192,0 7.11323,-1.024 11.16141,-2.26989 7.05541,-2.18458 7.4024,-2.0651 8.00964,2.76484 0.3759,2.78191 -0.49159,5.92223 -1.93735,6.98037 -3.00723,2.25284 -6.53493,12.52713 -7.80721,22.80143 -1.12773,9.09668 -2.34218,10.18895 -14.71805,13.24393 -5.58071,1.38244 -9.4265,3.19153 -8.5301,4.0278 0.86747,0.83629 -1.35904,3.53286 -4.94458,6.00757 -6.93974,4.76167 -18.65056,5.93929 -24.4915,2.49177 z m -398.08115,-2.35523 c -3.093967,-1.34829 -8.038535,-2.47472 -11.016844,-2.47472 -2.978307,0 -4.597579,-0.768 -3.614449,-1.7067 0.983129,-0.93867 -0.665059,-1.70667 -3.672283,-1.70667 -11.768649,0 -25.734889,-13.70476 -20.096354,-19.71232 2.775919,-2.98671 2.602405,-3.08911 -1.734936,-0.98987 -4.221677,2.04803 -4.857816,1.92856 -4.828883,-0.85335 0.05777,-12.52714 17.667426,-27.93857 31.893899,-27.93857 12.75178,0 12.75178,2.86723 0,7.16811 -6.419264,2.16749 -11.653001,4.6422 -11.653001,5.49555 -0.0288,0.87041 -1.648188,2.83311 -3.643353,4.35206 -1.995165,1.53603 -1.012049,1.19469 2.168679,-0.73388 3.180706,-1.92855 10.438523,-5.12007 16.105981,-7.09984 10.149374,-3.51578 10.554194,-3.53285 20.616824,-0.47787 5.66746,1.70669 11.24817,4.4886 12.43371,6.16116 3.00723,4.2838 4.10602,14.1485 1.59036,14.1485 -2.94939,0 -8.81926,8.02146 -8.81926,12.03218 0,1.82617 -1.96626,3.32804 -4.33734,3.32804 -2.39999,0 -4.33734,0.81922 -4.33734,1.8091 0,0.98989 1.3012,1.33122 2.89156,0.75094 4.13493,-1.50188 3.58554,4.79581 -0.72289,8.12388 -3.18072,2.49176 -4.27951,2.52589 -9.22408,0.32427 z m 689.46369,-0.23895 c 0,-0.93869 2.60241,-3.48165 5.78312,-5.64914 4.10601,-2.78191 5.78312,-3.19153 5.78312,-1.38243 0,1.41655 -2.60241,3.95952 -5.78312,5.64916 -3.18071,1.70668 -5.78312,2.32109 -5.78312,1.38241 z m -657.28062,-4.55686 c -0.95421,-1.48484 -0.40482,-3.17446 1.21446,-3.77179 4.51083,-1.63843 6.33252,0.3584 3.26746,3.6011 -2.42891,2.56006 -2.92047,2.57712 -4.48192,0.17069 z m -98.139571,-0.61442 c -6.245758,-0.54613 -7.951795,-1.62136 -7.951795,-4.96648 0,-6.02461 5.060229,-10.87163 11.306021,-10.87163 7.199991,0 10.380685,3.10619 10.380685,10.08656 0,6.22942 -1.416858,6.82677 -13.734911,5.75155 z m 81.686591,-1.12641 c 0,-1.41655 1.3012,-3.03791 2.89156,-3.61819 1.59036,-0.58027 2.89156,0.1024 2.89156,1.50188 0,1.41656 -1.3012,3.03792 -2.89156,3.6182 -1.59036,0.58028 -2.89156,-0.1024 -2.89156,-1.50189 z m 17.58069,-6.89505 c -0.14458,-1.79202 0.5494,-2.79898 1.50361,-2.23576 0.98313,0.56322 1.06988,2.04803 0.23133,3.27685 -0.9253,1.36535 -1.59036,0.95574 -1.73494,-1.04109 z m 6.10119,-3.53285 c -1.82168,-2.33817 -2.48674,-5.47849 -1.50361,-6.99744 1.38795,-2.09924 2.71807,-1.45069 5.72528,2.73071 2.13977,3.02085 3.90362,6.17823 3.90362,7.01451 0,3.03791 -4.94457,1.38243 -8.12529,-2.74778 z m -17.86984,-1.19468 c 0,-1.58722 1.27229,-3.36219 2.86264,-3.94246 3.67229,-1.33123 3.67229,0.92162 0,4.26673 -2.42891,2.20164 -2.80481,2.1675 -2.86264,-0.32427 z m 27.75897,-0.66561 c -4.74215,-7.27051 3.75904,-11.45191 13.09878,-6.46836 7.08431,3.78886 6.79516,4.82993 -1.99519,7.18516 -9.25298,2.49178 -9.02165,2.50884 -11.10359,-0.7168 z m 28.88669,-0.42668 c -0.80963,-0.78508 0.40482,-1.43362 2.71807,-1.43362 2.31325,0 4.22168,0.64854 4.22168,1.43362 0,0.78509 -1.21446,1.41656 -2.71807,1.41656 -1.50361,0 -3.38313,-0.63147 -4.22168,-1.41656 z m 107.1034,-1.14347 c 0.89639,-1.39951 2.16868,-2.56006 2.80482,-2.56006 0.60723,0 1.12772,1.16055 1.12772,2.56006 0,1.41654 -1.2723,2.56003 -2.80482,2.56003 -1.53253,0 -2.05301,-1.14349 -1.12772,-2.56003 z m 8.93493,-4.38621 c 0.80964,-1.80909 2.68915,-3.29392 4.19277,-3.29392 1.47468,0 1.79275,-0.87042 0.69396,-1.92857 -1.21445,-1.16055 -0.43372,-1.62135 1.99519,-1.14346 6.82408,1.34827 6.04336,5.78568 -1.33012,7.76543 -6.24578,1.67257 -6.853,1.51896 -5.5518,-1.39948 z m -125.06,-0.34134 c -5.34938,-1.75789 -5.34938,-1.84323 0.1735,-3.10618 8.76143,-2.03097 11.94214,-1.77497 11.94214,0.93868 0,3.37925 -5.46505,4.36913 -12.11564,2.1675 z m 81.02153,-0.17066 c -9.42649,-2.04804 -13.44575,-4.40328 -11.21925,-6.53664 0.80963,-0.75095 -0.63615,-1.36535 -3.1518,-1.36535 -2.54458,0 -5.34939,-1.1435 -6.27469,-2.56006 -0.9253,-1.39949 -3.46987,-2.56004 -5.69638,-2.56004 -4.36625,0 -4.91565,-2.09923 -2.16867,-8.14092 1.18554,-2.61124 2.80482,-3.36218 5.0024,-2.30403 2.08193,0.98988 4.6265,0.69973 6.99758,-0.81923 3.06506,-1.96269 2.94939,-2.38936 -0.72289,-2.38936 -5.60963,0 -5.58071,-0.81921 0.26024,-6.07584 3.23855,-2.90136 6.39035,-3.94245 10.0048,-3.25978 2.92048,0.54615 7.80722,0.20481 10.87227,-0.768 4.10602,-1.29709 7.95179,-1.05815 14.57347,0.88748 4.94456,1.45069 8.99275,3.17445 8.99275,3.84007 0,1.46773 -7.4024,8.0897 -15.61443,13.99487 -3.35421,2.40643 0.0578,0.66561 7.54698,-3.84005 17.812,-10.71804 21.19513,-10.59857 20.67466,0.768 -0.57833,13.02207 -0.66507,13.22689 -5.1759,13.22689 -2.25542,0 -6.88191,2.06509 -10.26504,4.60806 -6.99758,5.25662 -12.34696,5.97343 -24.6361,3.29393 z M 3.9309759,-652.67701 c -7.5469687,-1.05815 -1.5325233,-6.48543 9.7734801,-8.80654 11.652981,-2.40644 13.156588,-2.3723 8.877096,0.1536 -1.908451,1.12641 -3.469873,3.65233 -3.469873,5.61502 0,3.56699 -4.713235,4.50567 -15.1807031,3.03792 z m 272.5295841,-0.39254 c 0,-0.90454 2.48674,-2.44057 5.49396,-3.39632 4.68433,-1.46776 5.29156,-1.22881 3.99035,1.6555 -1.4747,3.37925 -9.48431,4.847 -9.48431,1.74082 z m -254.457332,-2.35523 c 0,-1.26296 2.602405,-3.68645 5.783116,-5.39317 6.36144,-3.39631 7.778315,-1.12641 2.775902,4.38622 -3.440957,3.78885 -8.559018,4.38619 -8.559018,1.00695 z m 112.770872,-4.4886 c 0,-2.73072 1.50361,-5.51263 3.32529,-6.17825 1.99518,-0.73387 2.57349,-0.47787 1.41687,0.63148 -1.06988,1.00695 -0.63615,2.33818 0.98313,2.91845 4.39517,1.60429 3.55662,5.49556 -1.38795,6.6049 -3.23855,0.73389 -4.33734,-0.27306 -4.33734,-3.97658 z m 174.79483,3.20858 c -2.60241,-2.47471 0.89637,-4.14728 13.79275,-6.58785 6.59276,-1.24588 12.52045,-1.43362 15.35419,-0.49494 3.61445,1.19469 2.05301,1.96269 -7.14215,3.58405 -6.4482,1.1435 -11.73975,2.81606 -11.73975,3.72061 0,2.23576 -7.86504,2.08216 -10.26504,-0.22187 z m -161.17558,-3.25978 c -0.83856,-1.87738 -1.04097,-3.4134 -0.43374,-3.4134 0.57832,0 2.45782,1.53602 4.16385,3.4134 1.70602,1.89442 1.90843,3.41338 0.43373,3.41338 -1.44578,0 -3.32529,-1.53603 -4.16384,-3.41338 z m 8.96383,0.0853 c -2.08192,-1.97976 -8.73251,-5.63209 -14.77587,-8.1068 -9.71564,-3.97658 -10.90118,-5.22248 -10.12046,-10.61562 0.83855,-5.93929 1.18554,-6.10997 12.92527,-6.10997 6.62168,0 12.9542,-0.54614 14.05298,-1.19468 3.32529,-1.9627 10.03371,3.17445 10.03371,7.69718 0,2.42351 2.71807,5.27369 6.50602,6.77558 5.52288,2.2187 5.98553,3.12324 3.06505,6.00756 -3.00722,2.96964 -2.74698,3.27684 2.16867,2.50884 3.84578,-0.58028 5.60963,0.017 5.60963,1.89443 0,1.91151 -2.60241,2.76484 -8.44336,2.76484 -4.6265,0 -10.40962,0.44376 -12.83852,0.9899 -2.63133,0.6144 -5.89879,-0.42668 -8.18312,-2.61126 z m 250.43806,-0.3072 c -0.98314,-0.93869 -1.01205,-2.16751 -0.0578,-2.73071 0.95421,-0.56321 1.73493,-0.13654 1.73493,0.95574 0,1.10935 1.38796,1.99685 3.06506,1.99685 1.6771,0 2.25542,-0.76802 1.27228,-1.70671 -2.57349,-2.45763 0.17349,-2.09924 3.84579,0.49494 2.34216,1.67257 1.73492,2.26991 -2.48674,2.45765 -3.06506,0.13653 -6.39036,-0.52908 -7.37349,-1.46776 z m -476.702664,-3.58407 c -5.840965,-2.8843 -5.7542,-2.9355 4.163844,-2.01389 18.592744,1.7067 23.132481,2.45764 23.132481,3.84006 0,2.57711 -21.310795,1.14348 -27.296325,-1.82617 z m 497.174904,2.57711 c -8.00963,-1.12641 -18.79514,-7.30464 -18.79514,-10.75216 0,-1.57016 -2.80482,-4.31793 -6.24578,-6.09289 l -6.21685,-3.25979 4.94457,4.53981 c 7.77829,7.13396 0.0867,7.90199 -12.02889,1.19468 -9.62889,-5.32488 -9.91805,-5.37608 -4.04818,-0.78509 7.72046,6.05877 6.44818,7.11693 -5.63855,4.62515 -10.98792,-2.25284 -13.59032,-1.38243 -8.03853,2.69658 2.92047,2.15042 1.59035,1.96269 -4.91566,-0.73388 -9.97588,-4.1302 -17.58068,-8.97721 -14.05297,-8.97721 1.24337,0 5.0024,1.31416 8.29877,2.91843 5.95662,2.9014 5.95662,2.9014 -0.0578,-0.9728 -3.32529,-2.13337 -9.54214,-4.11313 -13.79275,-4.40326 -4.25059,-0.27307 -9.97588,-1.63843 -12.72287,-3.05498 -2.74698,-1.41657 -8.58793,-3.05499 -12.95418,-3.6694 -4.36626,-0.6144 -7.9518,-1.75789 -7.9518,-2.52591 0,-2.7819 19.37346,-7.56063 27.09393,-6.69022 4.25059,0.47786 8.47227,0.17065 9.39757,-0.69975 0.89638,-0.87042 3.44096,-0.18775 5.60962,1.50188 2.80482,2.16751 4.01929,2.38937 4.07711,0.75096 0.0579,-1.68964 1.09879,-1.84323 3.70119,-0.56321 1.99519,0.97281 8.18313,2.03096 13.73492,2.33815 7.37348,0.40961 10.35179,1.46777 11.10358,3.97661 0.5494,1.87736 2.0241,4.04485 3.26747,4.82994 1.24337,0.76801 1.61927,-0.58028 0.83855,-2.98671 -1.3012,-4.04486 -0.60722,-4.40328 8.64577,-4.40328 8.47227,0 11.24816,1.04109 17.40719,6.55371 7.19999,6.4001 7.74938,6.55369 24.26019,6.38303 9.2819,-0.1024 21.42646,0.68268 27.00716,1.74083 10.58314,1.99683 27.55659,2.04803 30.9108,0.0853 1.06986,-0.64854 -3.93252,-1.02401 -11.13251,-0.8704 -7.19999,0.17066 -14.74696,-0.30721 -16.79997,-1.05816 -2.02408,-0.73388 -12.83851,-1.5531 -23.99993,-1.82616 -19.95179,-0.4608 -20.50118,-0.59735 -30.9108,-7.71425 -9.4554,-6.5025 -11.53733,-7.15104 -19.80719,-6.17822 -5.32046,0.63147 -9.22408,0.39252 -9.22408,-0.56321 0,-0.92163 -2.28433,-1.72377 -5.06022,-1.79204 -4.33734,-0.1024 -4.22168,-0.32427 0.72289,-1.58722 4.77108,-1.21175 4.0771,-1.48482 -4.01927,-1.58722 -5.3783,-0.0684 -11.27708,-1.29709 -13.06985,-2.74779 -1.79277,-1.45068 -6.50601,-2.74777 -10.43853,-2.86724 -3.93252,-0.11947 -9.05058,-1.05814 -11.33493,-2.0651 -2.8048,-1.22881 -3.58553,-1.22881 -2.37108,-0.0341 1.06989,1.05814 -3.75903,2.74776 -11.71082,4.09605 -7.46022,1.26296 -14.86262,2.74779 -16.45299,3.29393 -4.48191,1.55308 -8.47227,1.34828 -10.84335,-0.59735 -1.41686,-1.14348 -3.03613,-0.95575 -4.71324,0.56321 -2.13975,1.9627 -3.84578,1.9627 -10.84335,-0.0171 -5.63855,-1.58721 -12.02889,-6.45129 -19.86502,-15.12129 -7.69155,-8.49933 -13.50359,-12.9538 -17.34937,-13.29514 -5.26264,-0.47787 -15.90358,-9.95001 -15.90358,-14.16555 0,-3.15738 18.04334,-0.85336 21.39755,2.73071 2.94939,3.15738 6.10119,4.96647 27.41199,15.78691 9.02167,4.591 26.19755,9.62575 28.39513,8.32866 0.83855,-0.49494 -1.8506,-1.41656 -6.01445,-2.03097 -4.16385,-0.6144 -7.57588,-1.80909 -7.57588,-2.64537 0,-0.83628 -1.38796,-1.51896 -3.09398,-1.51896 -5.06023,0 -31.83608,-14.09728 -36.17342,-19.04669 -4.65541,-5.30782 -19.31562,-8.02146 -25.90838,-4.7958 -2.63132,1.29709 -4.22168,1.39949 -4.22168,0.29013 0,-0.98988 -3.41204,-4.18139 -7.57589,-7.09985 -6.853,-4.81286 -7.40239,-6.17822 -5.52288,-14.21675 2.97831,-12.91965 3.1518,-18.26161 0.78072,-26.21479 -2.11084,-7.04864 -2.05301,-7.09985 12.14456,-12.47592 l 14.22648,-5.39308 77.55166,0.34133 c 66.99746,0.30721 78.15888,0.71682 81.9179,3.08911 2.42891,1.51896 6.96865,3.60113 10.12047,4.62513 3.18072,1.0411 6.1301,3.43046 6.62168,5.30782 0.46264,1.87737 5.34937,5.97342 10.84334,9.11373 5.49395,3.14033 9.97588,7.16813 9.97588,8.96016 0,6.82676 9.91806,15.00183 29.32042,24.18383 11.04577,5.23955 21.16623,9.14788 22.46743,8.66999 1.30121,-0.46079 7.19999,1.62136 13.12768,4.65928 l 10.75662,5.49555 -4.25061,7.25345 c -2.34215,3.99366 -3.06505,7.25344 -1.61926,7.25344 1.44576,0 3.44096,-2.3723 4.42408,-5.27368 0.98315,-2.88431 3.5277,-5.64915 5.69638,-6.14409 2.13975,-0.49494 3.06506,-1.68962 2.02408,-2.67951 -1.15661,-1.09228 -0.46264,-1.28001 1.79277,-0.46081 2.0241,0.75094 4.56867,0.47788 5.69638,-0.6144 1.44578,-1.38243 3.93252,-1.00695 8.35661,1.26295 7.5759,3.87419 8.21204,6.19529 1.24336,4.55687 -8.81925,-2.0651 -15.18069,-2.44057 -15.18069,-0.92161 0,0.80213 3.75904,1.96269 8.38553,2.56003 4.59758,0.59735 8.99276,2.44057 9.71564,4.11314 0.75182,1.67255 3.46988,3.15738 6.07228,3.31098 2.60242,0.17067 6.56385,0.42667 8.79035,0.58028 2.25541,0.1536 3.49879,1.16055 2.8048,2.25283 -0.72287,1.07521 1.9952,2.86724 6.04338,3.94245 8.7036,2.33818 9.51323,7.20225 1.8506,11.28125 -4.25059,2.26991 -5.81205,2.4235 -7.05541,0.68267 -0.83857,-1.22881 -1.41686,0.0684 -1.27228,2.88432 0.78072,13.31221 -5.37831,18.34695 -22.90117,18.67122 -3.49879,0.0512 -7.98071,1.05815 -9.97587,2.23577 -1.99519,1.17762 -4.85784,2.13336 -6.36144,2.13336 -1.50363,0 -8.47229,2.78192 -15.49877,6.17822 -11.1325,5.37609 -15.29637,6.29771 -32.12524,7.04865 -10.61203,0.49495 -22.84334,1.92856 -27.12284,3.20858 -8.12528,2.44059 -8.7325,2.47471 -18.21684,1.10935 z m -92.55884,-55.12616 c -1.01205,-0.93869 -3.03613,-1.28003 -4.51083,-0.75095 -4.01927,1.46775 -3.26747,2.49177 1.82168,2.49177 2.48675,0 3.67229,-0.78508 2.68915,-1.74082 z m 23.1614,52.94161 c -5.52287,-1.39949 -5.49397,-1.46776 0.72288,-1.58722 3.58554,-0.0683 7.14216,-0.11948 7.95181,-0.11948 2.31323,0 1.67709,2.52591 -0.72291,2.86725 -1.18554,0.1536 -4.77105,-0.35841 -7.95178,-1.16055 z m -476.99182,-2.30404 c -3.61446,-1.55309 -4.27951,-2.67951 -2.05302,-3.48165 3.78794,-1.38242 14.94937,1.70669 14.94937,4.14727 0,2.35522 -6.67951,2.01389 -12.89635,-0.66562 z m 416.09554,-6.65611 c 0.20242,-9.77935 -0.52047,-9.52334 20.87707,-7.09983 11.19035,1.28002 13.96625,5.99049 6.33253,10.82043 -6.82409,4.31793 -16.33732,4.55687 -21.80238,0.54615 -3.75903,-2.7478 -3.96143,-2.67951 -2.28433,0.85334 0.98314,2.1163 0.63614,3.84006 -0.78072,3.84006 -1.38794,0 -2.45782,-4.0278 -2.34217,-8.96015 z m -342.476408,6.50251 c 0,-1.80909 5.551787,-2.56004 7.199974,-0.98988 0.983133,0.95574 -0.202396,1.74082 -2.689153,1.74082 -2.48674,0 -4.510821,-0.34133 -4.510821,-0.75094 z m 59.942041,-0.37547 c 1.966265,-0.46081 5.869881,-0.49494 8.674665,-0.0512 2.804818,0.42667 1.214462,0.8192 -3.556605,0.85334 -4.771083,0.0341 -7.084326,-0.32427 -5.11806,-0.80214 z m 328.683687,-0.17067 c -3.93252,-1.55309 -9.8313,-8.00439 -9.8313,-10.75217 0,-1.53602 0.95421,-1.55308 4.04819,-0.0341 2.71805,1.33122 4.39517,1.39949 5.06022,0.20481 0.57832,-0.98989 4.77108,0.256 9.36865,2.76483 7.86506,4.31794 8.03855,4.67633 3.03615,6.84383 -6.01444,2.59419 -7.28674,2.69659 -11.68191,0.97283 z m 36.92522,-0.90455 c -2.45783,-1.75789 -0.92531,-2.0651 7.6048,-1.46775 8.76142,0.6144 9.65782,0.98987 4.91566,2.08216 -8.1542,1.89443 -9.05059,1.8603 -12.52046,-0.61441 z m 340.79932,-1.14348 c -3.64337,-1.36536 -3.55662,-1.7579 0.72289,-2.71366 6.30361,-1.43361 14.60238,0.35842 12.20239,2.62832 -2.2265,2.13337 -7.34457,2.1675 -12.92528,0.0853 z m -811.603198,-2.69658 c -1.272294,-1.92856 0,-3.87419 3.585538,-5.51261 5.262642,-2.40644 5.204792,-2.47471 -1.387959,-1.55311 -8.934912,1.2459 -5.060229,-0.78507 11.248187,-5.93928 15.672244,-4.93235 28.395106,-5.85395 35.942075,-2.59417 5.031329,2.18456 5.17591,2.93552 1.706037,7.91905 -3.093962,4.40326 -3.151795,5.76863 -0.231329,6.82677 2.342159,0.85335 0.173497,1.6555 -6.043362,2.23578 -5.320474,0.47787 -10.901194,0.22185 -12.375885,-0.59735 -1.532523,-0.85335 -4.539737,-0.59734 -7.055393,0.59735 -3.585538,1.72375 -3.932532,1.65548 -1.908451,-0.32428 1.879518,-1.84323 1.272312,-2.15043 -2.602388,-1.26295 -13.763827,3.10618 -18.968636,3.15738 -20.87707,0.2048 z m 56.876994,-1.60429 c -2.284327,-1.62136 -2.515656,-2.59417 -0.578323,-2.59417 3.498806,0 7.575902,3.24271 5.551803,4.42034 -0.722887,0.42667 -2.949398,-0.39255 -4.97348,-1.82617 z m 7.489137,-1.67257 c -9.80238,-8.84066 -1.416859,-15.03595 14.544547,-10.7351 5.9855288,1.60431 6.7662485,2.67952 5.1469936,7.13399 -1.0409822,2.88431 -2.4578408,5.81982 -3.1807282,6.51957 -2.7180524,2.73071 -12.0578074,1.07521 -16.5108124,-2.91846 z m 239.507957,2.32111 c -1.06988,-1.02402 0,-3.02084 2.37108,-4.42033 3.84578,-2.2699 4.16385,-2.0651 2.89156,1.87735 -1.59036,4.89822 -2.4,5.29076 -5.26264,2.54298 z m 487.40145,-1.75789 c -6.79517,-1.62136 -15.06504,-2.54297 -26.74694,-3.00378 -2.7759,-0.1024 -5.2048,-1.53602 -5.40722,-3.17445 -0.26024,-2.42351 -0.54941,-2.49177 -1.56145,-0.3072 -0.86746,1.91149 -3.70119,2.47471 -9.77347,1.94563 -4.71323,-0.40961 -8.55902,-1.28002 -8.55902,-1.92856 0,-0.64854 -1.87951,-2.67951 -4.19277,-4.50569 -4.04817,-3.19149 -4.13491,-3.17443 -2.54456,0.52908 1.87952,4.47153 -2.39999,5.03475 -8.93493,1.17763 -2.48674,-1.46775 -6.15902,-2.13338 -8.15419,-1.46775 -2.92048,0.97281 -2.92048,0.768 -0.029,-1.07523 5.98552,-3.80593 4.10601,-4.91528 -4.33735,-2.54297 -13.47466,3.7718 -29.69631,4.55687 -31.66258,1.51895 -2.51565,-3.87419 5.26264,-6.05875 10.87226,-3.07204 2.54459,1.36535 7.11325,2.40644 10.17831,2.30404 4.19276,-0.11947 3.78793,-0.4608 -1.67712,-1.34828 -10.81443,-1.77498 -8.76142,-5.59796 5.49397,-10.24017 12.31805,-4.01073 12.83854,-4.04485 16.68431,-0.92161 2.19758,1.7579 3.29637,4.21554 2.48674,5.46141 -0.80964,1.26296 -0.31808,1.8603 1.09878,1.34829 1.38796,-0.512 3.35421,0.32427 4.36626,1.8603 0.98315,1.53602 2.63134,2.3211 3.61445,1.74082 0.98315,-0.58028 0.34701,-2.06509 -1.38794,-3.29392 -2.28433,-1.63842 -2.1976,-3.36218 0.31806,-6.31476 5.23374,-6.14409 9.8024,-6.05876 20.73249,0.40962 5.49397,3.22565 10.43853,5.10301 10.95903,4.16432 0.63613,-1.14348 4.30842,-1.10935 10.95902,0.1024 5.49394,0.98987 16.1638,2.30403 23.71079,2.90139 7.54697,0.59733 13.73489,1.79201 13.73489,2.64536 0,0.85334 1.96627,1.10936 4.36628,0.56322 3.23854,-0.73388 3.87468,-0.22187 2.39999,2.03095 -1.41688,2.1675 -0.9253,2.66245 1.64819,1.70671 2.28434,-0.81923 1.76385,0.83628 -1.33011,4.42033 l -4.9735,5.73449 6.15903,-3.24272 c 3.41204,-1.79204 6.18794,-2.45764 6.18794,-1.50189 0,3.07203 -8.41446,6.04169 -14.42888,5.10301 -3.20963,-0.49494 -6.53494,-0.18775 -7.43132,0.64854 -1.96625,1.87736 -3.52771,1.82617 -12.83851,-0.37547 z m 339.90294,-9.13082 c -6.1302,-5.27367 -13.8506,-10.42789 -17.147,-11.46897 -3.2675,-1.04107 -15.1229,-1.97976 -26.28423,-2.09923 -20.50118,-0.20481 -27.55659,-1.39949 -27.55659,-4.65927 0,-4.86408 -25.67705,-31.84689 -36.63608,-38.52006 -11.71081,-7.09985 -17.00237,-15.82103 -9.62888,-15.82103 1.59036,0 2.89155,-1.22884 2.89155,-2.71365 0,-1.50188 2.60242,-3.12324 5.78313,-3.6182 3.18071,-0.49493 5.78312,-1.96269 5.78312,-3.25978 0,-1.29708 1.82168,-2.35523 4.07711,-2.35523 4.10601,0 19.05537,-15.73571 19.05537,-20.05365 0,-1.28002 1.30121,-1.86029 2.89155,-1.28002 1.59037,0.58028 2.89158,-0.18773 2.89158,-1.70668 0,-1.51896 1.06987,-2.37231 2.37106,-1.89443 1.30121,0.47787 1.8217,-1.36535 1.12771,-4.079 -0.80963,-3.24272 0.92531,-6.72437 5.06025,-10.15482 l 6.30359,-5.20541 h 50.39986 50.3999 v 67.19249 67.19251 l -9.3976,1.00693 c -5.1759,0.56323 -12.0578,1.46777 -15.2963,2.03098 -4.7422,0.83627 -8.0964,-0.83629 -17.0891,-8.53348 z m -209.78272,1.00696 c -11.79758,-4.0278 -12.92528,-4.98354 -12.08672,-10.10363 0.7518,-4.62513 3.38312,-6.58782 14.2843,-10.66682 7.37349,-2.76485 15.58553,-5.01767 18.24575,-5.01767 2.68915,0 6.47708,-1.1435 8.44335,-2.54298 1.96627,-1.39949 4.6265,-2.15044 5.89878,-1.68962 1.2723,0.4608 2.74699,0.0341 3.32531,-0.93869 0.63614,-1.14349 2.71805,-0.98988 5.86986,0.42667 4.53974,2.03098 4.48191,2.69657 -1.09879,9.76229 -3.26746,4.16433 -7.43131,8.48226 -9.22408,9.59161 -1.82168,1.12642 -5.26264,3.77179 -7.63371,5.87103 -11.39275,10.08655 -11.76867,10.17189 -26.02405,5.30781 z m -637.32886,-0.42667 c 0.69397,-0.68269 -0.0578,-1.70669 -1.64819,-2.30404 -1.61927,-0.58027 -2.94939,-1.79202 -2.94939,-2.69657 0,-2.06511 11.01684,1.94562 12.7807,4.65927 0.78072,1.19469 -0.9253,1.9627 -4.0771,1.82616 -2.97831,-0.13653 -4.82891,-0.80215 -4.10602,-1.48482 z m -211.980302,-8.48227 c -9.195156,-2.71364 -18.390313,-4.91527 -20.414411,-4.93234 -2.053015,0 -4.452989,-1.14348 -5.378307,-2.54298 -0.896384,-1.41655 -2.631321,-2.20163 -3.816867,-1.77496 -1.185529,0.44375 -4.250576,-0.13652 -6.824081,-1.28001 -3.874683,-1.72377 -4.19276,-3.32804 -1.850584,-9.38681 1.561439,-4.01072 2.052997,-9.13081 1.127697,-11.34951 -1.214446,-2.81604 -0.202397,-4.55687 3.238543,-5.70036 4.597587,-1.51895 4.510855,-1.91149 -1.214445,-5.27367 -3.383125,-2.0139 -6.15901,-4.40327 -6.15901,-5.32489 0,-0.92161 -3.122895,-2.13336 -6.939762,-2.69657 -4.424073,-0.66562 -7.431304,-2.59417 -8.327689,-5.32489 -1.272295,-3.90833 -0.722887,-4.16432 6.216842,-3.05498 4.192777,0.66561 13.069873,1.3483 19.749373,1.50189 6.708417,0.15361 13.098772,0.83629 14.226469,1.50189 3.383125,1.99683 15.296368,1.38243 22.149365,-1.14348 9.0216598,-3.31098 23.277045,-4.57394 28.250542,-2.49178 3.383125,1.41656 3.180711,1.57017 -1.012049,0.76802 -3.26746,-0.63147 -4.510838,-0.32427 -3.325292,0.80215 1.040965,0.98988 3.730118,1.38242 5.956613,0.88748 6.708416,-1.53602 18.477062,2.0139 18.477062,5.56381 0,1.79204 1.937349,5.85395 4.308425,9.01135 l 4.308425,5.73448 -1.677087,-7.68011 c -0.896402,-4.21553 -2.197596,-8.73827 -2.891567,-10.0183 -0.896384,-1.68962 0.54939,-2.04803 5.291541,-1.29709 3.614454,0.56322 9.368671,1.0411 12.809628,1.05816 6.448188,0.017 24.115614,13.51701 24.115614,18.43228 0,1.34829 -5.378307,5.23955 -11.971059,8.65294 -6.592769,3.41338 -15.093954,9.11373 -18.910821,12.66367 -3.845767,3.61817 -8.298756,5.97341 -10.033692,5.34193 -1.70602,-0.63148 -3.990364,-0.27306 -5.089145,0.76802 -1.098797,1.04109 -5.898797,2.15043 -10.669881,2.45765 -4.742134,0.30719 -10.17829,1.1264 -12.086706,1.80909 -1.879518,0.68267 -6.3614399,0.40959 -9.9758937,-0.63148 -6.3035902,-1.79204 -6.3325233,-1.77497 -0.9541999,0.78508 6.3614225,3.00378 9.2529886,3.29391 11.5083996,1.16055 2.226512,-2.13338 16.568645,-0.15361 15.296351,2.11629 -0.607223,1.05815 -7.749365,2.78192 -15.93249,3.85714 -13.93732407,1.82615 -15.8746738,1.63842 -31.575851,-2.96966 z m 65.320364,-18.36401 c -0.607239,-0.98989 -2.718069,0.256 -4.713251,2.78192 -3.383125,4.24966 -3.296376,4.38618 1.040965,1.82615 2.602405,-1.53603 4.250593,-3.60113 3.672286,-4.60807 z m -82.03359,-17.2888 c -7.951778,-2.0139 -10.785512,-2.0139 -8.674665,0 0.983133,0.93868 4.626503,1.65549 8.125275,1.58722 6.101194,-0.11947 6.130127,-0.17067 0.54939,-1.58722 z m 159.035838,35.84055 c -0.98313,-0.93868 -4.16384,-1.7067 -7.02649,-1.7067 -3.61445,0 -5.84095,-1.72376 -7.11324,-5.44434 -1.59036,-4.71047 -0.3759,-6.34889 8.90601,-11.94685 12.34696,-7.47532 15.64334,-7.83372 27.18067,-2.96965 9.45539,3.95952 8.96384,5.18835 -5.86987,15.24077 -4.85782,3.29392 -8.84817,6.5537 -8.84817,7.25344 0,1.87736 -5.14698,1.57017 -7.22891,-0.42667 z m 95.248,-0.1536 c -1.06988,-1.04109 -6.36143,-1.57016 -11.73974,-1.21175 -5.3783,0.37547 -9.77347,0.0682 -9.77347,-0.68268 0,-0.75096 -1.3012,-1.36535 -2.92048,-1.36535 -4.36625,0 -20.212,-8.7724 -20.212,-11.19591 0,-3.14032 6.82408,-4.07899 17.72526,-2.42351 44.38546,6.72437 45.88907,7.09985 45.88907,11.21297 0,5.64916 -14.4578,9.96709 -18.96864,5.66623 z m -186.303237,-0.75095 c 0.08673,-2.95257 5.378307,-6.70729 7.604801,-5.4102 1.185546,0.69973 -0.05776,2.5771 -2.746985,4.16431 -2.689137,1.58724 -4.857816,2.15044 -4.857816,1.24589 z m 105.888947,-1.22882 c 5.52288,-5.49554 13.93732,-11.52018 16.07708,-11.52018 1.27227,0 2.34215,2.18457 2.34215,4.84702 0,3.53284 -1.99517,5.37607 -7.37347,6.82677 -9.57106,2.57711 -13.76383,2.50884 -11.04576,-0.15361 z m -37.47463,-0.71681 c -1.06987,-0.61441 -1.93734,-1.92856 -1.93734,-2.90138 0,-1.05815 1.35903,-0.95575 3.41204,0.256 1.87951,1.10936 2.74698,2.42352 1.93735,2.90138 -0.80964,0.49496 -2.37108,0.37548 -3.41205,-0.256 z m 213.62849,-3.78885 c 1.50361,-0.83629 5.98554,-2.0651 9.9759,-2.73071 7.02649,-1.19468 7.05541,-1.14349 1.44577,1.46774 -6.10119,2.81605 -16.3084,3.95955 -11.42167,1.26297 z m 49.21437,-1.07523 c -3.06505,-1.36535 -4.88675,-2.88431 -4.0771,-3.37924 0.83854,-0.47788 3.8747,0.6656 6.73734,2.54296 6.15903,4.01073 5.17588,4.335 -2.66024,0.83628 z m 269.37778,-2.3723 c -1.04097,-2.3723 -0.20242,-3.56699 2.48674,-3.56699 4.62648,0 5.08912,1.51896 1.53252,4.84702 -1.8506,1.72376 -2.80482,1.41654 -4.01926,-1.28003 z m -299.94157,-0.15359 c 0,-0.93869 5.52289,-1.6555 12.28914,-1.58723 9.51323,0.1024 10.98793,0.46081 6.506,1.58723 -8.06745,2.04803 -18.79514,2.04803 -18.79514,0 z m 430.84252,-1.51896 c 0,-0.83629 2.02407,-1.99684 4.51081,-2.56005 2.48675,-0.56319 3.78795,-1.72375 2.89158,-2.59417 -3.61445,-3.43045 3.81685,-9.62575 14.16864,-11.84445 5.86986,-1.24588 11.33492,-1.87736 12.17347,-1.38241 2.42891,1.43362 -8.41444,11.17883 -13.3301,11.96391 -3.75902,0.59734 -3.7012,0.75094 0.34699,0.90455 4.45301,0.18773 10.23612,-3.73766 18.56381,-12.57833 1.76387,-1.87736 9.25301,-5.49555 16.62648,-8.05559 10.66986,-3.70352 13.44575,-4.11314 13.44575,-2.01389 0,2.71363 -6.15901,6.46836 -31.17101,18.97842 -18.01442,9.01133 -38.22642,13.85835 -38.22642,9.18201 z m -31.80718,-1.8091 c 0,-1.09228 -1.18553,-1.55308 -2.66023,-1.02402 -1.4458,0.52907 -6.33253,0.13655 -10.84335,-0.87041 -7.02651,-1.58722 -7.48915,-2.0651 -3.35422,-3.44751 2.66023,-0.87041 9.16625,-1.5531 14.45781,-1.5019 18.62164,0.17067 31.05534,-0.64855 29.69632,-1.94563 -1.87952,-1.77496 3.84578,-3.68645 7.28674,-2.4235 3.41202,1.24588 -2.28433,9.30147 -6.853,9.69401 -1.73494,0.13653 -6.41927,0.44374 -10.3807,0.66561 -3.99035,0.2048 -9.51324,0.93869 -12.28914,1.62136 -3.12289,0.75095 -5.06023,0.46081 -5.06023,-0.76801 z m -804.808032,-1.36535 c -0.693988,-0.69975 -2.197596,-4.57394 -3.325292,-8.58467 -1.127714,-4.02779 -3.759035,-9.40387 -5.869882,-11.94685 -2.11083,-2.56003 -4.279492,-6.55371 -4.799983,-8.90893 -0.520491,-2.33817 -2.168679,-4.77875 -3.672286,-5.42729 -3.672286,-1.5531 3.267477,-10.46202 7.055411,-9.0796 1.590355,0.58026 2.891566,2.5259 2.891566,4.30085 0,1.79204 2.689153,4.11313 6.014428,5.15423 11.681914,3.68645 17.522862,8.43105 15.3542,12.39059 -1.15663,2.06509 -2.31326,7.27051 -2.573488,11.58844 -0.289162,4.30087 -1.445775,8.7212 -2.602405,9.81348 -2.371075,2.25284 -6.563853,2.59419 -8.472269,0.69975 z m 328.249942,-5.12009 c -3.29638,-1.67254 -6.73734,-6.19528 -7.80721,-10.24015 -1.67711,-6.28063 -1.30121,-7.11691 2.80481,-6.19529 3.93252,0.90454 18.91081,15.54797 18.91081,18.51761 0,1.97978 -8.35661,0.73388 -13.90841,-2.08217 z m 328.48127,0 c -2.39999,-1.63842 -5.14696,-5.42728 -6.1012,-8.39692 l -1.73493,-5.41022 7.83613,2.42351 c 4.30844,1.31415 11.36385,2.40644 15.70118,2.40644 6.24577,0.017 7.48913,0.63147 6.07227,3.00377 -2.57347,4.24967 -9.88914,8.96015 -13.93732,8.96015 -1.90842,0 -5.40722,-1.3483 -7.83613,-2.98673 z m -476.50025,-0.90454 c 0,-3.85713 8.84818,-9.76228 14.6313,-9.76228 7.69155,0 7.02649,1.96269 -2.51566,7.35585 -8.93492,5.06887 -12.11564,5.70035 -12.11564,2.40643 z m 55.72037,-1.10935 c 0.23132,-1.80909 1.44578,-2.91843 2.71806,-2.45764 3.20963,1.16056 2.86266,5.75156 -0.43373,5.75156 -1.4747,0 -2.51566,-1.48483 -2.28433,-3.29392 z m 36.80956,-0.9728 c -1.99518,-1.39949 -5.46505,-2.56005 -7.72047,-2.56005 -2.28433,0 -8.29878,-1.28002 -13.38792,-2.86725 -5.08915,-1.57015 -12.86745,-2.69657 -17.29153,-2.52591 -11.36383,0.47789 -17.92768,-2.06509 -23.62404,-9.14787 -4.56867,-5.71741 -4.59759,-6.43424 -0.14459,-10.44496 2.63133,-2.35523 6.36144,-3.92539 8.3277,-3.48166 1.93735,0.42669 6.65059,-1.12641 10.46745,-3.46458 3.84578,-2.33817 9.77348,-4.88115 13.21443,-5.64916 7.92288,-1.79202 39.73005,-2.61124 43.74932,-1.1264 6.76625,2.45763 26.25536,24.67876 28.04813,32.00048 l 1.93735,7.79959 -14.77588,2.01391 c -19.37345,2.64536 -24.4626,2.54295 -28.79994,-0.54614 z m 478.75569,-2.61126 c -6.24578,-2.78191 -12.86746,-5.06887 -14.71805,-5.06887 -1.8506,0 -6.91083,-3.85713 -11.24819,-8.55053 -4.33734,-4.71047 -9.1084,-8.12386 -10.61201,-7.57772 -3.93253,1.43362 -14.60238,-0.90455 -12.66503,-2.76485 0.9253,-0.87041 -0.26025,-1.58722 -2.63132,-1.58722 -5.58072,0 -22.0626,-11.81031 -22.0626,-15.83811 0,-1.70668 -1.90845,-5.29074 -4.25061,-7.95319 -2.34216,-2.67951 -5.17589,-8.20919 -6.33252,-12.28819 -1.79277,-6.43423 -2.31325,-6.8609 -3.9036,-3.17445 -1.01205,2.35524 -0.54939,5.80276 1.01205,7.68012 1.53252,1.87738 4.10601,4.94941 5.72528,6.8097 4.53975,5.32489 7.43132,14.52396 4.53975,14.52396 -1.41685,0 -2.57348,1.24589 -2.57348,2.76485 0,2.01388 -1.93735,2.54296 -7.25781,1.92856 -5.92771,-0.66562 -6.6506,-0.37546 -3.93255,1.55309 6.10121,4.33501 -6.76623,0.34134 -14.22647,-4.4374 -3.75903,-2.40644 -5.89878,-3.29393 -4.74215,-1.96269 1.44578,1.62135 1.01205,1.97976 -1.38796,1.09228 -1.96625,-0.69975 -2.86263,-2.35524 -1.99516,-3.66939 0.86746,-1.31415 0.40482,-2.38937 -1.01205,-2.38937 -1.41686,0 -3.20963,0.95575 -4.01927,2.13337 -0.83855,1.24587 -1.56145,0.83627 -1.67712,-0.95575 -0.14449,-1.87737 -1.53252,-2.61124 -3.5566,-1.87737 -2.45784,0.90455 -2.74699,-0.78508 -1.06987,-6.2977 1.21445,-4.13019 2.63131,-13.09033 3.12287,-19.90003 0.7518,-10.76924 0,-12.98794 -5.66747,-17.06693 -13.99514,-10.01828 -13.04093,-10.64976 16.04819,-10.64976 24.60717,0 26.05294,0.18774 22.38066,2.98671 -3.73011,2.85018 -3.64337,2.85018 2.05301,0 5.49397,-2.74778 16.91564,-2.98671 148.07682,-2.98671 h 142.09127 l 4.36627,3.92538 c 7.17106,6.46838 8.61685,14.06316 3.1518,16.75973 -9.88913,4.89821 -15.93251,8.96014 -14.54455,9.77935 0.80963,0.47787 3.35421,-0.61441 5.66747,-2.4235 2.31322,-1.80909 4.25057,-2.49177 4.30841,-1.51896 0.0579,0.97282 -6.50601,5.58088 -14.57347,10.24016 l -14.66019,8.46519 1.8795,9.01134 c 1.82168,8.85773 1.70602,9.02842 -6.88192,10.7863 -4.77108,0.98989 -11.85541,4.23261 -15.73007,7.21931 -3.84579,2.96965 -12.69396,7.20225 -19.63371,9.36975 l -12.6072,3.97659 -5.11806,-3.73765 c -5.66747,-4.1302 -6.73735,-3.19152 -2.13976,1.89442 2.51567,2.74778 2.053,3.29392 -2.71807,3.29392 -3.12288,0 -6.41927,0.68268 -7.28674,1.51896 -0.86747,0.83628 -6.47709,2.04803 -12.46262,2.69657 -5.98553,0.66561 -13.12769,2.38937 -15.87467,3.84006 -3.18071,1.68963 -11.13251,2.71365 -22.14935,2.83312 -9.4554,0.11946 -18.159,0.78507 -19.34455,1.48481 -1.21444,0.69974 -7.48913,1.26296 -13.99514,1.22883 -8.53011,-0.0341 -14.94935,-1.45069 -23.16139,-5.12009 z m 134.25516,-38.45178 c 0,-0.40961 -1.30121,-0.75094 -2.89158,-0.75094 -1.59036,0 -2.89155,0.81919 -2.89155,1.80908 0,0.98988 1.30119,1.33122 2.89155,0.75094 1.59037,-0.58027 2.89158,-1.39948 2.89158,-1.80908 z m 43.3734,-23.89371 c 0,-0.4096 -1.30121,-0.75095 -2.89157,-0.75095 -1.59036,0 -2.89157,0.81922 -2.89157,1.8091 0,0.98989 1.30121,1.33122 2.89157,0.75095 1.59036,-0.58028 2.89157,-1.39949 2.89157,-1.8091 z m -278.94885,-24.32037 c -0.89637,-0.512 -3.23854,0 -5.20481,1.17761 -2.83372,1.67257 -2.48674,1.87737 1.61927,0.95575 2.86265,-0.64854 4.45301,-1.6043 3.58554,-2.13336 z m -668.210712,83.21834 c -1.474708,-1.36535 -4.395174,-4.3862 -6.477104,-6.74143 l -3.759035,-4.26673 7.720483,4.50567 c 4.250592,2.49177 7.142159,5.51262 6.448171,6.74143 -0.983133,1.77497 -1.821669,1.72376 -3.932515,-0.23894 z m 697.039562,-3.95952 c -10.06263,-6.87798 -10.93008,-7.90199 -6.6795,-7.90199 6.91083,0 13.47468,4.04485 11.45058,7.08277 -1.38794,2.06511 -2.63132,2.28697 -4.77108,0.81922 z m -23.07465,-2.03096 c -4.74215,-1.46776 -9.57107,-3.56699 -10.72768,-4.69341 -1.18553,-1.10935 -3.18073,-2.03096 -4.48191,-2.03096 -1.27231,0 -5.26264,-1.62136 -8.84818,-3.58406 -6.39035,-3.51578 -6.41927,-3.6694 -1.21448,-7.47533 7.69157,-5.59794 15.09396,-3.46458 29.17586,8.39694 6.56384,5.51262 11.94215,10.47909 11.94215,11.04231 0,1.79202 -6.99758,1.05814 -15.84576,-1.65549 z m -36.17342,-1.45069 c 1.87953,-1.10935 3.84578,-1.10935 5.7253,0 1.85058,1.09228 0.86747,1.67256 -2.86265,1.67256 -3.75904,0 -4.71324,-0.58028 -2.86265,-1.67256 z m -638.919206,-1.75789 c -1.908434,-1.36536 -3.065064,-4.11314 -2.544572,-6.12704 0.751803,-2.88431 1.619271,-2.37231 4.134928,2.47471 3.556621,6.80971 3.383124,7.18518 -1.590356,3.65233 z m 173.782786,-2.90139 c -2.139753,-1.99684 -6.245767,-6.12703 -9.137333,-9.16495 l -5.262642,-5.52968 8.327705,-3.63524 c 4.568659,-1.97978 9.455396,-3.6182 10.872261,-3.6182 2.399995,0 12.115639,15.39437 12.115639,19.21736 0,1.63843 -8.385527,6.21237 -11.59516,6.33184 -0.809637,0.0341 -3.20963,-1.58723 -5.32047,-3.60113 z m 814.98633,-6.58783 c 0,-1.92857 1.93735,-3.41339 4.42409,-3.41339 3.55662,0 3.81685,0.68268 1.35903,3.41339 -1.70602,1.87735 -3.70119,3.41339 -4.45301,3.41339 -0.72288,0 -1.33011,-1.53604 -1.33011,-3.41339 z m -297.83073,-1.7067 c 0,-0.93867 1.93735,-1.70669 4.33734,-1.70669 2.37107,0 4.33734,0.76802 4.33734,1.70669 0,0.93869 -1.96627,1.7067 -4.33734,1.7067 -2.39999,0 -4.33734,-0.76801 -4.33734,-1.7067 z m 8.5301,-6.55369 c -3.61444,-1.72376 -5.37831,-3.56699 -3.93252,-4.09608 1.44578,-0.512 4.97348,0.90455 7.83612,3.14033 6.21686,4.8982 4.97349,5.20541 -3.9036,0.95575 z m -642.562576,-2.13337 c -2.804818,-0.97282 -7.604801,-1.29709 -10.669864,-0.71681 -3.036131,0.56321 -12.780695,-0.2048 -21.628857,-1.72376 -12.202405,-2.09924 -16.077087,-3.54992 -16.077087,-6.00757 0,-1.77495 -2.284327,-4.01072 -5.060229,-4.96647 -15.151787,-5.18834 -15.845737,-6.14408 -16.828887,-22.46007 -0.63614,-10.71803 0.34699,-17.54482 3.09398,-21.41901 l 4.048175,-5.70034 h 100.6263 c 95.479336,0.017 101.117875,0.18774 110.081715,3.41337 10.32287,3.72061 16.30841,10.64977 13.96624,16.16239 -0.83855,1.92857 -6.04336,6.43423 -11.62407,10.01829 -5.5518,3.58405 -10.98793,8.19213 -12.05781,10.22309 -4.04819,7.68011 -12.231301,12.51007 -22.004779,12.97086 -30.332464,1.39949 -34.525225,0.83629 -44.819179,-6.07583 -5.638552,-3.78885 -8.501202,-4.96647 -6.708434,-2.76484 1.734937,2.1163 2.515657,3.84006 1.734937,3.84006 -0.78072,0 1.734936,1.8603 5.58072,4.1302 4.453005,2.6283 12.549365,4.6934 22.265012,5.70036 14.775877,1.51895 15.036122,1.63843 7.489137,3.48166 -9.195157,2.23575 -41.956537,1.16054 -47.53724,-1.57017 -2.457824,-1.19469 -9.889145,-1.51896 -20.24093142,-0.85335 -10.40961858,0.68268 -17.78309058,0.35841 -20.26984758,-0.85335 -2.428908,-1.19468 -3.903599,-1.26294 -3.903599,-0.18772 0,0.95575 2.024099,2.20162 4.510839,2.76483 2.48674,0.56321 3.730101,1.79203 2.718052,2.73071 -2.284327,2.20164 -10.091541,2.13337 -16.684293,-0.13653 z m 531.237496,-0.61441 c -10.49637,-2.13337 -46.20713,-18.55176 -48.69387,-22.40888 -0.98314,-1.48482 -1.76385,-4.3862 -1.76385,-6.4513 0,-2.0651 -4.0771,-6.38303 -9.07951,-9.60868 -5.0024,-3.22565 -10.90118,-8.43106 -13.09878,-11.53724 -2.19757,-3.12326 -7.11322,-6.36598 -10.87226,-7.20225 -19.11322,-4.2838 -9.42649,-5.17127 56.73242,-5.17127 h 67.40227 l 7.72047,8.12385 c 8.18311,8.58467 11.6819,25.94174 6.93975,34.33866 -3.35423,5.95637 -7.34456,1.2971 -7.40239,-8.65293 0,-4.40327 -1.0699,-8.37987 -2.34218,-8.85774 -1.27228,-0.4608 -1.12769,4.67634 0.31808,11.41778 4.25059,19.76351 4.01926,21.81154 -2.57349,24.42278 -5.58072,2.20163 -6.62167,1.89442 -13.73493,-4.01073 -4.25059,-3.51579 -7.72045,-5.59796 -7.72045,-4.62514 0,0.97281 1.15663,2.50883 2.57349,3.39632 1.41686,0.88748 3.44096,3.34511 4.51082,5.46142 1.82169,3.53285 1.12774,3.80592 -9.05057,3.4987 -6.07228,-0.18773 -15.00721,-1.14346 -19.86502,-2.13335 z m -0.31806,-34.28746 c -0.9253,-1.45069 -2.31325,-2.2699 -3.06507,-1.82617 -0.78072,0.44375 -0.52049,1.63843 0.52049,2.62831 2.83372,2.73071 4.51083,2.20164 2.54458,-0.80214 z m 45.28183,-10.06948 c 0,-1.36536 -3.38313,-4.62514 -7.51806,-7.25346 l -7.51807,-4.7958 6.07228,4.93234 c 3.35421,2.69657 6.07228,5.95635 6.07228,7.25343 0,1.28004 0.63615,2.32112 1.44579,2.32112 0.78072,0 1.44578,-1.10935 1.44578,-2.45763 z m -421.87868,31.77861 c -6.33252,-6.96331 -1.87952,-15.85518 13.33009,-26.60734 8.32769,-5.88809 7.11324,-11.72498 -3.70119,-17.71548 -3.84578,-2.15042 -7.0265,-4.26673 -7.0265,-4.6934 0,-0.42667 20.32768,-0.78507 45.1951,-0.78507 h 45.19508 l -1.67711,6.16116 c -0.95421,3.37925 -0.46265,10.05241 1.06988,14.81408 3.52771,10.93991 1.67711,14.3533 -8.50119,15.68452 -4.453,0.58028 -13.44575,4.07899 -20.0096,7.79958 -10.46745,5.92224 -13.56142,6.74143 -25.73489,6.75852 -7.63371,0.017 -18.59272,0.47786 -24.40476,1.05813 -8.73251,0.85335 -11.13251,0.42668 -13.73491,-2.4747 z m 776.81774,1.26295 c -7.66265,-2.6283 -6.13011,-7.3217 5.00239,-15.18956 14.86263,-10.49617 18.82404,-21.76034 11.5084,-32.88797 -1.79277,-2.73071 0.63614,-2.98671 27.44092,-2.98671 19.17105,0 28.77102,0.59733 27.58549,1.74083 -1.01205,0.95574 -2.9494,1.31414 -4.30844,0.8192 -2.9783,-1.07521 -5.06021,2.62832 -6.91083,12.25406 -1.59034,8.15799 -9.02166,17.61306 -13.87948,17.61306 -1.82168,0 -2.45782,0.51201 -1.41687,1.12644 1.06988,0.6144 0.46266,2.16749 -1.33011,3.43044 -2.45783,1.74082 -4.22168,1.84322 -7.19998,0.37547 -3.06506,-1.50189 -3.96146,-1.31415 -3.96146,0.83628 0,1.51895 -1.35903,2.76484 -2.9783,2.76484 -1.64819,0 -5.69637,2.69658 -8.96383,5.97342 -6.10121,6.10996 -11.62408,7.21932 -20.5879,4.1302 z"
         style="fill:#272640;fill-opacity:1;stroke:none;stroke-width:2.22148752;stroke-opacity:1"
         id="path2393" />
    </g>
  </g>
  <metadata
     id="metadata5">
    <rdf:RDF>
      <cc:Work>
        <dc:format>image/svg+xml</dc:format>
        <dc:type
           rdf:resource="http://purl.org/dc/dcmitype/StillImage" />
        <cc:license
           rdf:resource="http://creativecommons.org/publicdomain/zero/1.0/" />
        <dc:publisher>
          <cc:Agent
             rdf:about="http://openclipart.org/">
            <dc:title>Openclipart</dc:title>
          </cc:Agent>
        </dc:publisher>
        <dc:title></dc:title>
        <dc:date>2010-04-03T07:00:08</dc:date>
        <dc:description>Graphics by Jon Phillips. From OCAL 0.18 release.</dc:description>
        <dc:source>https://openclipart.org/detail/36349/lightning-09-by-anonymous</dc:source>
        <dc:creator>
          <cc:Agent>
            <dc:title>Anonymous</dc:title>
          </cc:Agent>
        </dc:creator>
        <dc:subject>
          <rdf:Bag>
            <rdf:li>lightning</rdf:li>
            <rdf:li>storm</rdf:li>
            <rdf:li>weather</rdf:li>
          </rdf:Bag>
        </dc:subject>
      </cc:Work>
      <cc:License
         rdf:about="http://creativecommons.org/publicdomain/zero/1.0/">
        <cc:permits
           rdf:resource="http://creativecommons.org/ns#Reproduction" />
        <cc:permits
           rdf:resource="http://creativecommons.org/ns#Distribution" />
        <cc:permits
           rdf:resource="http://creativecommons.org/ns#DerivativeWorks" />
      </cc:License>
    </rdf:RDF>
  </metadata>
</svg>
