<svg id="visual" viewBox="0 0 675 900" width="675" height="900" xmlns="http://www.w3.org/2000/svg" xmlns:xlink="http://www.w3.org/1999/xlink" version="1.1"><rect x="0" y="0" width="675" height="900" fill="#212F45"></rect><path d="M0 417L28.2 426.3C56.3 435.7 112.7 454.3 169 452.3C225.3 450.3 281.7 427.7 337.8 416.7C394 405.7 450 406.3 506.2 411.2C562.3 416 618.7 425 646.8 429.5L675 434L675 901L646.8 901C618.7 901 562.3 901 506.2 901C450 901 394 901 337.8 901C281.7 901 225.3 901 169 901C112.7 901 56.3 901 28.2 901L0 901Z" fill="#006466" stroke-linecap="round" stroke-linejoin="miter"></path></svg>